{"glyphs":{"0":{"ha":804,"x_min":90,"x_max":715,"o":"m 386 0 q 301 17 343 0 q 224 57 258 33 q 165 102 189 81 q 132 133 140 124 q 100 231 110 172 q 90 358 90 290 q 96 472 90 417 q 110 572 101 526 q 126 644 118 617 q 178 685 144 661 q 254 731 211 708 q 346 769 297 754 q 443 785 394 785 q 505 773 469 785 q 576 742 540 761 q 641 704 613 724 q 683 668 669 685 q 708 567 701 626 q 715 450 715 507 q 710 338 715 394 q 696 233 704 282 q 678 149 688 183 q 613 87 657 122 q 510 26 568 51 q 386 0 451 0 m 444 106 q 506 119 475 106 q 557 149 538 132 q 575 239 569 183 q 581 346 581 294 q 577 450 581 399 q 568 542 574 501 q 556 600 563 582 q 477 656 529 635 q 369 678 425 678 q 305 669 339 678 q 247 647 271 660 q 234 593 239 628 q 226 517 229 558 q 224 432 224 475 q 227 328 224 378 q 237 243 231 278 q 251 194 243 208 q 337 131 283 156 q 444 106 390 106 z "},"1":{"ha":558,"x_min":54,"x_max":493,"o":"m 382 0 q 346 3 375 0 q 277 12 317 7 q 197 23 238 17 q 123 35 156 29 q 76 47 90 42 q 82 72 76 63 q 90 85 88 81 l 153 92 q 194 103 178 94 q 218 135 210 111 q 226 208 226 158 l 226 535 q 231 599 226 571 q 239 638 236 628 l 236 640 l 54 622 q 58 661 54 643 q 65 686 63 679 q 208 731 136 706 q 336 785 281 757 q 364 778 351 783 q 383 765 376 772 q 374 715 379 747 q 366 642 369 682 q 363 560 363 601 l 363 172 q 357 123 363 146 q 344 93 351 100 l 483 83 q 489 74 485 82 q 493 49 493 65 q 463 26 485 38 q 419 8 442 15 q 382 0 396 0 z "},"2":{"ha":778,"x_min":54,"x_max":708,"o":"m 122 0 q 97 15 113 0 q 67 49 81 29 q 54 83 54 68 q 144 147 89 103 q 261 252 200 192 q 376 381 322 313 q 463 516 429 449 q 497 642 497 583 q 441 663 476 654 q 356 677 406 672 q 244 682 307 682 l 214 513 q 194 504 208 508 q 161 500 181 500 q 135 541 147 514 q 113 603 122 568 q 97 672 103 638 q 185 733 132 708 q 298 772 239 758 q 407 785 357 785 q 456 776 426 785 q 518 751 485 767 q 581 719 551 736 q 628 685 610 701 q 647 656 647 668 q 621 541 647 600 q 552 424 594 482 q 460 315 510 367 q 360 220 410 263 q 274 150 311 178 l 589 122 l 649 239 q 685 233 668 239 q 708 221 703 228 q 705 150 708 194 q 694 68 701 106 q 651 40 679 56 q 592 12 622 24 q 542 0 563 0 q 499 7 531 0 q 425 24 467 14 q 340 45 383 35 q 260 63 296 56 q 206 69 225 69 q 180 44 197 61 q 146 14 163 28 q 122 0 129 0 z "},"3":{"ha":661,"x_min":35,"x_max":590,"o":"m 210 -146 q 154 -133 190 -146 q 85 -101 118 -119 q 40 -69 53 -83 q 53 -37 47 -47 q 67 -24 60 -26 q 142 -33 103 -29 q 219 -36 182 -36 q 315 -30 268 -36 q 399 -12 361 -24 q 420 26 410 -3 q 438 88 431 54 q 446 144 446 121 q 409 227 446 196 q 317 277 372 258 q 204 308 261 296 q 206 330 204 317 q 213 357 208 343 q 224 379 218 371 q 253 380 232 379 q 293 390 275 381 q 378 461 344 419 q 429 550 413 503 q 446 643 446 597 q 390 664 428 656 q 300 677 351 672 q 188 682 249 682 l 146 543 q 128 535 142 539 q 94 531 114 531 q 62 587 81 549 q 35 672 43 625 q 122 733 69 708 q 231 772 174 758 q 338 785 289 785 q 385 776 356 785 q 450 751 415 767 q 516 719 485 736 q 567 685 547 701 q 586 656 586 668 q 557 533 586 596 q 483 419 528 469 q 388 347 438 369 l 388 342 q 489 303 443 326 q 563 247 535 281 q 590 164 590 213 q 580 103 590 139 q 553 32 569 68 q 520 -32 538 -4 q 488 -71 503 -60 q 420 -105 467 -87 q 318 -134 374 -122 q 210 -146 263 -146 z "},"4":{"ha":767,"x_min":36,"x_max":717,"o":"m 449 -147 q 437 -143 446 -147 q 417 -132 428 -139 q 433 -69 425 -110 q 440 13 440 -28 l 440 83 l 103 83 q 64 120 85 94 q 36 185 43 146 l 417 758 q 452 768 431 763 q 499 779 474 774 q 547 786 524 785 l 579 765 q 576 727 578 753 q 572 668 574 701 q 569 598 569 635 q 568 526 568 561 l 568 181 l 703 188 l 717 165 q 710 135 715 153 q 701 104 706 118 q 692 85 696 90 l 568 85 l 568 -121 q 536 -133 557 -126 q 492 -143 515 -139 q 449 -147 469 -147 m 154 178 l 436 178 l 436 504 q 442 576 436 542 q 453 626 447 610 l 447 628 l 154 178 z "},"5":{"ha":638,"x_min":22,"x_max":563,"o":"m 192 -146 q 136 -133 172 -146 q 67 -101 100 -119 q 22 -69 35 -83 q 35 -36 28 -46 q 47 -24 42 -26 q 124 -33 85 -29 q 200 -36 163 -36 q 291 -31 249 -36 q 369 -12 333 -25 q 387 15 378 -7 q 405 67 396 36 q 419 134 414 99 q 425 203 425 169 q 401 242 425 222 q 340 281 378 261 q 257 319 301 300 q 169 354 213 338 q 111 378 138 367 q 69 397 85 389 q 50 411 53 406 q 61 528 50 468 q 90 642 72 588 q 129 739 108 697 q 215 751 163 746 q 327 763 268 757 q 441 775 386 768 q 533 792 496 782 l 563 778 q 555 728 563 754 q 537 678 547 701 q 515 642 526 656 q 369 655 451 651 q 221 658 288 658 q 200 599 210 633 q 185 528 190 565 q 178 460 179 492 l 267 433 q 428 376 363 406 q 528 309 494 347 q 563 211 563 271 q 544 90 563 147 q 501 -9 526 32 q 454 -69 475 -50 q 390 -103 432 -86 q 295 -133 347 -121 q 192 -146 243 -146 z "},"6":{"ha":731,"x_min":76,"x_max":667,"o":"m 364 0 q 281 16 322 0 q 206 56 240 32 q 148 101 172 79 q 115 132 124 122 q 85 235 93 172 q 76 371 76 299 q 94 561 76 478 q 139 705 113 644 q 193 803 165 765 q 240 856 221 840 q 282 878 253 865 q 347 903 311 892 q 414 923 382 915 q 467 931 446 931 q 522 917 488 931 q 590 886 557 904 q 635 854 622 868 q 623 823 629 833 q 610 808 617 813 q 535 817 571 815 q 469 819 499 819 q 413 817 446 819 q 347 809 379 814 q 297 797 315 804 q 256 705 282 783 q 213 493 231 626 q 273 523 236 507 q 349 551 310 539 q 419 564 389 564 q 488 549 451 564 q 557 515 524 535 q 614 475 590 494 q 643 446 638 456 q 661 376 656 417 q 667 300 667 336 q 659 210 667 249 q 640 144 651 172 q 580 84 621 118 q 484 25 539 50 q 364 0 429 0 m 417 104 q 449 108 431 104 q 486 122 467 113 q 519 142 506 131 q 531 196 526 161 q 536 274 536 231 q 533 335 536 304 q 521 386 529 367 q 471 422 501 407 q 410 444 440 436 q 360 451 381 451 q 313 446 340 451 q 258 434 285 440 q 214 422 231 428 q 210 388 211 408 q 208 346 208 368 q 211 281 208 314 q 219 225 214 249 q 232 194 225 201 q 289 147 256 167 q 356 115 322 126 q 417 104 390 104 z "},"7":{"ha":728,"x_min":71,"x_max":690,"o":"m 300 -147 q 263 -136 283 -144 q 222 -117 242 -128 q 188 -94 203 -106 q 167 -71 174 -82 q 185 10 167 -40 q 233 122 203 60 q 301 252 264 185 q 377 385 339 319 q 451 508 415 451 q 512 604 486 564 q 547 660 538 644 l 218 660 l 183 540 q 167 533 181 538 q 132 528 154 528 q 106 573 119 547 q 82 625 92 599 q 71 672 72 651 q 103 713 82 690 q 148 756 124 736 q 192 785 172 776 q 233 783 199 785 q 313 777 267 781 q 408 769 360 774 q 494 763 456 765 q 547 761 532 761 q 577 767 554 761 q 622 779 600 774 q 647 783 644 785 q 676 758 663 778 q 690 717 690 738 l 522 432 q 436 278 472 347 q 377 151 400 208 q 343 45 354 93 q 332 -43 332 -3 q 335 -76 332 -60 q 342 -107 338 -93 q 319 -133 335 -121 q 300 -147 304 -144 z "},"8":{"ha":744,"x_min":81,"x_max":664,"o":"m 351 0 q 271 15 313 0 q 192 51 229 29 q 128 95 156 74 q 93 131 101 117 q 84 174 88 146 q 81 231 81 201 q 85 295 81 263 q 99 353 89 328 q 137 398 110 375 q 197 441 164 421 q 253 474 229 461 q 183 504 217 489 q 133 533 149 519 q 115 596 124 553 q 107 686 107 639 q 113 758 107 728 q 129 811 118 789 q 210 868 163 840 q 310 913 257 896 q 414 931 363 931 q 484 917 443 931 q 561 886 525 904 q 611 853 597 868 q 627 798 621 833 q 633 725 633 763 q 631 665 633 699 q 621 614 628 632 q 565 553 603 581 q 490 503 526 525 q 556 478 526 490 q 608 453 586 465 q 642 429 631 440 q 658 374 653 407 q 664 301 664 342 q 658 214 664 254 q 646 147 653 174 q 563 72 613 106 q 459 19 514 39 q 351 0 404 0 m 390 103 q 442 108 415 103 q 490 123 468 114 q 524 140 513 132 q 535 183 531 156 q 539 247 539 210 q 535 315 539 286 q 524 360 531 343 q 490 376 510 367 q 434 399 469 385 q 336 433 399 413 q 284 405 318 424 q 222 354 250 386 q 210 312 214 339 q 206 251 206 285 q 207 217 206 233 q 211 188 208 200 q 267 144 232 164 q 336 114 301 125 q 390 103 371 103 m 403 532 q 446 552 418 539 q 494 590 474 565 q 508 644 503 613 q 513 711 513 676 q 510 752 513 729 q 501 789 508 775 q 464 810 489 801 q 409 824 439 819 q 349 829 379 829 q 314 828 333 829 q 275 823 294 826 q 240 814 256 819 q 232 771 235 793 q 229 726 229 749 q 235 641 229 679 q 253 585 242 603 q 278 574 268 579 q 303 565 289 569 q 340 552 317 560 q 403 532 364 544 z "},"9":{"ha":729,"x_min":64,"x_max":656,"o":"m 286 -146 q 231 -133 267 -146 q 162 -101 194 -119 q 117 -69 129 -83 q 128 -38 121 -50 q 142 -24 136 -26 q 215 -33 178 -29 q 285 -36 251 -36 q 336 -33 310 -36 q 388 -24 363 -29 q 431 -12 413 -18 q 463 39 443 -1 q 501 145 483 79 q 525 294 519 211 q 465 265 503 282 q 385 234 426 247 q 313 221 344 221 q 244 235 281 221 q 174 271 207 250 q 117 310 140 292 q 88 339 93 329 q 69 408 75 368 q 64 485 64 447 q 72 573 64 532 q 90 640 79 614 q 153 703 111 669 q 250 760 194 736 q 368 785 306 785 q 449 771 410 785 q 521 737 488 757 q 578 697 554 717 q 610 667 601 678 q 644 560 632 628 q 656 385 656 492 q 642 244 656 315 q 608 109 629 172 q 563 1 588 46 q 517 -62 539 -44 q 458 -99 497 -79 q 372 -132 418 -118 q 286 -146 325 -146 m 371 333 q 420 340 390 333 q 479 355 450 346 q 524 369 508 364 q 526 394 525 381 q 526 425 526 407 q 523 492 526 457 q 514 556 519 528 q 500 592 508 583 q 444 639 478 619 q 376 669 411 658 q 311 681 340 681 q 278 676 297 681 q 242 663 260 671 q 210 643 224 654 q 200 610 204 632 q 194 562 196 588 q 192 511 192 536 q 196 450 192 481 q 210 400 200 419 q 257 365 228 381 q 318 342 286 350 q 371 333 350 333 z "},"A":{"ha":1104,"x_min":38,"x_max":1074,"o":"m 342 0 q 308 3 335 0 q 244 11 282 6 q 167 22 207 17 q 93 35 128 28 q 38 47 58 42 q 43 71 38 60 q 54 88 49 82 l 67 88 q 103 99 85 88 q 142 140 122 111 q 181 217 161 168 q 224 343 201 267 l 382 894 q 420 924 394 907 q 477 959 446 942 q 537 988 508 976 q 581 1000 565 1000 q 631 988 600 1000 q 695 956 663 975 q 747 918 728 938 l 935 124 q 945 100 939 110 q 972 89 951 90 l 1060 83 q 1068 74 1064 78 q 1074 47 1072 69 q 1044 26 1063 38 q 1003 8 1025 15 q 964 0 982 0 q 919 4 951 0 q 847 15 888 8 q 765 30 806 22 q 693 45 725 38 q 647 57 661 53 q 654 81 647 71 q 663 92 661 90 l 710 92 q 747 94 732 92 q 768 114 763 97 q 764 171 774 131 l 714 397 l 357 397 l 301 200 q 281 149 293 171 q 256 115 269 128 q 226 99 243 103 l 439 82 q 444 69 440 78 q 449 46 449 60 q 418 24 438 35 q 378 6 399 13 q 342 0 357 0 m 379 478 q 513 481 451 478 q 621 487 575 483 q 690 494 667 490 l 610 851 q 549 884 579 872 q 492 901 519 896 l 379 478 z "},"Á":{"ha":1104,"x_min":38,"x_max":1074,"o":"m 342 0 q 308 3 335 0 q 244 11 282 6 q 167 22 207 17 q 93 35 128 28 q 38 47 58 42 q 43 71 38 60 q 54 88 49 82 l 67 88 q 103 99 85 88 q 142 140 122 111 q 181 217 161 168 q 224 343 201 267 l 382 894 q 420 924 394 907 q 477 959 446 942 q 537 988 508 976 q 581 1000 565 1000 q 631 988 600 1000 q 695 956 663 975 q 747 918 728 938 l 935 124 q 945 100 939 110 q 972 89 951 90 l 1060 83 q 1068 74 1064 78 q 1074 47 1072 69 q 1044 26 1063 38 q 1003 8 1025 15 q 964 0 982 0 q 919 4 951 0 q 847 15 888 8 q 765 30 806 22 q 693 45 725 38 q 647 57 661 53 q 654 81 647 71 q 663 92 661 90 l 710 92 q 747 94 732 92 q 768 114 763 97 q 764 171 774 131 l 714 397 l 357 397 l 301 200 q 281 149 293 171 q 256 115 269 128 q 226 99 243 103 l 439 82 q 444 69 440 78 q 449 46 449 60 q 418 24 438 35 q 378 6 399 13 q 342 0 357 0 m 379 478 q 513 481 451 478 q 621 487 575 483 q 690 494 667 490 l 610 851 q 549 884 579 872 q 492 901 519 896 l 379 478 m 456 1068 q 424 1085 438 1074 q 406 1103 411 1096 q 503 1229 456 1175 q 585 1314 550 1283 q 635 1344 621 1344 q 665 1331 646 1344 q 701 1296 683 1317 q 725 1254 718 1275 l 456 1068 z "},"Ă":{"ha":1104,"x_min":38,"x_max":1074,"o":"m 342 0 q 308 3 335 0 q 244 11 282 6 q 167 22 207 17 q 93 35 128 28 q 38 47 58 42 q 43 71 38 60 q 54 88 49 82 l 67 88 q 103 99 85 88 q 142 140 122 111 q 181 217 161 168 q 224 343 201 267 l 382 894 q 420 924 394 907 q 477 959 446 942 q 537 988 508 976 q 581 1000 565 1000 q 631 988 600 1000 q 695 956 663 975 q 747 918 728 938 l 935 124 q 945 100 939 110 q 972 89 951 90 l 1060 83 q 1068 74 1064 78 q 1074 47 1072 69 q 1044 26 1063 38 q 1003 8 1025 15 q 964 0 982 0 q 919 4 951 0 q 847 15 888 8 q 765 30 806 22 q 693 45 725 38 q 647 57 661 53 q 654 81 647 71 q 663 92 661 90 l 710 92 q 747 94 732 92 q 768 114 763 97 q 764 171 774 131 l 714 397 l 357 397 l 301 200 q 281 149 293 171 q 256 115 269 128 q 226 99 243 103 l 439 82 q 444 69 440 78 q 449 46 449 60 q 418 24 438 35 q 378 6 399 13 q 342 0 357 0 m 379 478 q 513 481 451 478 q 621 487 575 483 q 690 494 667 490 l 610 851 q 549 884 579 872 q 492 901 519 896 l 379 478 m 551 1085 q 417 1133 460 1085 q 367 1254 375 1181 q 396 1263 376 1258 q 438 1267 415 1267 q 474 1197 449 1215 q 551 1179 500 1179 q 629 1197 603 1179 q 665 1267 656 1215 q 710 1263 692 1267 q 738 1254 729 1258 q 683 1129 728 1174 q 551 1085 639 1085 z "},"Ắ":{"ha":1104,"x_min":38,"x_max":1074,"o":"m 342 0 q 308 3 335 0 q 244 11 282 6 q 167 22 207 17 q 93 35 128 28 q 38 47 58 42 q 43 71 38 60 q 54 88 49 82 l 67 88 q 103 99 85 88 q 142 140 122 111 q 181 217 161 168 q 224 343 201 267 l 382 894 q 420 924 394 907 q 477 959 446 942 q 537 988 508 976 q 581 1000 565 1000 q 631 988 600 1000 q 695 956 663 975 q 747 918 728 938 l 935 124 q 945 100 939 110 q 972 89 951 90 l 1060 83 q 1068 74 1064 78 q 1074 47 1072 69 q 1044 26 1063 38 q 1003 8 1025 15 q 964 0 982 0 q 919 4 951 0 q 847 15 888 8 q 765 30 806 22 q 693 45 725 38 q 647 57 661 53 q 654 81 647 71 q 663 92 661 90 l 710 92 q 747 94 732 92 q 768 114 763 97 q 764 171 774 131 l 714 397 l 357 397 l 301 200 q 281 149 293 171 q 256 115 269 128 q 226 99 243 103 l 439 82 q 444 69 440 78 q 449 46 449 60 q 418 24 438 35 q 378 6 399 13 q 342 0 357 0 m 379 478 q 513 481 451 478 q 621 487 575 483 q 690 494 667 490 l 610 851 q 549 884 579 872 q 492 901 519 896 l 379 478 m 551 1085 q 417 1133 460 1085 q 367 1254 375 1181 q 396 1263 376 1258 q 438 1267 415 1267 q 474 1197 449 1215 q 551 1179 500 1179 q 629 1197 603 1179 q 665 1267 656 1215 q 710 1263 692 1267 q 738 1254 729 1258 q 683 1129 728 1174 q 551 1085 639 1085 m 456 1321 q 424 1338 438 1326 q 406 1356 411 1349 q 503 1482 456 1428 q 585 1567 550 1536 q 635 1597 621 1597 q 665 1583 646 1597 q 701 1549 683 1569 q 725 1507 718 1528 l 456 1321 z "},"Ặ":{"ha":1104,"x_min":38,"x_max":1074,"o":"m 342 0 q 308 3 335 0 q 244 11 282 6 q 167 22 207 17 q 93 35 128 28 q 38 47 58 42 q 43 71 38 60 q 54 88 49 82 l 67 88 q 103 99 85 88 q 142 140 122 111 q 181 217 161 168 q 224 343 201 267 l 382 894 q 420 924 394 907 q 477 959 446 942 q 537 988 508 976 q 581 1000 565 1000 q 631 988 600 1000 q 695 956 663 975 q 747 918 728 938 l 935 124 q 945 100 939 110 q 972 89 951 90 l 1060 83 q 1068 74 1064 78 q 1074 47 1072 69 q 1044 26 1063 38 q 1003 8 1025 15 q 964 0 982 0 q 919 4 951 0 q 847 15 888 8 q 765 30 806 22 q 693 45 725 38 q 647 57 661 53 q 654 81 647 71 q 663 92 661 90 l 710 92 q 747 94 732 92 q 768 114 763 97 q 764 171 774 131 l 714 397 l 357 397 l 301 200 q 281 149 293 171 q 256 115 269 128 q 226 99 243 103 l 439 82 q 444 69 440 78 q 449 46 449 60 q 418 24 438 35 q 378 6 399 13 q 342 0 357 0 m 379 478 q 513 481 451 478 q 621 487 575 483 q 690 494 667 490 l 610 851 q 549 884 579 872 q 492 901 519 896 l 379 478 m 532 -279 q 507 -267 522 -279 q 477 -236 492 -254 q 453 -200 463 -218 q 443 -171 443 -182 q 456 -146 443 -160 q 489 -119 469 -132 q 528 -97 508 -106 q 558 -87 547 -87 q 584 -100 569 -87 q 612 -131 599 -112 q 634 -168 625 -150 q 643 -199 643 -186 q 622 -231 643 -211 q 576 -265 601 -250 q 532 -279 550 -279 m 551 1085 q 417 1133 460 1085 q 367 1254 375 1181 q 396 1263 376 1258 q 438 1267 415 1267 q 474 1197 449 1215 q 551 1179 500 1179 q 629 1197 603 1179 q 665 1267 656 1215 q 710 1263 692 1267 q 738 1254 729 1258 q 683 1129 728 1174 q 551 1085 639 1085 z "},"Ằ":{"ha":1104,"x_min":38,"x_max":1074,"o":"m 342 0 q 308 3 335 0 q 244 11 282 6 q 167 22 207 17 q 93 35 128 28 q 38 47 58 42 q 43 71 38 60 q 54 88 49 82 l 67 88 q 103 99 85 88 q 142 140 122 111 q 181 217 161 168 q 224 343 201 267 l 382 894 q 420 924 394 907 q 477 959 446 942 q 537 988 508 976 q 581 1000 565 1000 q 631 988 600 1000 q 695 956 663 975 q 747 918 728 938 l 935 124 q 945 100 939 110 q 972 89 951 90 l 1060 83 q 1068 74 1064 78 q 1074 47 1072 69 q 1044 26 1063 38 q 1003 8 1025 15 q 964 0 982 0 q 919 4 951 0 q 847 15 888 8 q 765 30 806 22 q 693 45 725 38 q 647 57 661 53 q 654 81 647 71 q 663 92 661 90 l 710 92 q 747 94 732 92 q 768 114 763 97 q 764 171 774 131 l 714 397 l 357 397 l 301 200 q 281 149 293 171 q 256 115 269 128 q 226 99 243 103 l 439 82 q 444 69 440 78 q 449 46 449 60 q 418 24 438 35 q 378 6 399 13 q 342 0 357 0 m 379 478 q 513 481 451 478 q 621 487 575 483 q 690 494 667 490 l 610 851 q 549 884 579 872 q 492 901 519 896 l 379 478 m 551 1085 q 417 1133 460 1085 q 367 1254 375 1181 q 396 1263 376 1258 q 438 1267 415 1267 q 474 1197 449 1215 q 551 1179 500 1179 q 629 1197 603 1179 q 665 1267 656 1215 q 710 1263 692 1267 q 738 1254 729 1258 q 683 1129 728 1174 q 551 1085 639 1085 m 640 1321 l 372 1507 q 396 1547 379 1526 q 431 1583 413 1568 q 461 1597 450 1597 q 510 1567 475 1597 q 592 1483 544 1538 q 692 1356 640 1429 q 669 1335 685 1346 q 640 1321 653 1324 z "},"Ẳ":{"ha":1104,"x_min":38,"x_max":1074,"o":"m 342 0 q 308 3 335 0 q 244 11 282 6 q 167 22 207 17 q 93 35 128 28 q 38 47 58 42 q 43 71 38 60 q 54 88 49 82 l 67 88 q 103 99 85 88 q 142 140 122 111 q 181 217 161 168 q 224 343 201 267 l 382 894 q 420 924 394 907 q 477 959 446 942 q 537 988 508 976 q 581 1000 565 1000 q 631 988 600 1000 q 695 956 663 975 q 747 918 728 938 l 935 124 q 945 100 939 110 q 972 89 951 90 l 1060 83 q 1068 74 1064 78 q 1074 47 1072 69 q 1044 26 1063 38 q 1003 8 1025 15 q 964 0 982 0 q 919 4 951 0 q 847 15 888 8 q 765 30 806 22 q 693 45 725 38 q 647 57 661 53 q 654 81 647 71 q 663 92 661 90 l 710 92 q 747 94 732 92 q 768 114 763 97 q 764 171 774 131 l 714 397 l 357 397 l 301 200 q 281 149 293 171 q 256 115 269 128 q 226 99 243 103 l 439 82 q 444 69 440 78 q 449 46 449 60 q 418 24 438 35 q 378 6 399 13 q 342 0 357 0 m 379 478 q 513 481 451 478 q 621 487 575 483 q 690 494 667 490 l 610 851 q 549 884 579 872 q 492 901 519 896 l 379 478 m 551 1085 q 417 1133 460 1085 q 367 1254 375 1181 q 396 1263 376 1258 q 438 1267 415 1267 q 474 1197 449 1215 q 551 1179 500 1179 q 629 1197 603 1179 q 665 1267 656 1215 q 710 1263 692 1267 q 738 1254 729 1258 q 683 1129 728 1174 q 551 1085 639 1085 m 525 1286 q 513 1333 518 1310 q 506 1378 508 1356 q 579 1393 557 1386 q 607 1417 601 1400 q 613 1469 613 1433 q 535 1481 574 1478 q 449 1483 497 1483 q 444 1501 447 1486 q 442 1526 442 1517 q 462 1541 447 1533 q 494 1554 476 1549 q 521 1560 511 1560 q 558 1554 533 1560 q 613 1538 583 1549 q 664 1513 642 1528 q 685 1462 679 1494 q 692 1408 692 1429 q 676 1382 692 1397 q 635 1353 660 1367 q 586 1333 611 1339 l 571 1286 l 525 1286 z "},"Ẵ":{"ha":1104,"x_min":38,"x_max":1074,"o":"m 342 0 q 308 3 335 0 q 244 11 282 6 q 167 22 207 17 q 93 35 128 28 q 38 47 58 42 q 43 71 38 60 q 54 88 49 82 l 67 88 q 103 99 85 88 q 142 140 122 111 q 181 217 161 168 q 224 343 201 267 l 382 894 q 420 924 394 907 q 477 959 446 942 q 537 988 508 976 q 581 1000 565 1000 q 631 988 600 1000 q 695 956 663 975 q 747 918 728 938 l 935 124 q 945 100 939 110 q 972 89 951 90 l 1060 83 q 1068 74 1064 78 q 1074 47 1072 69 q 1044 26 1063 38 q 1003 8 1025 15 q 964 0 982 0 q 919 4 951 0 q 847 15 888 8 q 765 30 806 22 q 693 45 725 38 q 647 57 661 53 q 654 81 647 71 q 663 92 661 90 l 710 92 q 747 94 732 92 q 768 114 763 97 q 764 171 774 131 l 714 397 l 357 397 l 301 200 q 281 149 293 171 q 256 115 269 128 q 226 99 243 103 l 439 82 q 444 69 440 78 q 449 46 449 60 q 418 24 438 35 q 378 6 399 13 q 342 0 357 0 m 379 478 q 513 481 451 478 q 621 487 575 483 q 690 494 667 490 l 610 851 q 549 884 579 872 q 492 901 519 896 l 379 478 m 551 1085 q 417 1133 460 1085 q 367 1254 375 1181 q 396 1263 376 1258 q 438 1267 415 1267 q 474 1197 449 1215 q 551 1179 500 1179 q 629 1197 603 1179 q 665 1267 656 1215 q 710 1263 692 1267 q 738 1254 729 1258 q 683 1129 728 1174 q 551 1085 639 1085 m 682 1333 q 619 1347 664 1333 q 519 1381 574 1361 q 419 1419 465 1401 l 317 1346 q 299 1356 308 1349 q 285 1375 290 1363 q 326 1439 303 1406 q 374 1495 350 1472 q 417 1518 399 1518 q 481 1505 435 1518 q 583 1474 526 1492 q 686 1438 639 1456 l 782 1525 q 806 1513 796 1519 q 819 1499 815 1506 q 776 1425 801 1464 q 725 1360 750 1386 q 682 1333 700 1333 z "},"Ǎ":{"ha":1104,"x_min":38,"x_max":1074,"o":"m 342 0 q 308 3 335 0 q 244 11 282 6 q 167 22 207 17 q 93 35 128 28 q 38 47 58 42 q 43 71 38 60 q 54 88 49 82 l 67 88 q 103 99 85 88 q 142 140 122 111 q 181 217 161 168 q 224 343 201 267 l 382 894 q 420 924 394 907 q 477 959 446 942 q 537 988 508 976 q 581 1000 565 1000 q 631 988 600 1000 q 695 956 663 975 q 747 918 728 938 l 935 124 q 945 100 939 110 q 972 89 951 90 l 1060 83 q 1068 74 1064 78 q 1074 47 1072 69 q 1044 26 1063 38 q 1003 8 1025 15 q 964 0 982 0 q 919 4 951 0 q 847 15 888 8 q 765 30 806 22 q 693 45 725 38 q 647 57 661 53 q 654 81 647 71 q 663 92 661 90 l 710 92 q 747 94 732 92 q 768 114 763 97 q 764 171 774 131 l 714 397 l 357 397 l 301 200 q 281 149 293 171 q 256 115 269 128 q 226 99 243 103 l 439 82 q 444 69 440 78 q 449 46 449 60 q 418 24 438 35 q 378 6 399 13 q 342 0 357 0 m 379 478 q 513 481 451 478 q 621 487 575 483 q 690 494 667 490 l 610 851 q 549 884 579 872 q 492 901 519 896 l 379 478 m 553 1068 q 503 1100 533 1068 q 431 1186 472 1132 q 339 1308 390 1240 q 357 1331 344 1319 q 382 1344 369 1342 l 554 1203 l 722 1344 q 747 1331 735 1340 q 765 1310 760 1321 q 672 1184 713 1239 q 602 1099 632 1129 q 553 1068 572 1068 z "},"Â":{"ha":1104,"x_min":38,"x_max":1074,"o":"m 342 0 q 308 3 335 0 q 244 11 282 6 q 167 22 207 17 q 93 35 128 28 q 38 47 58 42 q 43 71 38 60 q 54 88 49 82 l 67 88 q 103 99 85 88 q 142 140 122 111 q 181 217 161 168 q 224 343 201 267 l 382 894 q 420 924 394 907 q 477 959 446 942 q 537 988 508 976 q 581 1000 565 1000 q 631 988 600 1000 q 695 956 663 975 q 747 918 728 938 l 935 124 q 945 100 939 110 q 972 89 951 90 l 1060 83 q 1068 74 1064 78 q 1074 47 1072 69 q 1044 26 1063 38 q 1003 8 1025 15 q 964 0 982 0 q 919 4 951 0 q 847 15 888 8 q 765 30 806 22 q 693 45 725 38 q 647 57 661 53 q 654 81 647 71 q 663 92 661 90 l 710 92 q 747 94 732 92 q 768 114 763 97 q 764 171 774 131 l 714 397 l 357 397 l 301 200 q 281 149 293 171 q 256 115 269 128 q 226 99 243 103 l 439 82 q 444 69 440 78 q 449 46 449 60 q 418 24 438 35 q 378 6 399 13 q 342 0 357 0 m 379 478 q 513 481 451 478 q 621 487 575 483 q 690 494 667 490 l 610 851 q 549 884 579 872 q 492 901 519 896 l 379 478 m 381 1068 q 355 1083 367 1074 q 339 1103 343 1093 q 434 1231 393 1176 q 505 1315 475 1285 q 553 1344 535 1344 q 602 1313 572 1344 q 673 1227 632 1282 q 765 1103 714 1172 q 749 1084 760 1096 q 722 1068 739 1072 l 551 1210 l 381 1068 z "},"Ấ":{"ha":1104,"x_min":38,"x_max":1074,"o":"m 342 0 q 308 3 335 0 q 244 11 282 6 q 167 22 207 17 q 93 35 128 28 q 38 47 58 42 q 43 71 38 60 q 54 88 49 82 l 67 88 q 103 99 85 88 q 142 140 122 111 q 181 217 161 168 q 224 343 201 267 l 382 894 q 420 924 394 907 q 477 959 446 942 q 537 988 508 976 q 581 1000 565 1000 q 631 988 600 1000 q 695 956 663 975 q 747 918 728 938 l 935 124 q 945 100 939 110 q 972 89 951 90 l 1060 83 q 1068 74 1064 78 q 1074 47 1072 69 q 1044 26 1063 38 q 1003 8 1025 15 q 964 0 982 0 q 919 4 951 0 q 847 15 888 8 q 765 30 806 22 q 693 45 725 38 q 647 57 661 53 q 654 81 647 71 q 663 92 661 90 l 710 92 q 747 94 732 92 q 768 114 763 97 q 764 171 774 131 l 714 397 l 357 397 l 301 200 q 281 149 293 171 q 256 115 269 128 q 226 99 243 103 l 439 82 q 444 69 440 78 q 449 46 449 60 q 418 24 438 35 q 378 6 399 13 q 342 0 357 0 m 379 478 q 513 481 451 478 q 621 487 575 483 q 690 494 667 490 l 610 851 q 549 884 579 872 q 492 901 519 896 l 379 478 m 381 1068 q 355 1083 367 1074 q 339 1103 343 1093 q 434 1231 393 1176 q 505 1315 475 1285 q 553 1344 535 1344 q 602 1313 572 1344 q 673 1227 632 1282 q 765 1103 714 1172 q 749 1084 760 1096 q 722 1068 739 1072 l 551 1210 l 381 1068 m 456 1392 q 424 1408 438 1397 q 406 1426 411 1419 q 503 1553 456 1499 q 585 1638 550 1607 q 635 1668 621 1668 q 665 1654 646 1668 q 701 1619 683 1640 q 725 1578 718 1599 l 456 1392 z "},"Ậ":{"ha":1104,"x_min":38,"x_max":1074,"o":"m 342 0 q 308 3 335 0 q 244 11 282 6 q 167 22 207 17 q 93 35 128 28 q 38 47 58 42 q 43 71 38 60 q 54 88 49 82 l 67 88 q 103 99 85 88 q 142 140 122 111 q 181 217 161 168 q 224 343 201 267 l 382 894 q 420 924 394 907 q 477 959 446 942 q 537 988 508 976 q 581 1000 565 1000 q 631 988 600 1000 q 695 956 663 975 q 747 918 728 938 l 935 124 q 945 100 939 110 q 972 89 951 90 l 1060 83 q 1068 74 1064 78 q 1074 47 1072 69 q 1044 26 1063 38 q 1003 8 1025 15 q 964 0 982 0 q 919 4 951 0 q 847 15 888 8 q 765 30 806 22 q 693 45 725 38 q 647 57 661 53 q 654 81 647 71 q 663 92 661 90 l 710 92 q 747 94 732 92 q 768 114 763 97 q 764 171 774 131 l 714 397 l 357 397 l 301 200 q 281 149 293 171 q 256 115 269 128 q 226 99 243 103 l 439 82 q 444 69 440 78 q 449 46 449 60 q 418 24 438 35 q 378 6 399 13 q 342 0 357 0 m 379 478 q 513 481 451 478 q 621 487 575 483 q 690 494 667 490 l 610 851 q 549 884 579 872 q 492 901 519 896 l 379 478 m 532 -279 q 507 -267 522 -279 q 477 -236 492 -254 q 453 -200 463 -218 q 443 -171 443 -182 q 456 -146 443 -160 q 489 -119 469 -132 q 528 -97 508 -106 q 558 -87 547 -87 q 584 -100 569 -87 q 612 -131 599 -112 q 634 -168 625 -150 q 643 -199 643 -186 q 622 -231 643 -211 q 576 -265 601 -250 q 532 -279 550 -279 m 381 1068 q 355 1083 367 1074 q 339 1103 343 1093 q 434 1231 393 1176 q 505 1315 475 1285 q 553 1344 535 1344 q 602 1313 572 1344 q 673 1227 632 1282 q 765 1103 714 1172 q 749 1084 760 1096 q 722 1068 739 1072 l 551 1210 l 381 1068 z "},"Ầ":{"ha":1104,"x_min":38,"x_max":1074,"o":"m 342 0 q 308 3 335 0 q 244 11 282 6 q 167 22 207 17 q 93 35 128 28 q 38 47 58 42 q 43 71 38 60 q 54 88 49 82 l 67 88 q 103 99 85 88 q 142 140 122 111 q 181 217 161 168 q 224 343 201 267 l 382 894 q 420 924 394 907 q 477 959 446 942 q 537 988 508 976 q 581 1000 565 1000 q 631 988 600 1000 q 695 956 663 975 q 747 918 728 938 l 935 124 q 945 100 939 110 q 972 89 951 90 l 1060 83 q 1068 74 1064 78 q 1074 47 1072 69 q 1044 26 1063 38 q 1003 8 1025 15 q 964 0 982 0 q 919 4 951 0 q 847 15 888 8 q 765 30 806 22 q 693 45 725 38 q 647 57 661 53 q 654 81 647 71 q 663 92 661 90 l 710 92 q 747 94 732 92 q 768 114 763 97 q 764 171 774 131 l 714 397 l 357 397 l 301 200 q 281 149 293 171 q 256 115 269 128 q 226 99 243 103 l 439 82 q 444 69 440 78 q 449 46 449 60 q 418 24 438 35 q 378 6 399 13 q 342 0 357 0 m 379 478 q 513 481 451 478 q 621 487 575 483 q 690 494 667 490 l 610 851 q 549 884 579 872 q 492 901 519 896 l 379 478 m 381 1068 q 355 1083 367 1074 q 339 1103 343 1093 q 434 1231 393 1176 q 505 1315 475 1285 q 553 1344 535 1344 q 602 1313 572 1344 q 673 1227 632 1282 q 765 1103 714 1172 q 749 1084 760 1096 q 722 1068 739 1072 l 551 1210 l 381 1068 m 640 1392 l 372 1578 q 396 1618 379 1597 q 431 1653 413 1639 q 461 1668 450 1668 q 510 1638 475 1668 q 592 1554 544 1608 q 692 1426 640 1500 q 669 1406 685 1417 q 640 1392 653 1394 z "},"Ẩ":{"ha":1104,"x_min":38,"x_max":1074,"o":"m 342 0 q 308 3 335 0 q 244 11 282 6 q 167 22 207 17 q 93 35 128 28 q 38 47 58 42 q 43 71 38 60 q 54 88 49 82 l 67 88 q 103 99 85 88 q 142 140 122 111 q 181 217 161 168 q 224 343 201 267 l 382 894 q 420 924 394 907 q 477 959 446 942 q 537 988 508 976 q 581 1000 565 1000 q 631 988 600 1000 q 695 956 663 975 q 747 918 728 938 l 935 124 q 945 100 939 110 q 972 89 951 90 l 1060 83 q 1068 74 1064 78 q 1074 47 1072 69 q 1044 26 1063 38 q 1003 8 1025 15 q 964 0 982 0 q 919 4 951 0 q 847 15 888 8 q 765 30 806 22 q 693 45 725 38 q 647 57 661 53 q 654 81 647 71 q 663 92 661 90 l 710 92 q 747 94 732 92 q 768 114 763 97 q 764 171 774 131 l 714 397 l 357 397 l 301 200 q 281 149 293 171 q 256 115 269 128 q 226 99 243 103 l 439 82 q 444 69 440 78 q 449 46 449 60 q 418 24 438 35 q 378 6 399 13 q 342 0 357 0 m 379 478 q 513 481 451 478 q 621 487 575 483 q 690 494 667 490 l 610 851 q 549 884 579 872 q 492 901 519 896 l 379 478 m 381 1068 q 355 1083 367 1074 q 339 1103 343 1093 q 434 1231 393 1176 q 505 1315 475 1285 q 553 1344 535 1344 q 602 1313 572 1344 q 673 1227 632 1282 q 765 1103 714 1172 q 749 1084 760 1096 q 722 1068 739 1072 l 551 1210 l 381 1068 m 525 1357 q 513 1403 518 1381 q 506 1449 508 1426 q 579 1464 557 1457 q 607 1488 601 1471 q 613 1540 613 1504 q 535 1551 574 1549 q 449 1554 497 1554 q 444 1572 447 1557 q 442 1597 442 1588 q 462 1612 447 1604 q 494 1625 476 1619 q 521 1631 511 1631 q 558 1625 533 1631 q 613 1609 583 1619 q 664 1583 642 1599 q 685 1533 679 1565 q 692 1479 692 1500 q 676 1453 692 1468 q 635 1424 660 1438 q 586 1404 611 1410 l 571 1357 l 525 1357 z "},"Ẫ":{"ha":1104,"x_min":38,"x_max":1074,"o":"m 342 0 q 308 3 335 0 q 244 11 282 6 q 167 22 207 17 q 93 35 128 28 q 38 47 58 42 q 43 71 38 60 q 54 88 49 82 l 67 88 q 103 99 85 88 q 142 140 122 111 q 181 217 161 168 q 224 343 201 267 l 382 894 q 420 924 394 907 q 477 959 446 942 q 537 988 508 976 q 581 1000 565 1000 q 631 988 600 1000 q 695 956 663 975 q 747 918 728 938 l 935 124 q 945 100 939 110 q 972 89 951 90 l 1060 83 q 1068 74 1064 78 q 1074 47 1072 69 q 1044 26 1063 38 q 1003 8 1025 15 q 964 0 982 0 q 919 4 951 0 q 847 15 888 8 q 765 30 806 22 q 693 45 725 38 q 647 57 661 53 q 654 81 647 71 q 663 92 661 90 l 710 92 q 747 94 732 92 q 768 114 763 97 q 764 171 774 131 l 714 397 l 357 397 l 301 200 q 281 149 293 171 q 256 115 269 128 q 226 99 243 103 l 439 82 q 444 69 440 78 q 449 46 449 60 q 418 24 438 35 q 378 6 399 13 q 342 0 357 0 m 379 478 q 513 481 451 478 q 621 487 575 483 q 690 494 667 490 l 610 851 q 549 884 579 872 q 492 901 519 896 l 379 478 m 381 1068 q 355 1083 367 1074 q 339 1103 343 1093 q 434 1231 393 1176 q 505 1315 475 1285 q 553 1344 535 1344 q 602 1313 572 1344 q 673 1227 632 1282 q 765 1103 714 1172 q 749 1084 760 1096 q 722 1068 739 1072 l 551 1210 l 381 1068 m 682 1404 q 619 1418 664 1404 q 519 1452 574 1432 q 419 1490 465 1472 l 317 1417 q 299 1426 308 1419 q 285 1446 290 1433 q 326 1510 303 1476 q 374 1566 350 1543 q 417 1589 399 1589 q 481 1576 435 1589 q 583 1544 526 1563 q 686 1508 639 1526 l 782 1596 q 806 1583 796 1590 q 819 1569 815 1576 q 776 1496 801 1535 q 725 1431 750 1457 q 682 1404 700 1404 z "},"Ȁ":{"ha":1104,"x_min":38,"x_max":1074,"o":"m 342 0 q 308 3 335 0 q 244 11 282 6 q 167 22 207 17 q 93 35 128 28 q 38 47 58 42 q 43 71 38 60 q 54 88 49 82 l 67 88 q 103 99 85 88 q 142 140 122 111 q 181 217 161 168 q 224 343 201 267 l 382 894 q 420 924 394 907 q 477 959 446 942 q 537 988 508 976 q 581 1000 565 1000 q 631 988 600 1000 q 695 956 663 975 q 747 918 728 938 l 935 124 q 945 100 939 110 q 972 89 951 90 l 1060 83 q 1068 74 1064 78 q 1074 47 1072 69 q 1044 26 1063 38 q 1003 8 1025 15 q 964 0 982 0 q 919 4 951 0 q 847 15 888 8 q 765 30 806 22 q 693 45 725 38 q 647 57 661 53 q 654 81 647 71 q 663 92 661 90 l 710 92 q 747 94 732 92 q 768 114 763 97 q 764 171 774 131 l 714 397 l 357 397 l 301 200 q 281 149 293 171 q 256 115 269 128 q 226 99 243 103 l 439 82 q 444 69 440 78 q 449 46 449 60 q 418 24 438 35 q 378 6 399 13 q 342 0 357 0 m 379 478 q 513 481 451 478 q 621 487 575 483 q 690 494 667 490 l 610 851 q 549 884 579 872 q 492 901 519 896 l 379 478 m 472 1068 l 218 1250 q 241 1291 225 1271 q 275 1324 257 1311 q 303 1338 293 1338 q 350 1307 317 1338 q 428 1224 383 1276 q 518 1101 474 1171 q 500 1083 513 1093 q 472 1068 488 1074 m 701 1068 l 446 1250 q 469 1290 453 1269 q 503 1324 485 1310 q 532 1338 521 1338 q 578 1307 544 1338 q 658 1224 613 1276 q 747 1101 703 1171 q 728 1082 742 1093 q 701 1068 714 1071 z "},"Ä":{"ha":1104,"x_min":38,"x_max":1074,"o":"m 342 0 q 308 3 335 0 q 244 11 282 6 q 167 22 207 17 q 93 35 128 28 q 38 47 58 42 q 43 71 38 60 q 54 88 49 82 l 67 88 q 103 99 85 88 q 142 140 122 111 q 181 217 161 168 q 224 343 201 267 l 382 894 q 420 924 394 907 q 477 959 446 942 q 537 988 508 976 q 581 1000 565 1000 q 631 988 600 1000 q 695 956 663 975 q 747 918 728 938 l 935 124 q 945 100 939 110 q 972 89 951 90 l 1060 83 q 1068 74 1064 78 q 1074 47 1072 69 q 1044 26 1063 38 q 1003 8 1025 15 q 964 0 982 0 q 919 4 951 0 q 847 15 888 8 q 765 30 806 22 q 693 45 725 38 q 647 57 661 53 q 654 81 647 71 q 663 92 661 90 l 710 92 q 747 94 732 92 q 768 114 763 97 q 764 171 774 131 l 714 397 l 357 397 l 301 200 q 281 149 293 171 q 256 115 269 128 q 226 99 243 103 l 439 82 q 444 69 440 78 q 449 46 449 60 q 418 24 438 35 q 378 6 399 13 q 342 0 357 0 m 379 478 q 513 481 451 478 q 621 487 575 483 q 690 494 667 490 l 610 851 q 549 884 579 872 q 492 901 519 896 l 379 478 m 690 1082 q 665 1094 681 1082 q 635 1124 650 1106 q 610 1159 619 1142 q 600 1188 600 1176 q 613 1213 600 1199 q 647 1240 626 1226 q 685 1261 667 1253 q 715 1269 704 1269 q 741 1257 726 1269 q 769 1226 756 1244 q 792 1190 783 1208 q 801 1161 801 1172 q 789 1138 801 1151 q 758 1112 776 1125 q 722 1090 740 1099 q 690 1082 703 1082 m 394 1082 q 369 1094 385 1082 q 340 1124 354 1106 q 315 1159 325 1142 q 304 1188 304 1176 q 318 1213 304 1199 q 351 1240 332 1226 q 390 1261 371 1253 q 421 1269 410 1269 q 446 1258 432 1269 q 474 1228 460 1246 q 498 1192 489 1210 q 507 1161 507 1174 q 494 1138 507 1151 q 464 1112 482 1125 q 426 1090 446 1099 q 394 1082 407 1082 z "},"Ạ":{"ha":1104,"x_min":38,"x_max":1074,"o":"m 342 0 q 308 3 335 0 q 244 11 282 6 q 167 22 207 17 q 93 35 128 28 q 38 47 58 42 q 43 71 38 60 q 54 88 49 82 l 67 88 q 103 99 85 88 q 142 140 122 111 q 181 217 161 168 q 224 343 201 267 l 382 894 q 420 924 394 907 q 477 959 446 942 q 537 988 508 976 q 581 1000 565 1000 q 631 988 600 1000 q 695 956 663 975 q 747 918 728 938 l 935 124 q 945 100 939 110 q 972 89 951 90 l 1060 83 q 1068 74 1064 78 q 1074 47 1072 69 q 1044 26 1063 38 q 1003 8 1025 15 q 964 0 982 0 q 919 4 951 0 q 847 15 888 8 q 765 30 806 22 q 693 45 725 38 q 647 57 661 53 q 654 81 647 71 q 663 92 661 90 l 710 92 q 747 94 732 92 q 768 114 763 97 q 764 171 774 131 l 714 397 l 357 397 l 301 200 q 281 149 293 171 q 256 115 269 128 q 226 99 243 103 l 439 82 q 444 69 440 78 q 449 46 449 60 q 418 24 438 35 q 378 6 399 13 q 342 0 357 0 m 379 478 q 513 481 451 478 q 621 487 575 483 q 690 494 667 490 l 610 851 q 549 884 579 872 q 492 901 519 896 l 379 478 m 532 -279 q 507 -267 522 -279 q 477 -236 492 -254 q 453 -200 463 -218 q 443 -171 443 -182 q 456 -146 443 -160 q 489 -119 469 -132 q 528 -97 508 -106 q 558 -87 547 -87 q 584 -100 569 -87 q 612 -131 599 -112 q 634 -168 625 -150 q 643 -199 643 -186 q 622 -231 643 -211 q 576 -265 601 -250 q 532 -279 550 -279 z "},"À":{"ha":1104,"x_min":38,"x_max":1074,"o":"m 342 0 q 308 3 335 0 q 244 11 282 6 q 167 22 207 17 q 93 35 128 28 q 38 47 58 42 q 43 71 38 60 q 54 88 49 82 l 67 88 q 103 99 85 88 q 142 140 122 111 q 181 217 161 168 q 224 343 201 267 l 382 894 q 420 924 394 907 q 477 959 446 942 q 537 988 508 976 q 581 1000 565 1000 q 631 988 600 1000 q 695 956 663 975 q 747 918 728 938 l 935 124 q 945 100 939 110 q 972 89 951 90 l 1060 83 q 1068 74 1064 78 q 1074 47 1072 69 q 1044 26 1063 38 q 1003 8 1025 15 q 964 0 982 0 q 919 4 951 0 q 847 15 888 8 q 765 30 806 22 q 693 45 725 38 q 647 57 661 53 q 654 81 647 71 q 663 92 661 90 l 710 92 q 747 94 732 92 q 768 114 763 97 q 764 171 774 131 l 714 397 l 357 397 l 301 200 q 281 149 293 171 q 256 115 269 128 q 226 99 243 103 l 439 82 q 444 69 440 78 q 449 46 449 60 q 418 24 438 35 q 378 6 399 13 q 342 0 357 0 m 379 478 q 513 481 451 478 q 621 487 575 483 q 690 494 667 490 l 610 851 q 549 884 579 872 q 492 901 519 896 l 379 478 m 640 1068 l 372 1254 q 396 1294 379 1274 q 431 1330 413 1315 q 461 1344 450 1344 q 510 1315 475 1344 q 592 1231 544 1285 q 692 1103 640 1176 q 669 1082 685 1093 q 640 1068 653 1071 z "},"Ả":{"ha":1104,"x_min":38,"x_max":1074,"o":"m 342 0 q 308 3 335 0 q 244 11 282 6 q 167 22 207 17 q 93 35 128 28 q 38 47 58 42 q 43 71 38 60 q 54 88 49 82 l 67 88 q 103 99 85 88 q 142 140 122 111 q 181 217 161 168 q 224 343 201 267 l 382 894 q 420 924 394 907 q 477 959 446 942 q 537 988 508 976 q 581 1000 565 1000 q 631 988 600 1000 q 695 956 663 975 q 747 918 728 938 l 935 124 q 945 100 939 110 q 972 89 951 90 l 1060 83 q 1068 74 1064 78 q 1074 47 1072 69 q 1044 26 1063 38 q 1003 8 1025 15 q 964 0 982 0 q 919 4 951 0 q 847 15 888 8 q 765 30 806 22 q 693 45 725 38 q 647 57 661 53 q 654 81 647 71 q 663 92 661 90 l 710 92 q 747 94 732 92 q 768 114 763 97 q 764 171 774 131 l 714 397 l 357 397 l 301 200 q 281 149 293 171 q 256 115 269 128 q 226 99 243 103 l 439 82 q 444 69 440 78 q 449 46 449 60 q 418 24 438 35 q 378 6 399 13 q 342 0 357 0 m 379 478 q 513 481 451 478 q 621 487 575 483 q 690 494 667 490 l 610 851 q 549 884 579 872 q 492 901 519 896 l 379 478 m 525 1033 q 513 1080 518 1057 q 506 1125 508 1103 q 579 1140 557 1133 q 607 1164 601 1147 q 613 1217 613 1181 q 535 1228 574 1225 q 449 1231 497 1231 q 444 1249 447 1233 q 442 1274 442 1264 q 462 1288 447 1281 q 494 1301 476 1296 q 521 1307 511 1307 q 558 1301 533 1307 q 613 1285 583 1296 q 664 1260 642 1275 q 685 1209 679 1242 q 692 1156 692 1176 q 676 1129 692 1144 q 635 1100 660 1114 q 586 1081 611 1086 l 571 1033 l 525 1033 z "},"Ȃ":{"ha":1104,"x_min":38,"x_max":1074,"o":"m 342 0 q 308 3 335 0 q 244 11 282 6 q 167 22 207 17 q 93 35 128 28 q 38 47 58 42 q 43 71 38 60 q 54 88 49 82 l 67 88 q 103 99 85 88 q 142 140 122 111 q 181 217 161 168 q 224 343 201 267 l 382 894 q 420 924 394 907 q 477 959 446 942 q 537 988 508 976 q 581 1000 565 1000 q 631 988 600 1000 q 695 956 663 975 q 747 918 728 938 l 935 124 q 945 100 939 110 q 972 89 951 90 l 1060 83 q 1068 74 1064 78 q 1074 47 1072 69 q 1044 26 1063 38 q 1003 8 1025 15 q 964 0 982 0 q 919 4 951 0 q 847 15 888 8 q 765 30 806 22 q 693 45 725 38 q 647 57 661 53 q 654 81 647 71 q 663 92 661 90 l 710 92 q 747 94 732 92 q 768 114 763 97 q 764 171 774 131 l 714 397 l 357 397 l 301 200 q 281 149 293 171 q 256 115 269 128 q 226 99 243 103 l 439 82 q 444 69 440 78 q 449 46 449 60 q 418 24 438 35 q 378 6 399 13 q 342 0 357 0 m 379 478 q 513 481 451 478 q 621 487 575 483 q 690 494 667 490 l 610 851 q 549 884 579 872 q 492 901 519 896 l 379 478 m 551 1257 q 678 1212 638 1257 q 728 1090 718 1167 q 703 1082 721 1086 q 661 1078 686 1078 q 626 1149 651 1131 q 551 1167 601 1167 q 477 1149 501 1167 q 442 1078 453 1131 q 402 1082 419 1078 q 376 1090 385 1086 q 424 1210 385 1163 q 551 1257 464 1257 z "},"Ā":{"ha":1104,"x_min":38,"x_max":1074,"o":"m 342 0 q 308 3 335 0 q 244 11 282 6 q 167 22 207 17 q 93 35 128 28 q 38 47 58 42 q 43 71 38 60 q 54 88 49 82 l 67 88 q 103 99 85 88 q 142 140 122 111 q 181 217 161 168 q 224 343 201 267 l 382 894 q 420 924 394 907 q 477 959 446 942 q 537 988 508 976 q 581 1000 565 1000 q 631 988 600 1000 q 695 956 663 975 q 747 918 728 938 l 935 124 q 945 100 939 110 q 972 89 951 90 l 1060 83 q 1068 74 1064 78 q 1074 47 1072 69 q 1044 26 1063 38 q 1003 8 1025 15 q 964 0 982 0 q 919 4 951 0 q 847 15 888 8 q 765 30 806 22 q 693 45 725 38 q 647 57 661 53 q 654 81 647 71 q 663 92 661 90 l 710 92 q 747 94 732 92 q 768 114 763 97 q 764 171 774 131 l 714 397 l 357 397 l 301 200 q 281 149 293 171 q 256 115 269 128 q 226 99 243 103 l 439 82 q 444 69 440 78 q 449 46 449 60 q 418 24 438 35 q 378 6 399 13 q 342 0 357 0 m 379 478 q 513 481 451 478 q 621 487 575 483 q 690 494 667 490 l 610 851 q 549 884 579 872 q 492 901 519 896 l 379 478 m 325 1089 q 331 1144 325 1121 q 342 1172 336 1167 q 448 1174 386 1172 q 574 1180 510 1176 q 689 1187 638 1183 q 765 1192 740 1190 l 781 1179 q 774 1124 779 1149 q 764 1089 768 1100 l 325 1089 z "},"Ą":{"ha":1104,"x_min":38,"x_max":1074,"o":"m 342 0 q 308 3 335 0 q 244 11 282 6 q 167 22 207 17 q 93 35 128 28 q 38 47 58 42 q 43 71 38 60 q 54 88 49 82 l 67 88 q 103 99 85 88 q 142 140 122 111 q 181 217 161 168 q 224 343 201 267 l 382 894 q 420 924 394 907 q 477 959 446 942 q 537 988 508 976 q 581 1000 565 1000 q 631 988 600 1000 q 695 956 663 975 q 747 918 728 938 l 935 124 q 945 100 939 110 q 972 89 951 90 l 1060 83 q 1068 74 1064 78 q 1074 47 1072 69 q 1044 26 1063 38 q 1003 8 1025 15 q 964 0 982 0 q 919 4 951 0 q 847 15 888 8 q 765 30 806 22 q 693 45 725 38 q 647 57 661 53 q 654 81 647 71 q 663 92 661 90 l 710 92 q 747 94 732 92 q 768 114 763 97 q 764 171 774 131 l 714 397 l 357 397 l 301 200 q 281 149 293 171 q 256 115 269 128 q 226 99 243 103 l 439 82 q 444 69 440 78 q 449 46 449 60 q 418 24 438 35 q 378 6 399 13 q 342 0 357 0 m 379 478 q 513 481 451 478 q 621 487 575 483 q 690 494 667 490 l 610 851 q 549 884 579 872 q 492 901 519 896 l 379 478 m 900 -278 q 869 -270 892 -278 q 820 -249 847 -262 q 770 -217 793 -235 q 738 -179 747 -199 q 756 -106 738 -142 q 804 -37 774 -69 q 869 19 835 -6 l 974 21 q 908 -37 935 -4 q 868 -99 882 -71 q 854 -139 854 -126 q 928 -183 882 -169 q 1026 -197 975 -197 q 1033 -210 1029 -201 q 1038 -225 1038 -218 q 975 -262 1018 -247 q 900 -278 932 -278 z "},"Å":{"ha":1104,"x_min":38,"x_max":1074,"o":"m 342 0 q 308 3 335 0 q 244 11 282 6 q 167 22 207 17 q 93 35 128 28 q 38 47 58 42 q 43 71 38 60 q 54 88 49 82 l 67 88 q 103 99 85 88 q 142 140 122 111 q 181 217 161 168 q 224 343 201 267 l 382 894 q 420 924 394 907 q 477 959 446 942 q 537 988 508 976 q 581 1000 565 1000 q 631 988 600 1000 q 695 956 663 975 q 747 918 728 938 l 935 124 q 945 100 939 110 q 972 89 951 90 l 1060 83 q 1068 74 1064 78 q 1074 47 1072 69 q 1044 26 1063 38 q 1003 8 1025 15 q 964 0 982 0 q 919 4 951 0 q 847 15 888 8 q 765 30 806 22 q 693 45 725 38 q 647 57 661 53 q 654 81 647 71 q 663 92 661 90 l 710 92 q 747 94 732 92 q 768 114 763 97 q 764 171 774 131 l 714 397 l 357 397 l 301 200 q 281 149 293 171 q 256 115 269 128 q 226 99 243 103 l 439 82 q 444 69 440 78 q 449 46 449 60 q 418 24 438 35 q 378 6 399 13 q 342 0 357 0 m 379 478 q 513 481 451 478 q 621 487 575 483 q 690 494 667 490 l 610 851 q 549 884 579 872 q 492 901 519 896 l 379 478 m 553 1067 q 451 1104 492 1067 q 410 1199 410 1142 q 451 1294 410 1256 q 553 1332 492 1332 q 656 1294 615 1332 q 697 1199 697 1256 q 656 1104 697 1142 q 553 1067 615 1067 m 553 1136 q 603 1153 585 1136 q 622 1199 622 1169 q 603 1246 622 1229 q 553 1263 585 1263 q 503 1246 522 1263 q 485 1199 485 1229 q 503 1153 485 1169 q 553 1136 522 1136 z "},"Ǻ":{"ha":1104,"x_min":38,"x_max":1074,"o":"m 342 0 q 308 3 335 0 q 244 11 282 6 q 167 22 207 17 q 93 35 128 28 q 38 47 58 42 q 43 71 38 60 q 54 88 49 82 l 67 88 q 103 99 85 88 q 142 140 122 111 q 181 217 161 168 q 224 343 201 267 l 382 894 q 420 924 394 907 q 477 959 446 942 q 537 988 508 976 q 581 1000 565 1000 q 631 988 600 1000 q 695 956 663 975 q 747 918 728 938 l 935 124 q 945 100 939 110 q 972 89 951 90 l 1060 83 q 1068 74 1064 78 q 1074 47 1072 69 q 1044 26 1063 38 q 1003 8 1025 15 q 964 0 982 0 q 919 4 951 0 q 847 15 888 8 q 765 30 806 22 q 693 45 725 38 q 647 57 661 53 q 654 81 647 71 q 663 92 661 90 l 710 92 q 747 94 732 92 q 768 114 763 97 q 764 171 774 131 l 714 397 l 357 397 l 301 200 q 281 149 293 171 q 256 115 269 128 q 226 99 243 103 l 439 82 q 444 69 440 78 q 449 46 449 60 q 418 24 438 35 q 378 6 399 13 q 342 0 357 0 m 379 478 q 513 481 451 478 q 621 487 575 483 q 690 494 667 490 l 610 851 q 549 884 579 872 q 492 901 519 896 l 379 478 m 553 1067 q 451 1104 492 1067 q 410 1199 410 1142 q 451 1294 410 1256 q 553 1332 492 1332 q 656 1294 615 1332 q 697 1199 697 1256 q 656 1104 697 1142 q 553 1067 615 1067 m 553 1136 q 603 1153 585 1136 q 622 1199 622 1169 q 603 1246 622 1229 q 553 1263 585 1263 q 503 1246 522 1263 q 485 1199 485 1229 q 503 1153 485 1169 q 553 1136 522 1136 m 456 1386 q 424 1403 438 1392 q 406 1421 411 1414 q 503 1547 456 1493 q 585 1632 550 1601 q 635 1663 621 1663 q 665 1649 646 1663 q 701 1614 683 1635 q 725 1572 718 1593 l 456 1386 z "},"Ã":{"ha":1104,"x_min":38,"x_max":1074,"o":"m 342 0 q 308 3 335 0 q 244 11 282 6 q 167 22 207 17 q 93 35 128 28 q 38 47 58 42 q 43 71 38 60 q 54 88 49 82 l 67 88 q 103 99 85 88 q 142 140 122 111 q 181 217 161 168 q 224 343 201 267 l 382 894 q 420 924 394 907 q 477 959 446 942 q 537 988 508 976 q 581 1000 565 1000 q 631 988 600 1000 q 695 956 663 975 q 747 918 728 938 l 935 124 q 945 100 939 110 q 972 89 951 90 l 1060 83 q 1068 74 1064 78 q 1074 47 1072 69 q 1044 26 1063 38 q 1003 8 1025 15 q 964 0 982 0 q 919 4 951 0 q 847 15 888 8 q 765 30 806 22 q 693 45 725 38 q 647 57 661 53 q 654 81 647 71 q 663 92 661 90 l 710 92 q 747 94 732 92 q 768 114 763 97 q 764 171 774 131 l 714 397 l 357 397 l 301 200 q 281 149 293 171 q 256 115 269 128 q 226 99 243 103 l 439 82 q 444 69 440 78 q 449 46 449 60 q 418 24 438 35 q 378 6 399 13 q 342 0 357 0 m 379 478 q 513 481 451 478 q 621 487 575 483 q 690 494 667 490 l 610 851 q 549 884 579 872 q 492 901 519 896 l 379 478 m 682 1081 q 619 1094 664 1081 q 519 1128 574 1108 q 419 1167 465 1149 l 317 1093 q 299 1103 308 1096 q 285 1122 290 1110 q 326 1186 303 1153 q 374 1242 350 1219 q 417 1265 399 1265 q 481 1252 435 1265 q 583 1221 526 1239 q 686 1185 639 1203 l 782 1272 q 806 1260 796 1267 q 819 1246 815 1253 q 776 1172 801 1211 q 725 1107 750 1133 q 682 1081 700 1081 z "},"Æ":{"ha":1410,"x_min":38,"x_max":1354,"o":"m 313 0 q 268 5 303 0 q 189 17 233 10 q 103 32 144 24 q 38 47 63 40 q 42 70 38 58 q 51 88 47 82 l 71 88 q 101 94 86 88 q 135 124 117 101 q 174 196 153 147 q 218 328 194 244 l 379 883 q 413 910 390 894 q 463 942 436 926 q 515 967 490 957 q 554 978 540 978 l 1146 978 q 1221 945 1182 967 q 1281 900 1260 924 q 1263 756 1275 818 q 1240 667 1250 694 q 1192 671 1215 667 q 1158 681 1169 675 l 1124 876 q 1075 885 1106 881 q 1007 892 1044 889 q 930 899 969 896 q 853 901 890 901 q 782 896 804 901 q 758 872 760 890 q 764 814 756 854 l 829 531 q 965 547 904 539 q 1074 563 1026 554 q 1150 578 1121 571 l 1164 563 q 1158 505 1163 532 q 1147 467 1153 478 l 851 439 l 903 217 q 909 141 914 169 q 890 100 904 113 l 1196 100 l 1272 335 q 1321 328 1299 335 q 1354 311 1343 321 q 1352 225 1354 272 q 1346 135 1350 178 q 1338 64 1342 92 q 1303 38 1326 53 q 1257 11 1281 22 q 1218 0 1233 0 q 1136 2 1185 0 q 1031 8 1088 4 q 915 16 974 11 q 803 26 857 21 q 708 38 750 32 q 640 47 665 43 q 645 70 640 60 q 654 85 650 81 l 688 90 q 728 101 710 94 q 753 128 746 108 q 751 188 761 147 l 697 425 l 343 393 l 288 197 q 265 141 278 163 q 240 109 251 119 q 221 96 228 99 l 410 81 q 418 68 414 76 q 422 46 422 60 q 391 24 411 35 q 349 6 371 13 q 313 0 328 0 m 364 478 q 439 485 404 482 q 508 491 474 488 q 583 499 543 494 q 675 511 624 504 l 592 885 q 519 878 550 885 q 471 865 489 872 l 364 478 z "},"Ǽ":{"ha":1410,"x_min":38,"x_max":1354,"o":"m 313 0 q 268 5 303 0 q 189 17 233 10 q 103 32 144 24 q 38 47 63 40 q 42 70 38 58 q 51 88 47 82 l 71 88 q 101 94 86 88 q 135 124 117 101 q 174 196 153 147 q 218 328 194 244 l 379 883 q 413 910 390 894 q 463 942 436 926 q 515 967 490 957 q 554 978 540 978 l 1146 978 q 1221 945 1182 967 q 1281 900 1260 924 q 1263 756 1275 818 q 1240 667 1250 694 q 1192 671 1215 667 q 1158 681 1169 675 l 1124 876 q 1075 885 1106 881 q 1007 892 1044 889 q 930 899 969 896 q 853 901 890 901 q 782 896 804 901 q 758 872 760 890 q 764 814 756 854 l 829 531 q 965 547 904 539 q 1074 563 1026 554 q 1150 578 1121 571 l 1164 563 q 1158 505 1163 532 q 1147 467 1153 478 l 851 439 l 903 217 q 909 141 914 169 q 890 100 904 113 l 1196 100 l 1272 335 q 1321 328 1299 335 q 1354 311 1343 321 q 1352 225 1354 272 q 1346 135 1350 178 q 1338 64 1342 92 q 1303 38 1326 53 q 1257 11 1281 22 q 1218 0 1233 0 q 1136 2 1185 0 q 1031 8 1088 4 q 915 16 974 11 q 803 26 857 21 q 708 38 750 32 q 640 47 665 43 q 645 70 640 60 q 654 85 650 81 l 688 90 q 728 101 710 94 q 753 128 746 108 q 751 188 761 147 l 697 425 l 343 393 l 288 197 q 265 141 278 163 q 240 109 251 119 q 221 96 228 99 l 410 81 q 418 68 414 76 q 422 46 422 60 q 391 24 411 35 q 349 6 371 13 q 313 0 328 0 m 364 478 q 439 485 404 482 q 508 491 474 488 q 583 499 543 494 q 675 511 624 504 l 592 885 q 519 878 550 885 q 471 865 489 872 l 364 478 m 678 1068 q 647 1085 660 1074 q 628 1103 633 1096 q 725 1229 678 1175 q 808 1314 772 1283 q 857 1344 843 1344 q 887 1331 868 1344 q 923 1296 906 1317 q 947 1254 940 1275 l 678 1068 z "},"B":{"ha":976,"x_min":74,"x_max":892,"o":"m 646 0 q 551 3 608 0 q 427 10 494 6 q 293 22 360 15 q 169 34 226 28 q 75 47 111 40 q 79 69 75 58 q 89 85 83 79 l 129 90 q 172 106 157 94 q 192 146 186 117 q 199 231 199 175 l 199 789 q 206 859 199 826 q 225 900 213 892 l 90 900 q 82 912 88 906 q 74 932 76 918 q 99 952 82 942 q 135 970 117 963 q 161 978 153 978 l 642 978 q 715 950 678 968 q 783 910 751 932 q 835 864 815 888 q 847 820 843 846 q 851 767 851 794 q 844 676 851 722 q 826 594 838 629 q 797 543 814 558 q 743 522 778 533 q 672 504 708 510 l 671 499 q 789 472 736 492 q 865 436 842 453 q 886 370 881 407 q 892 299 892 333 q 888 238 892 268 q 877 179 883 207 q 861 126 871 151 q 810 77 847 106 q 728 26 772 49 q 646 0 683 4 m 329 100 l 679 100 q 708 146 697 117 q 725 210 719 175 q 731 279 731 246 q 726 336 731 307 q 715 390 722 365 q 667 421 699 404 q 590 450 636 438 q 481 463 544 463 l 354 463 l 354 194 q 346 136 354 161 q 329 100 338 111 m 354 542 q 461 545 411 543 q 559 551 511 547 q 654 560 607 554 q 690 637 678 592 q 701 729 701 682 q 692 812 701 774 q 658 872 682 850 q 599 888 635 882 q 524 897 563 894 q 456 900 486 900 q 379 869 404 900 q 354 790 354 839 l 354 542 z "},"C":{"ha":950,"x_min":94,"x_max":861,"o":"m 510 0 q 413 15 467 0 q 308 53 360 31 q 218 100 257 76 q 164 142 179 124 q 113 260 131 179 q 94 442 94 340 q 103 606 94 525 q 126 751 113 686 q 154 847 140 815 q 235 901 186 875 q 340 951 283 928 q 454 987 397 974 q 561 1000 511 1000 q 676 987 618 1000 q 782 953 733 974 q 861 910 831 932 q 845 759 857 824 q 825 665 833 694 q 768 672 789 667 q 738 681 747 676 l 706 854 q 654 873 686 864 q 591 888 622 882 q 538 894 560 894 q 465 888 507 894 q 381 869 422 881 q 310 842 339 857 q 281 746 293 803 q 264 625 269 689 q 258 501 258 561 q 264 383 258 440 q 281 280 269 326 q 306 203 292 233 q 347 174 318 190 q 412 142 376 157 q 483 118 447 128 q 544 108 518 108 q 599 111 569 108 q 654 119 628 114 q 696 131 681 124 l 771 342 q 822 334 799 342 q 858 319 846 326 q 855 243 858 285 q 848 161 851 201 q 840 90 844 121 q 765 52 814 74 q 652 15 717 31 q 510 0 588 0 z "},"Ć":{"ha":950,"x_min":94,"x_max":861,"o":"m 510 0 q 413 15 467 0 q 308 53 360 31 q 218 100 257 76 q 164 142 179 124 q 113 260 131 179 q 94 442 94 340 q 103 606 94 525 q 126 751 113 686 q 154 847 140 815 q 235 901 186 875 q 340 951 283 928 q 454 987 397 974 q 561 1000 511 1000 q 676 987 618 1000 q 782 953 733 974 q 861 910 831 932 q 845 759 857 824 q 825 665 833 694 q 768 672 789 667 q 738 681 747 676 l 706 854 q 654 873 686 864 q 591 888 622 882 q 538 894 560 894 q 465 888 507 894 q 381 869 422 881 q 310 842 339 857 q 281 746 293 803 q 264 625 269 689 q 258 501 258 561 q 264 383 258 440 q 281 280 269 326 q 306 203 292 233 q 347 174 318 190 q 412 142 376 157 q 483 118 447 128 q 544 108 518 108 q 599 111 569 108 q 654 119 628 114 q 696 131 681 124 l 771 342 q 822 334 799 342 q 858 319 846 326 q 855 243 858 285 q 848 161 851 201 q 840 90 844 121 q 765 52 814 74 q 652 15 717 31 q 510 0 588 0 m 422 1068 q 391 1085 404 1074 q 372 1103 378 1096 q 469 1229 422 1175 q 552 1314 517 1283 q 601 1344 588 1344 q 631 1331 613 1344 q 667 1296 650 1317 q 692 1254 685 1275 l 422 1068 z "},"Č":{"ha":950,"x_min":94,"x_max":861,"o":"m 510 0 q 413 15 467 0 q 308 53 360 31 q 218 100 257 76 q 164 142 179 124 q 113 260 131 179 q 94 442 94 340 q 103 606 94 525 q 126 751 113 686 q 154 847 140 815 q 235 901 186 875 q 340 951 283 928 q 454 987 397 974 q 561 1000 511 1000 q 676 987 618 1000 q 782 953 733 974 q 861 910 831 932 q 845 759 857 824 q 825 665 833 694 q 768 672 789 667 q 738 681 747 676 l 706 854 q 654 873 686 864 q 591 888 622 882 q 538 894 560 894 q 465 888 507 894 q 381 869 422 881 q 310 842 339 857 q 281 746 293 803 q 264 625 269 689 q 258 501 258 561 q 264 383 258 440 q 281 280 269 326 q 306 203 292 233 q 347 174 318 190 q 412 142 376 157 q 483 118 447 128 q 544 108 518 108 q 599 111 569 108 q 654 119 628 114 q 696 131 681 124 l 771 342 q 822 334 799 342 q 858 319 846 326 q 855 243 858 285 q 848 161 851 201 q 840 90 844 121 q 765 52 814 74 q 652 15 717 31 q 510 0 588 0 m 519 1068 q 469 1100 500 1068 q 398 1186 439 1132 q 306 1308 357 1240 q 324 1331 311 1319 q 349 1344 336 1342 l 521 1203 l 689 1344 q 714 1331 701 1340 q 732 1310 726 1321 q 639 1184 679 1239 q 569 1099 599 1129 q 519 1068 539 1068 z "},"Ç":{"ha":950,"x_min":94,"x_max":861,"o":"m 510 0 q 413 15 467 0 q 308 53 360 31 q 218 100 257 76 q 164 142 179 124 q 113 260 131 179 q 94 442 94 340 q 103 606 94 525 q 126 751 113 686 q 154 847 140 815 q 235 901 186 875 q 340 951 283 928 q 454 987 397 974 q 561 1000 511 1000 q 676 987 618 1000 q 782 953 733 974 q 861 910 831 932 q 845 759 857 824 q 825 665 833 694 q 768 672 789 667 q 738 681 747 676 l 706 854 q 654 873 686 864 q 591 888 622 882 q 538 894 560 894 q 465 888 507 894 q 381 869 422 881 q 310 842 339 857 q 281 746 293 803 q 264 625 269 689 q 258 501 258 561 q 264 383 258 440 q 281 280 269 326 q 306 203 292 233 q 347 174 318 190 q 412 142 376 157 q 483 118 447 128 q 544 108 518 108 q 599 111 569 108 q 654 119 628 114 q 696 131 681 124 l 771 342 q 822 334 799 342 q 858 319 846 326 q 855 243 858 285 q 848 161 851 201 q 840 90 844 121 q 765 52 814 74 q 652 15 717 31 q 510 0 588 0 m 517 -278 q 484 -272 504 -278 q 447 -259 464 -267 q 425 -244 431 -251 q 428 -226 425 -233 q 432 -217 431 -219 q 515 -215 479 -217 q 582 -207 551 -214 q 592 -176 589 -196 q 596 -143 596 -157 q 563 -127 586 -136 q 512 -110 539 -118 q 464 -99 485 -101 q 452 -76 458 -90 q 446 -49 446 -62 q 472 -1 461 -21 q 503 51 482 18 l 557 51 l 528 -51 q 603 -71 565 -57 q 667 -100 642 -85 q 692 -126 692 -115 q 683 -181 692 -149 q 660 -231 675 -212 q 608 -256 638 -244 q 554 -272 579 -267 q 517 -278 529 -278 z "},"Ĉ":{"ha":950,"x_min":94,"x_max":861,"o":"m 510 0 q 413 15 467 0 q 308 53 360 31 q 218 100 257 76 q 164 142 179 124 q 113 260 131 179 q 94 442 94 340 q 103 606 94 525 q 126 751 113 686 q 154 847 140 815 q 235 901 186 875 q 340 951 283 928 q 454 987 397 974 q 561 1000 511 1000 q 676 987 618 1000 q 782 953 733 974 q 861 910 831 932 q 845 759 857 824 q 825 665 833 694 q 768 672 789 667 q 738 681 747 676 l 706 854 q 654 873 686 864 q 591 888 622 882 q 538 894 560 894 q 465 888 507 894 q 381 869 422 881 q 310 842 339 857 q 281 746 293 803 q 264 625 269 689 q 258 501 258 561 q 264 383 258 440 q 281 280 269 326 q 306 203 292 233 q 347 174 318 190 q 412 142 376 157 q 483 118 447 128 q 544 108 518 108 q 599 111 569 108 q 654 119 628 114 q 696 131 681 124 l 771 342 q 822 334 799 342 q 858 319 846 326 q 855 243 858 285 q 848 161 851 201 q 840 90 844 121 q 765 52 814 74 q 652 15 717 31 q 510 0 588 0 m 347 1068 q 322 1083 333 1074 q 306 1103 310 1093 q 401 1231 360 1176 q 472 1315 442 1285 q 519 1344 501 1344 q 569 1313 539 1344 q 640 1227 599 1282 q 732 1103 681 1172 q 716 1084 726 1096 q 689 1068 706 1072 l 518 1210 l 347 1068 z "},"Ċ":{"ha":950,"x_min":94,"x_max":861,"o":"m 510 0 q 413 15 467 0 q 308 53 360 31 q 218 100 257 76 q 164 142 179 124 q 113 260 131 179 q 94 442 94 340 q 103 606 94 525 q 126 751 113 686 q 154 847 140 815 q 235 901 186 875 q 340 951 283 928 q 454 987 397 974 q 561 1000 511 1000 q 676 987 618 1000 q 782 953 733 974 q 861 910 831 932 q 845 759 857 824 q 825 665 833 694 q 768 672 789 667 q 738 681 747 676 l 706 854 q 654 873 686 864 q 591 888 622 882 q 538 894 560 894 q 465 888 507 894 q 381 869 422 881 q 310 842 339 857 q 281 746 293 803 q 264 625 269 689 q 258 501 258 561 q 264 383 258 440 q 281 280 269 326 q 306 203 292 233 q 347 174 318 190 q 412 142 376 157 q 483 118 447 128 q 544 108 518 108 q 599 111 569 108 q 654 119 628 114 q 696 131 681 124 l 771 342 q 822 334 799 342 q 858 319 846 326 q 855 243 858 285 q 848 161 851 201 q 840 90 844 121 q 765 52 814 74 q 652 15 717 31 q 510 0 588 0 m 507 1110 q 481 1123 497 1110 q 449 1155 464 1136 q 422 1192 433 1174 q 411 1224 411 1211 q 426 1250 411 1235 q 461 1279 440 1265 q 502 1302 482 1293 q 535 1311 522 1311 q 561 1298 546 1311 q 591 1265 576 1285 q 615 1226 606 1246 q 625 1194 625 1207 q 612 1170 625 1185 q 579 1142 599 1156 q 540 1119 560 1128 q 507 1110 521 1110 z "},"D":{"ha":1074,"x_min":74,"x_max":979,"o":"m 671 0 q 567 3 629 0 q 433 12 504 7 q 291 23 361 17 q 164 35 221 29 q 75 47 107 42 q 79 69 75 58 q 89 85 83 79 l 129 90 q 172 106 157 94 q 192 146 186 117 q 199 231 199 175 l 199 789 q 203 851 199 828 q 215 887 208 875 q 225 900 222 899 l 90 900 q 80 914 85 906 q 74 932 75 922 q 99 952 82 942 q 135 970 117 963 q 161 978 153 978 l 710 978 q 762 960 733 972 q 820 933 790 949 q 875 899 850 917 q 914 867 900 882 q 966 706 953 794 q 979 535 979 618 q 969 373 979 450 q 942 234 958 296 q 903 132 925 172 q 853 90 882 111 q 791 50 824 68 q 727 19 758 32 q 671 0 696 6 m 329 100 l 718 100 q 760 159 742 119 q 791 251 778 199 q 810 366 804 304 q 817 492 817 428 q 813 615 817 557 q 798 724 808 674 q 769 812 788 774 q 725 874 751 850 q 651 886 699 881 q 547 896 603 892 q 439 900 492 900 q 371 869 388 900 q 354 789 354 839 l 354 194 q 346 136 354 161 q 329 100 338 111 z "},"Ǆ":{"ha":1988,"x_min":74,"x_max":1921,"o":"m 671 0 q 567 3 629 0 q 433 12 504 7 q 291 23 361 17 q 164 35 221 29 q 75 47 107 42 q 79 69 75 58 q 89 85 83 79 l 129 90 q 172 106 157 94 q 192 146 186 117 q 199 231 199 175 l 199 789 q 203 851 199 828 q 215 887 208 875 q 225 900 222 899 l 90 900 q 80 914 85 906 q 74 932 75 922 q 99 952 82 942 q 135 970 117 963 q 161 978 153 978 l 710 978 q 762 960 733 972 q 820 933 790 949 q 875 899 850 917 q 914 867 900 882 q 966 706 953 794 q 979 535 979 618 q 969 373 979 450 q 942 234 958 296 q 903 132 925 172 q 853 90 882 111 q 791 50 824 68 q 727 19 758 32 q 671 0 696 6 m 329 100 l 718 100 q 760 159 742 119 q 791 251 778 199 q 810 366 804 304 q 817 492 817 428 q 813 615 817 557 q 798 724 808 674 q 769 812 788 774 q 725 874 751 850 q 651 886 699 881 q 547 896 603 892 q 439 900 492 900 q 371 869 388 900 q 354 789 354 839 l 354 194 q 346 136 354 161 q 329 100 338 111 z "},"Ð":{"ha":1083,"x_min":74,"x_max":989,"o":"m 324 451 l 196 454 l 74 454 q 78 502 74 486 q 89 521 83 518 l 196 524 l 324 531 q 478 536 404 531 q 611 549 551 542 l 624 538 q 617 484 622 507 q 608 451 613 461 l 324 451 m 681 0 q 576 3 639 0 q 442 12 514 7 q 301 23 371 17 q 174 35 231 29 q 85 47 117 42 q 89 69 85 58 q 99 85 93 79 l 139 90 q 181 106 167 94 q 202 146 196 117 q 208 231 208 175 l 208 789 q 213 851 208 828 q 225 887 218 875 q 235 900 232 899 l 100 900 q 90 914 94 906 q 83 932 85 922 q 109 952 92 942 q 144 970 126 963 q 171 978 163 978 l 719 978 q 772 960 743 972 q 830 933 800 949 q 885 899 860 917 q 924 867 910 882 q 976 706 963 794 q 989 535 989 618 q 978 373 989 450 q 951 234 968 296 q 913 132 935 172 q 863 90 892 111 q 801 50 833 68 q 737 19 768 32 q 681 0 706 6 m 339 100 l 728 100 q 769 159 751 119 q 801 251 788 199 q 820 366 814 304 q 826 492 826 428 q 822 615 826 557 q 808 724 818 674 q 779 812 797 774 q 735 874 761 850 q 660 886 708 881 q 557 896 613 892 q 449 900 501 900 q 381 869 397 900 q 364 789 364 839 l 364 194 q 356 136 364 161 q 339 100 347 111 z "},"Ď":{"ha":1074,"x_min":74,"x_max":979,"o":"m 671 0 q 567 3 629 0 q 433 12 504 7 q 291 23 361 17 q 164 35 221 29 q 75 47 107 42 q 79 69 75 58 q 89 85 83 79 l 129 90 q 172 106 157 94 q 192 146 186 117 q 199 231 199 175 l 199 789 q 203 851 199 828 q 215 887 208 875 q 225 900 222 899 l 90 900 q 80 914 85 906 q 74 932 75 922 q 99 952 82 942 q 135 970 117 963 q 161 978 153 978 l 710 978 q 762 960 733 972 q 820 933 790 949 q 875 899 850 917 q 914 867 900 882 q 966 706 953 794 q 979 535 979 618 q 969 373 979 450 q 942 234 958 296 q 903 132 925 172 q 853 90 882 111 q 791 50 824 68 q 727 19 758 32 q 671 0 696 6 m 329 100 l 718 100 q 760 159 742 119 q 791 251 778 199 q 810 366 804 304 q 817 492 817 428 q 813 615 817 557 q 798 724 808 674 q 769 812 788 774 q 725 874 751 850 q 651 886 699 881 q 547 896 603 892 q 439 900 492 900 q 371 869 388 900 q 354 789 354 839 l 354 194 q 346 136 354 161 q 329 100 338 111 m 543 1068 q 493 1100 524 1068 q 422 1186 463 1132 q 329 1308 381 1240 q 347 1331 335 1319 q 372 1344 360 1342 l 544 1203 l 713 1344 q 738 1331 725 1340 q 756 1310 750 1321 q 663 1184 703 1239 q 592 1099 622 1129 q 543 1068 563 1068 z "},"Đ":{"ha":1083,"x_min":74,"x_max":989,"o":"m 324 451 l 196 454 l 74 454 q 78 502 74 486 q 89 521 83 518 l 196 524 l 324 531 q 478 536 404 531 q 611 549 551 542 l 624 538 q 617 484 622 507 q 608 451 613 461 l 324 451 m 681 0 q 576 3 639 0 q 442 12 514 7 q 301 23 371 17 q 174 35 231 29 q 85 47 117 42 q 89 69 85 58 q 99 85 93 79 l 139 90 q 181 106 167 94 q 202 146 196 117 q 208 231 208 175 l 208 789 q 213 851 208 828 q 225 887 218 875 q 235 900 232 899 l 100 900 q 90 914 94 906 q 83 932 85 922 q 109 952 92 942 q 144 970 126 963 q 171 978 163 978 l 719 978 q 772 960 743 972 q 830 933 800 949 q 885 899 860 917 q 924 867 910 882 q 976 706 963 794 q 989 535 989 618 q 978 373 989 450 q 951 234 968 296 q 913 132 935 172 q 863 90 892 111 q 801 50 833 68 q 737 19 768 32 q 681 0 706 6 m 339 100 l 728 100 q 769 159 751 119 q 801 251 788 199 q 820 366 814 304 q 826 492 826 428 q 822 615 826 557 q 808 724 818 674 q 779 812 797 774 q 735 874 761 850 q 660 886 708 881 q 557 896 613 892 q 449 900 501 900 q 381 869 397 900 q 364 789 364 839 l 364 194 q 356 136 364 161 q 339 100 347 111 z "},"ǅ":{"ha":1740,"x_min":74,"x_max":1707,"o":"m 671 0 q 567 3 629 0 q 433 12 504 7 q 291 23 361 17 q 164 35 221 29 q 75 47 107 42 q 79 69 75 58 q 89 85 83 79 l 129 90 q 172 106 157 94 q 192 146 186 117 q 199 231 199 175 l 199 789 q 203 851 199 828 q 215 887 208 875 q 225 900 222 899 l 90 900 q 80 914 85 906 q 74 932 75 922 q 99 952 82 942 q 135 970 117 963 q 161 978 153 978 l 710 978 q 762 960 733 972 q 820 933 790 949 q 875 899 850 917 q 914 867 900 882 q 966 706 953 794 q 979 535 979 618 q 969 373 979 450 q 942 234 958 296 q 903 132 925 172 q 853 90 882 111 q 791 50 824 68 q 727 19 758 32 q 671 0 696 6 m 329 100 l 718 100 q 760 159 742 119 q 791 251 778 199 q 810 366 804 304 q 817 492 817 428 q 813 615 817 557 q 798 724 808 674 q 769 812 788 774 q 725 874 751 850 q 651 886 699 881 q 547 896 603 892 q 439 900 492 900 q 371 869 388 900 q 354 789 354 839 l 354 194 q 346 136 354 161 q 329 100 338 111 z "},"E":{"ha":961,"x_min":74,"x_max":869,"o":"m 736 0 q 647 2 701 0 q 528 8 593 4 q 395 16 463 11 q 265 26 328 21 q 153 36 203 31 q 75 47 103 42 q 79 69 75 58 q 89 85 83 79 l 129 90 q 172 106 157 94 q 192 146 186 117 q 199 231 199 175 l 199 789 q 203 851 199 828 q 215 887 208 875 q 225 900 222 899 l 90 900 q 80 914 85 906 q 74 932 75 922 q 99 952 82 942 q 135 970 117 963 q 161 978 153 978 l 732 978 q 806 944 769 965 q 864 900 842 924 q 845 756 858 817 q 822 667 832 694 q 773 672 794 667 q 740 681 751 676 l 706 876 q 638 887 679 882 q 544 896 596 892 q 439 900 493 900 q 384 884 403 900 q 360 842 365 868 q 354 789 354 817 l 354 544 q 472 548 418 546 q 573 554 526 550 q 657 563 619 558 l 672 547 q 665 492 669 517 q 656 457 660 468 l 354 457 l 354 194 q 346 136 354 161 q 329 100 338 111 l 708 100 l 789 335 q 840 326 817 335 q 869 311 863 318 q 867 223 869 269 q 860 134 864 176 q 850 64 856 92 q 817 37 839 51 q 772 11 794 22 q 736 0 750 0 z "},"É":{"ha":961,"x_min":74,"x_max":869,"o":"m 736 0 q 647 2 701 0 q 528 8 593 4 q 395 16 463 11 q 265 26 328 21 q 153 36 203 31 q 75 47 103 42 q 79 69 75 58 q 89 85 83 79 l 129 90 q 172 106 157 94 q 192 146 186 117 q 199 231 199 175 l 199 789 q 203 851 199 828 q 215 887 208 875 q 225 900 222 899 l 90 900 q 80 914 85 906 q 74 932 75 922 q 99 952 82 942 q 135 970 117 963 q 161 978 153 978 l 732 978 q 806 944 769 965 q 864 900 842 924 q 845 756 858 817 q 822 667 832 694 q 773 672 794 667 q 740 681 751 676 l 706 876 q 638 887 679 882 q 544 896 596 892 q 439 900 493 900 q 384 884 403 900 q 360 842 365 868 q 354 789 354 817 l 354 544 q 472 548 418 546 q 573 554 526 550 q 657 563 619 558 l 672 547 q 665 492 669 517 q 656 457 660 468 l 354 457 l 354 194 q 346 136 354 161 q 329 100 338 111 l 708 100 l 789 335 q 840 326 817 335 q 869 311 863 318 q 867 223 869 269 q 860 134 864 176 q 850 64 856 92 q 817 37 839 51 q 772 11 794 22 q 736 0 750 0 m 408 1068 q 377 1085 390 1074 q 358 1103 364 1096 q 456 1229 408 1175 q 538 1314 503 1283 q 588 1344 574 1344 q 617 1331 599 1344 q 653 1296 636 1317 q 678 1254 671 1275 l 408 1068 z "},"Ĕ":{"ha":961,"x_min":74,"x_max":869,"o":"m 736 0 q 647 2 701 0 q 528 8 593 4 q 395 16 463 11 q 265 26 328 21 q 153 36 203 31 q 75 47 103 42 q 79 69 75 58 q 89 85 83 79 l 129 90 q 172 106 157 94 q 192 146 186 117 q 199 231 199 175 l 199 789 q 203 851 199 828 q 215 887 208 875 q 225 900 222 899 l 90 900 q 80 914 85 906 q 74 932 75 922 q 99 952 82 942 q 135 970 117 963 q 161 978 153 978 l 732 978 q 806 944 769 965 q 864 900 842 924 q 845 756 858 817 q 822 667 832 694 q 773 672 794 667 q 740 681 751 676 l 706 876 q 638 887 679 882 q 544 896 596 892 q 439 900 493 900 q 384 884 403 900 q 360 842 365 868 q 354 789 354 817 l 354 544 q 472 548 418 546 q 573 554 526 550 q 657 563 619 558 l 672 547 q 665 492 669 517 q 656 457 660 468 l 354 457 l 354 194 q 346 136 354 161 q 329 100 338 111 l 708 100 l 789 335 q 840 326 817 335 q 869 311 863 318 q 867 223 869 269 q 860 134 864 176 q 850 64 856 92 q 817 37 839 51 q 772 11 794 22 q 736 0 750 0 m 504 1085 q 370 1133 413 1085 q 319 1254 328 1181 q 349 1263 329 1258 q 390 1267 368 1267 q 427 1197 401 1215 q 504 1179 453 1179 q 582 1197 556 1179 q 618 1267 608 1215 q 663 1263 644 1267 q 690 1254 682 1258 q 636 1129 681 1174 q 504 1085 592 1085 z "},"Ě":{"ha":961,"x_min":74,"x_max":869,"o":"m 736 0 q 647 2 701 0 q 528 8 593 4 q 395 16 463 11 q 265 26 328 21 q 153 36 203 31 q 75 47 103 42 q 79 69 75 58 q 89 85 83 79 l 129 90 q 172 106 157 94 q 192 146 186 117 q 199 231 199 175 l 199 789 q 203 851 199 828 q 215 887 208 875 q 225 900 222 899 l 90 900 q 80 914 85 906 q 74 932 75 922 q 99 952 82 942 q 135 970 117 963 q 161 978 153 978 l 732 978 q 806 944 769 965 q 864 900 842 924 q 845 756 858 817 q 822 667 832 694 q 773 672 794 667 q 740 681 751 676 l 706 876 q 638 887 679 882 q 544 896 596 892 q 439 900 493 900 q 384 884 403 900 q 360 842 365 868 q 354 789 354 817 l 354 544 q 472 548 418 546 q 573 554 526 550 q 657 563 619 558 l 672 547 q 665 492 669 517 q 656 457 660 468 l 354 457 l 354 194 q 346 136 354 161 q 329 100 338 111 l 708 100 l 789 335 q 840 326 817 335 q 869 311 863 318 q 867 223 869 269 q 860 134 864 176 q 850 64 856 92 q 817 37 839 51 q 772 11 794 22 q 736 0 750 0 m 506 1068 q 456 1100 486 1068 q 384 1186 425 1132 q 292 1308 343 1240 q 310 1331 297 1319 q 335 1344 322 1342 l 507 1203 l 675 1344 q 700 1331 688 1340 q 718 1310 713 1321 q 625 1184 665 1239 q 555 1099 585 1129 q 506 1068 525 1068 z "},"Ê":{"ha":961,"x_min":74,"x_max":869,"o":"m 736 0 q 647 2 701 0 q 528 8 593 4 q 395 16 463 11 q 265 26 328 21 q 153 36 203 31 q 75 47 103 42 q 79 69 75 58 q 89 85 83 79 l 129 90 q 172 106 157 94 q 192 146 186 117 q 199 231 199 175 l 199 789 q 203 851 199 828 q 215 887 208 875 q 225 900 222 899 l 90 900 q 80 914 85 906 q 74 932 75 922 q 99 952 82 942 q 135 970 117 963 q 161 978 153 978 l 732 978 q 806 944 769 965 q 864 900 842 924 q 845 756 858 817 q 822 667 832 694 q 773 672 794 667 q 740 681 751 676 l 706 876 q 638 887 679 882 q 544 896 596 892 q 439 900 493 900 q 384 884 403 900 q 360 842 365 868 q 354 789 354 817 l 354 544 q 472 548 418 546 q 573 554 526 550 q 657 563 619 558 l 672 547 q 665 492 669 517 q 656 457 660 468 l 354 457 l 354 194 q 346 136 354 161 q 329 100 338 111 l 708 100 l 789 335 q 840 326 817 335 q 869 311 863 318 q 867 223 869 269 q 860 134 864 176 q 850 64 856 92 q 817 37 839 51 q 772 11 794 22 q 736 0 750 0 m 333 1068 q 308 1083 319 1074 q 292 1103 296 1093 q 387 1231 346 1176 q 458 1315 428 1285 q 506 1344 488 1344 q 555 1313 525 1344 q 626 1227 585 1282 q 718 1103 667 1172 q 702 1084 713 1096 q 675 1068 692 1072 l 504 1210 l 333 1068 z "},"Ế":{"ha":961,"x_min":74,"x_max":869,"o":"m 736 0 q 647 2 701 0 q 528 8 593 4 q 395 16 463 11 q 265 26 328 21 q 153 36 203 31 q 75 47 103 42 q 79 69 75 58 q 89 85 83 79 l 129 90 q 172 106 157 94 q 192 146 186 117 q 199 231 199 175 l 199 789 q 203 851 199 828 q 215 887 208 875 q 225 900 222 899 l 90 900 q 80 914 85 906 q 74 932 75 922 q 99 952 82 942 q 135 970 117 963 q 161 978 153 978 l 732 978 q 806 944 769 965 q 864 900 842 924 q 845 756 858 817 q 822 667 832 694 q 773 672 794 667 q 740 681 751 676 l 706 876 q 638 887 679 882 q 544 896 596 892 q 439 900 493 900 q 384 884 403 900 q 360 842 365 868 q 354 789 354 817 l 354 544 q 472 548 418 546 q 573 554 526 550 q 657 563 619 558 l 672 547 q 665 492 669 517 q 656 457 660 468 l 354 457 l 354 194 q 346 136 354 161 q 329 100 338 111 l 708 100 l 789 335 q 840 326 817 335 q 869 311 863 318 q 867 223 869 269 q 860 134 864 176 q 850 64 856 92 q 817 37 839 51 q 772 11 794 22 q 736 0 750 0 m 333 1068 q 308 1083 319 1074 q 292 1103 296 1093 q 387 1231 346 1176 q 458 1315 428 1285 q 506 1344 488 1344 q 555 1313 525 1344 q 626 1227 585 1282 q 718 1103 667 1172 q 702 1084 713 1096 q 675 1068 692 1072 l 504 1210 l 333 1068 m 408 1392 q 377 1408 390 1397 q 358 1426 364 1419 q 456 1553 408 1499 q 538 1638 503 1607 q 588 1668 574 1668 q 617 1654 599 1668 q 653 1619 636 1640 q 678 1578 671 1599 l 408 1392 z "},"Ệ":{"ha":961,"x_min":74,"x_max":869,"o":"m 736 0 q 647 2 701 0 q 528 8 593 4 q 395 16 463 11 q 265 26 328 21 q 153 36 203 31 q 75 47 103 42 q 79 69 75 58 q 89 85 83 79 l 129 90 q 172 106 157 94 q 192 146 186 117 q 199 231 199 175 l 199 789 q 203 851 199 828 q 215 887 208 875 q 225 900 222 899 l 90 900 q 80 914 85 906 q 74 932 75 922 q 99 952 82 942 q 135 970 117 963 q 161 978 153 978 l 732 978 q 806 944 769 965 q 864 900 842 924 q 845 756 858 817 q 822 667 832 694 q 773 672 794 667 q 740 681 751 676 l 706 876 q 638 887 679 882 q 544 896 596 892 q 439 900 493 900 q 384 884 403 900 q 360 842 365 868 q 354 789 354 817 l 354 544 q 472 548 418 546 q 573 554 526 550 q 657 563 619 558 l 672 547 q 665 492 669 517 q 656 457 660 468 l 354 457 l 354 194 q 346 136 354 161 q 329 100 338 111 l 708 100 l 789 335 q 840 326 817 335 q 869 311 863 318 q 867 223 869 269 q 860 134 864 176 q 850 64 856 92 q 817 37 839 51 q 772 11 794 22 q 736 0 750 0 m 465 -279 q 440 -267 456 -279 q 410 -236 425 -254 q 386 -200 396 -218 q 376 -171 376 -182 q 390 -146 376 -160 q 422 -119 403 -132 q 461 -97 442 -106 q 492 -87 481 -87 q 517 -100 503 -87 q 545 -131 532 -112 q 567 -168 558 -150 q 576 -199 576 -186 q 556 -231 576 -211 q 509 -265 535 -250 q 465 -279 483 -279 m 333 1068 q 308 1083 319 1074 q 292 1103 296 1093 q 387 1231 346 1176 q 458 1315 428 1285 q 506 1344 488 1344 q 555 1313 525 1344 q 626 1227 585 1282 q 718 1103 667 1172 q 702 1084 713 1096 q 675 1068 692 1072 l 504 1210 l 333 1068 z "},"Ề":{"ha":961,"x_min":74,"x_max":869,"o":"m 736 0 q 647 2 701 0 q 528 8 593 4 q 395 16 463 11 q 265 26 328 21 q 153 36 203 31 q 75 47 103 42 q 79 69 75 58 q 89 85 83 79 l 129 90 q 172 106 157 94 q 192 146 186 117 q 199 231 199 175 l 199 789 q 203 851 199 828 q 215 887 208 875 q 225 900 222 899 l 90 900 q 80 914 85 906 q 74 932 75 922 q 99 952 82 942 q 135 970 117 963 q 161 978 153 978 l 732 978 q 806 944 769 965 q 864 900 842 924 q 845 756 858 817 q 822 667 832 694 q 773 672 794 667 q 740 681 751 676 l 706 876 q 638 887 679 882 q 544 896 596 892 q 439 900 493 900 q 384 884 403 900 q 360 842 365 868 q 354 789 354 817 l 354 544 q 472 548 418 546 q 573 554 526 550 q 657 563 619 558 l 672 547 q 665 492 669 517 q 656 457 660 468 l 354 457 l 354 194 q 346 136 354 161 q 329 100 338 111 l 708 100 l 789 335 q 840 326 817 335 q 869 311 863 318 q 867 223 869 269 q 860 134 864 176 q 850 64 856 92 q 817 37 839 51 q 772 11 794 22 q 736 0 750 0 m 333 1068 q 308 1083 319 1074 q 292 1103 296 1093 q 387 1231 346 1176 q 458 1315 428 1285 q 506 1344 488 1344 q 555 1313 525 1344 q 626 1227 585 1282 q 718 1103 667 1172 q 702 1084 713 1096 q 675 1068 692 1072 l 504 1210 l 333 1068 m 593 1392 l 325 1578 q 349 1618 332 1597 q 384 1653 365 1639 q 414 1668 403 1668 q 463 1638 428 1668 q 545 1554 497 1608 q 644 1426 593 1500 q 622 1406 638 1417 q 593 1392 606 1394 z "},"Ể":{"ha":961,"x_min":74,"x_max":869,"o":"m 736 0 q 647 2 701 0 q 528 8 593 4 q 395 16 463 11 q 265 26 328 21 q 153 36 203 31 q 75 47 103 42 q 79 69 75 58 q 89 85 83 79 l 129 90 q 172 106 157 94 q 192 146 186 117 q 199 231 199 175 l 199 789 q 203 851 199 828 q 215 887 208 875 q 225 900 222 899 l 90 900 q 80 914 85 906 q 74 932 75 922 q 99 952 82 942 q 135 970 117 963 q 161 978 153 978 l 732 978 q 806 944 769 965 q 864 900 842 924 q 845 756 858 817 q 822 667 832 694 q 773 672 794 667 q 740 681 751 676 l 706 876 q 638 887 679 882 q 544 896 596 892 q 439 900 493 900 q 384 884 403 900 q 360 842 365 868 q 354 789 354 817 l 354 544 q 472 548 418 546 q 573 554 526 550 q 657 563 619 558 l 672 547 q 665 492 669 517 q 656 457 660 468 l 354 457 l 354 194 q 346 136 354 161 q 329 100 338 111 l 708 100 l 789 335 q 840 326 817 335 q 869 311 863 318 q 867 223 869 269 q 860 134 864 176 q 850 64 856 92 q 817 37 839 51 q 772 11 794 22 q 736 0 750 0 m 333 1068 q 308 1083 319 1074 q 292 1103 296 1093 q 387 1231 346 1176 q 458 1315 428 1285 q 506 1344 488 1344 q 555 1313 525 1344 q 626 1227 585 1282 q 718 1103 667 1172 q 702 1084 713 1096 q 675 1068 692 1072 l 504 1210 l 333 1068 m 478 1357 q 466 1403 471 1381 q 458 1449 461 1426 q 532 1464 510 1457 q 560 1488 554 1471 q 565 1540 565 1504 q 488 1551 526 1549 q 401 1554 450 1554 q 397 1572 400 1557 q 394 1597 394 1588 q 415 1612 400 1604 q 447 1625 429 1619 q 474 1631 464 1631 q 511 1625 486 1631 q 565 1609 536 1619 q 617 1583 594 1599 q 638 1533 632 1565 q 644 1479 644 1500 q 628 1453 644 1468 q 588 1424 613 1438 q 539 1404 564 1410 l 524 1357 l 478 1357 z "},"Ễ":{"ha":961,"x_min":74,"x_max":869,"o":"m 736 0 q 647 2 701 0 q 528 8 593 4 q 395 16 463 11 q 265 26 328 21 q 153 36 203 31 q 75 47 103 42 q 79 69 75 58 q 89 85 83 79 l 129 90 q 172 106 157 94 q 192 146 186 117 q 199 231 199 175 l 199 789 q 203 851 199 828 q 215 887 208 875 q 225 900 222 899 l 90 900 q 80 914 85 906 q 74 932 75 922 q 99 952 82 942 q 135 970 117 963 q 161 978 153 978 l 732 978 q 806 944 769 965 q 864 900 842 924 q 845 756 858 817 q 822 667 832 694 q 773 672 794 667 q 740 681 751 676 l 706 876 q 638 887 679 882 q 544 896 596 892 q 439 900 493 900 q 384 884 403 900 q 360 842 365 868 q 354 789 354 817 l 354 544 q 472 548 418 546 q 573 554 526 550 q 657 563 619 558 l 672 547 q 665 492 669 517 q 656 457 660 468 l 354 457 l 354 194 q 346 136 354 161 q 329 100 338 111 l 708 100 l 789 335 q 840 326 817 335 q 869 311 863 318 q 867 223 869 269 q 860 134 864 176 q 850 64 856 92 q 817 37 839 51 q 772 11 794 22 q 736 0 750 0 m 333 1068 q 308 1083 319 1074 q 292 1103 296 1093 q 387 1231 346 1176 q 458 1315 428 1285 q 506 1344 488 1344 q 555 1313 525 1344 q 626 1227 585 1282 q 718 1103 667 1172 q 702 1084 713 1096 q 675 1068 692 1072 l 504 1210 l 333 1068 m 635 1404 q 572 1418 617 1404 q 472 1452 526 1432 q 372 1490 418 1472 l 269 1417 q 252 1426 261 1419 q 238 1446 243 1433 q 279 1510 256 1476 q 327 1566 303 1543 q 369 1589 351 1589 q 433 1576 388 1589 q 535 1544 479 1563 q 639 1508 592 1526 l 735 1596 q 758 1583 749 1590 q 772 1569 768 1576 q 728 1496 754 1535 q 678 1431 703 1457 q 635 1404 653 1404 z "},"Ȅ":{"ha":961,"x_min":74,"x_max":869,"o":"m 736 0 q 647 2 701 0 q 528 8 593 4 q 395 16 463 11 q 265 26 328 21 q 153 36 203 31 q 75 47 103 42 q 79 69 75 58 q 89 85 83 79 l 129 90 q 172 106 157 94 q 192 146 186 117 q 199 231 199 175 l 199 789 q 203 851 199 828 q 215 887 208 875 q 225 900 222 899 l 90 900 q 80 914 85 906 q 74 932 75 922 q 99 952 82 942 q 135 970 117 963 q 161 978 153 978 l 732 978 q 806 944 769 965 q 864 900 842 924 q 845 756 858 817 q 822 667 832 694 q 773 672 794 667 q 740 681 751 676 l 706 876 q 638 887 679 882 q 544 896 596 892 q 439 900 493 900 q 384 884 403 900 q 360 842 365 868 q 354 789 354 817 l 354 544 q 472 548 418 546 q 573 554 526 550 q 657 563 619 558 l 672 547 q 665 492 669 517 q 656 457 660 468 l 354 457 l 354 194 q 346 136 354 161 q 329 100 338 111 l 708 100 l 789 335 q 840 326 817 335 q 869 311 863 318 q 867 223 869 269 q 860 134 864 176 q 850 64 856 92 q 817 37 839 51 q 772 11 794 22 q 736 0 750 0 m 425 1068 l 171 1250 q 194 1291 178 1271 q 228 1324 210 1311 q 256 1338 246 1338 q 303 1307 269 1338 q 381 1224 336 1276 q 471 1101 426 1171 q 453 1083 465 1093 q 425 1068 440 1074 m 654 1068 l 399 1250 q 422 1290 406 1269 q 456 1324 438 1310 q 485 1338 474 1338 q 531 1307 497 1338 q 610 1224 565 1276 q 700 1101 656 1171 q 681 1082 694 1093 q 654 1068 667 1071 z "},"Ë":{"ha":961,"x_min":74,"x_max":869,"o":"m 736 0 q 647 2 701 0 q 528 8 593 4 q 395 16 463 11 q 265 26 328 21 q 153 36 203 31 q 75 47 103 42 q 79 69 75 58 q 89 85 83 79 l 129 90 q 172 106 157 94 q 192 146 186 117 q 199 231 199 175 l 199 789 q 203 851 199 828 q 215 887 208 875 q 225 900 222 899 l 90 900 q 80 914 85 906 q 74 932 75 922 q 99 952 82 942 q 135 970 117 963 q 161 978 153 978 l 732 978 q 806 944 769 965 q 864 900 842 924 q 845 756 858 817 q 822 667 832 694 q 773 672 794 667 q 740 681 751 676 l 706 876 q 638 887 679 882 q 544 896 596 892 q 439 900 493 900 q 384 884 403 900 q 360 842 365 868 q 354 789 354 817 l 354 544 q 472 548 418 546 q 573 554 526 550 q 657 563 619 558 l 672 547 q 665 492 669 517 q 656 457 660 468 l 354 457 l 354 194 q 346 136 354 161 q 329 100 338 111 l 708 100 l 789 335 q 840 326 817 335 q 869 311 863 318 q 867 223 869 269 q 860 134 864 176 q 850 64 856 92 q 817 37 839 51 q 772 11 794 22 q 736 0 750 0 m 643 1082 q 618 1094 633 1082 q 588 1124 603 1106 q 563 1159 572 1142 q 553 1188 553 1176 q 566 1213 553 1199 q 599 1240 579 1226 q 638 1261 619 1253 q 668 1269 657 1269 q 694 1257 679 1269 q 722 1226 708 1244 q 745 1190 736 1208 q 754 1161 754 1172 q 742 1138 754 1151 q 711 1112 729 1125 q 674 1090 693 1099 q 643 1082 656 1082 m 347 1082 q 322 1094 338 1082 q 292 1124 307 1106 q 267 1159 278 1142 q 257 1188 257 1176 q 271 1213 257 1199 q 304 1240 285 1226 q 343 1261 324 1253 q 374 1269 363 1269 q 399 1258 385 1269 q 427 1228 413 1246 q 451 1192 442 1210 q 460 1161 460 1174 q 447 1138 460 1151 q 417 1112 435 1125 q 379 1090 399 1099 q 347 1082 360 1082 z "},"Ė":{"ha":961,"x_min":74,"x_max":869,"o":"m 736 0 q 647 2 701 0 q 528 8 593 4 q 395 16 463 11 q 265 26 328 21 q 153 36 203 31 q 75 47 103 42 q 79 69 75 58 q 89 85 83 79 l 129 90 q 172 106 157 94 q 192 146 186 117 q 199 231 199 175 l 199 789 q 203 851 199 828 q 215 887 208 875 q 225 900 222 899 l 90 900 q 80 914 85 906 q 74 932 75 922 q 99 952 82 942 q 135 970 117 963 q 161 978 153 978 l 732 978 q 806 944 769 965 q 864 900 842 924 q 845 756 858 817 q 822 667 832 694 q 773 672 794 667 q 740 681 751 676 l 706 876 q 638 887 679 882 q 544 896 596 892 q 439 900 493 900 q 384 884 403 900 q 360 842 365 868 q 354 789 354 817 l 354 544 q 472 548 418 546 q 573 554 526 550 q 657 563 619 558 l 672 547 q 665 492 669 517 q 656 457 660 468 l 354 457 l 354 194 q 346 136 354 161 q 329 100 338 111 l 708 100 l 789 335 q 840 326 817 335 q 869 311 863 318 q 867 223 869 269 q 860 134 864 176 q 850 64 856 92 q 817 37 839 51 q 772 11 794 22 q 736 0 750 0 m 493 1110 q 467 1123 483 1110 q 435 1155 450 1136 q 408 1192 419 1174 q 397 1224 397 1211 q 412 1250 397 1235 q 447 1279 426 1265 q 488 1302 468 1293 q 521 1311 508 1311 q 547 1298 532 1311 q 577 1265 563 1285 q 601 1226 592 1246 q 611 1194 611 1207 q 598 1170 611 1185 q 565 1142 585 1156 q 526 1119 546 1128 q 493 1110 507 1110 z "},"Ẹ":{"ha":961,"x_min":74,"x_max":869,"o":"m 736 0 q 647 2 701 0 q 528 8 593 4 q 395 16 463 11 q 265 26 328 21 q 153 36 203 31 q 75 47 103 42 q 79 69 75 58 q 89 85 83 79 l 129 90 q 172 106 157 94 q 192 146 186 117 q 199 231 199 175 l 199 789 q 203 851 199 828 q 215 887 208 875 q 225 900 222 899 l 90 900 q 80 914 85 906 q 74 932 75 922 q 99 952 82 942 q 135 970 117 963 q 161 978 153 978 l 732 978 q 806 944 769 965 q 864 900 842 924 q 845 756 858 817 q 822 667 832 694 q 773 672 794 667 q 740 681 751 676 l 706 876 q 638 887 679 882 q 544 896 596 892 q 439 900 493 900 q 384 884 403 900 q 360 842 365 868 q 354 789 354 817 l 354 544 q 472 548 418 546 q 573 554 526 550 q 657 563 619 558 l 672 547 q 665 492 669 517 q 656 457 660 468 l 354 457 l 354 194 q 346 136 354 161 q 329 100 338 111 l 708 100 l 789 335 q 840 326 817 335 q 869 311 863 318 q 867 223 869 269 q 860 134 864 176 q 850 64 856 92 q 817 37 839 51 q 772 11 794 22 q 736 0 750 0 m 465 -279 q 440 -267 456 -279 q 410 -236 425 -254 q 386 -200 396 -218 q 376 -171 376 -182 q 390 -146 376 -160 q 422 -119 403 -132 q 461 -97 442 -106 q 492 -87 481 -87 q 517 -100 503 -87 q 545 -131 532 -112 q 567 -168 558 -150 q 576 -199 576 -186 q 556 -231 576 -211 q 509 -265 535 -250 q 465 -279 483 -279 z "},"È":{"ha":961,"x_min":74,"x_max":869,"o":"m 736 0 q 647 2 701 0 q 528 8 593 4 q 395 16 463 11 q 265 26 328 21 q 153 36 203 31 q 75 47 103 42 q 79 69 75 58 q 89 85 83 79 l 129 90 q 172 106 157 94 q 192 146 186 117 q 199 231 199 175 l 199 789 q 203 851 199 828 q 215 887 208 875 q 225 900 222 899 l 90 900 q 80 914 85 906 q 74 932 75 922 q 99 952 82 942 q 135 970 117 963 q 161 978 153 978 l 732 978 q 806 944 769 965 q 864 900 842 924 q 845 756 858 817 q 822 667 832 694 q 773 672 794 667 q 740 681 751 676 l 706 876 q 638 887 679 882 q 544 896 596 892 q 439 900 493 900 q 384 884 403 900 q 360 842 365 868 q 354 789 354 817 l 354 544 q 472 548 418 546 q 573 554 526 550 q 657 563 619 558 l 672 547 q 665 492 669 517 q 656 457 660 468 l 354 457 l 354 194 q 346 136 354 161 q 329 100 338 111 l 708 100 l 789 335 q 840 326 817 335 q 869 311 863 318 q 867 223 869 269 q 860 134 864 176 q 850 64 856 92 q 817 37 839 51 q 772 11 794 22 q 736 0 750 0 m 593 1068 l 325 1254 q 349 1294 332 1274 q 384 1330 365 1315 q 414 1344 403 1344 q 463 1315 428 1344 q 545 1231 497 1285 q 644 1103 593 1176 q 622 1082 638 1093 q 593 1068 606 1071 z "},"Ẻ":{"ha":961,"x_min":74,"x_max":869,"o":"m 736 0 q 647 2 701 0 q 528 8 593 4 q 395 16 463 11 q 265 26 328 21 q 153 36 203 31 q 75 47 103 42 q 79 69 75 58 q 89 85 83 79 l 129 90 q 172 106 157 94 q 192 146 186 117 q 199 231 199 175 l 199 789 q 203 851 199 828 q 215 887 208 875 q 225 900 222 899 l 90 900 q 80 914 85 906 q 74 932 75 922 q 99 952 82 942 q 135 970 117 963 q 161 978 153 978 l 732 978 q 806 944 769 965 q 864 900 842 924 q 845 756 858 817 q 822 667 832 694 q 773 672 794 667 q 740 681 751 676 l 706 876 q 638 887 679 882 q 544 896 596 892 q 439 900 493 900 q 384 884 403 900 q 360 842 365 868 q 354 789 354 817 l 354 544 q 472 548 418 546 q 573 554 526 550 q 657 563 619 558 l 672 547 q 665 492 669 517 q 656 457 660 468 l 354 457 l 354 194 q 346 136 354 161 q 329 100 338 111 l 708 100 l 789 335 q 840 326 817 335 q 869 311 863 318 q 867 223 869 269 q 860 134 864 176 q 850 64 856 92 q 817 37 839 51 q 772 11 794 22 q 736 0 750 0 m 478 1033 q 466 1080 471 1057 q 458 1125 461 1103 q 532 1140 510 1133 q 560 1164 554 1147 q 565 1217 565 1181 q 488 1228 526 1225 q 401 1231 450 1231 q 397 1249 400 1233 q 394 1274 394 1264 q 415 1288 400 1281 q 447 1301 429 1296 q 474 1307 464 1307 q 511 1301 486 1307 q 565 1285 536 1296 q 617 1260 594 1275 q 638 1209 632 1242 q 644 1156 644 1176 q 628 1129 644 1144 q 588 1100 613 1114 q 539 1081 564 1086 l 524 1033 l 478 1033 z "},"Ȇ":{"ha":961,"x_min":74,"x_max":869,"o":"m 736 0 q 647 2 701 0 q 528 8 593 4 q 395 16 463 11 q 265 26 328 21 q 153 36 203 31 q 75 47 103 42 q 79 69 75 58 q 89 85 83 79 l 129 90 q 172 106 157 94 q 192 146 186 117 q 199 231 199 175 l 199 789 q 203 851 199 828 q 215 887 208 875 q 225 900 222 899 l 90 900 q 80 914 85 906 q 74 932 75 922 q 99 952 82 942 q 135 970 117 963 q 161 978 153 978 l 732 978 q 806 944 769 965 q 864 900 842 924 q 845 756 858 817 q 822 667 832 694 q 773 672 794 667 q 740 681 751 676 l 706 876 q 638 887 679 882 q 544 896 596 892 q 439 900 493 900 q 384 884 403 900 q 360 842 365 868 q 354 789 354 817 l 354 544 q 472 548 418 546 q 573 554 526 550 q 657 563 619 558 l 672 547 q 665 492 669 517 q 656 457 660 468 l 354 457 l 354 194 q 346 136 354 161 q 329 100 338 111 l 708 100 l 789 335 q 840 326 817 335 q 869 311 863 318 q 867 223 869 269 q 860 134 864 176 q 850 64 856 92 q 817 37 839 51 q 772 11 794 22 q 736 0 750 0 m 504 1257 q 631 1212 590 1257 q 681 1090 671 1167 q 656 1082 674 1086 q 614 1078 639 1078 q 579 1149 604 1131 q 504 1167 554 1167 q 430 1149 454 1167 q 394 1078 406 1131 q 355 1082 372 1078 q 329 1090 338 1086 q 377 1210 338 1163 q 504 1257 417 1257 z "},"Ē":{"ha":961,"x_min":74,"x_max":869,"o":"m 736 0 q 647 2 701 0 q 528 8 593 4 q 395 16 463 11 q 265 26 328 21 q 153 36 203 31 q 75 47 103 42 q 79 69 75 58 q 89 85 83 79 l 129 90 q 172 106 157 94 q 192 146 186 117 q 199 231 199 175 l 199 789 q 203 851 199 828 q 215 887 208 875 q 225 900 222 899 l 90 900 q 80 914 85 906 q 74 932 75 922 q 99 952 82 942 q 135 970 117 963 q 161 978 153 978 l 732 978 q 806 944 769 965 q 864 900 842 924 q 845 756 858 817 q 822 667 832 694 q 773 672 794 667 q 740 681 751 676 l 706 876 q 638 887 679 882 q 544 896 596 892 q 439 900 493 900 q 384 884 403 900 q 360 842 365 868 q 354 789 354 817 l 354 544 q 472 548 418 546 q 573 554 526 550 q 657 563 619 558 l 672 547 q 665 492 669 517 q 656 457 660 468 l 354 457 l 354 194 q 346 136 354 161 q 329 100 338 111 l 708 100 l 789 335 q 840 326 817 335 q 869 311 863 318 q 867 223 869 269 q 860 134 864 176 q 850 64 856 92 q 817 37 839 51 q 772 11 794 22 q 736 0 750 0 m 278 1089 q 283 1144 278 1121 q 294 1172 289 1167 q 401 1174 339 1172 q 526 1180 463 1176 q 642 1187 590 1183 q 718 1192 693 1190 l 733 1179 q 726 1124 732 1149 q 717 1089 721 1100 l 278 1089 z "},"Ę":{"ha":961,"x_min":74,"x_max":869,"o":"m 736 0 q 647 2 701 0 q 528 8 593 4 q 395 16 463 11 q 265 26 328 21 q 153 36 203 31 q 75 47 103 42 q 79 69 75 58 q 89 85 83 79 l 129 90 q 172 106 157 94 q 192 146 186 117 q 199 231 199 175 l 199 789 q 203 851 199 828 q 215 887 208 875 q 225 900 222 899 l 90 900 q 80 914 85 906 q 74 932 75 922 q 99 952 82 942 q 135 970 117 963 q 161 978 153 978 l 732 978 q 806 944 769 965 q 864 900 842 924 q 845 756 858 817 q 822 667 832 694 q 773 672 794 667 q 740 681 751 676 l 706 876 q 638 887 679 882 q 544 896 596 892 q 439 900 493 900 q 384 884 403 900 q 360 842 365 868 q 354 789 354 817 l 354 544 q 472 548 418 546 q 573 554 526 550 q 657 563 619 558 l 672 547 q 665 492 669 517 q 656 457 660 468 l 354 457 l 354 194 q 346 136 354 161 q 329 100 338 111 l 708 100 l 789 335 q 840 326 817 335 q 869 311 863 318 q 867 223 869 269 q 860 134 864 176 q 850 64 856 92 q 817 37 839 51 q 772 11 794 22 q 736 0 750 0 m 718 -278 q 688 -270 710 -278 q 638 -249 665 -262 q 588 -217 611 -235 q 556 -179 565 -199 q 574 -106 556 -142 q 622 -37 592 -69 q 688 19 653 -6 l 792 21 q 726 -37 753 -4 q 686 -99 700 -71 q 672 -139 672 -126 q 747 -183 700 -169 q 844 -197 793 -197 q 851 -210 847 -201 q 856 -225 856 -218 q 793 -262 836 -247 q 718 -278 750 -278 z "},"Ẽ":{"ha":961,"x_min":74,"x_max":869,"o":"m 736 0 q 647 2 701 0 q 528 8 593 4 q 395 16 463 11 q 265 26 328 21 q 153 36 203 31 q 75 47 103 42 q 79 69 75 58 q 89 85 83 79 l 129 90 q 172 106 157 94 q 192 146 186 117 q 199 231 199 175 l 199 789 q 203 851 199 828 q 215 887 208 875 q 225 900 222 899 l 90 900 q 80 914 85 906 q 74 932 75 922 q 99 952 82 942 q 135 970 117 963 q 161 978 153 978 l 732 978 q 806 944 769 965 q 864 900 842 924 q 845 756 858 817 q 822 667 832 694 q 773 672 794 667 q 740 681 751 676 l 706 876 q 638 887 679 882 q 544 896 596 892 q 439 900 493 900 q 384 884 403 900 q 360 842 365 868 q 354 789 354 817 l 354 544 q 472 548 418 546 q 573 554 526 550 q 657 563 619 558 l 672 547 q 665 492 669 517 q 656 457 660 468 l 354 457 l 354 194 q 346 136 354 161 q 329 100 338 111 l 708 100 l 789 335 q 840 326 817 335 q 869 311 863 318 q 867 223 869 269 q 860 134 864 176 q 850 64 856 92 q 817 37 839 51 q 772 11 794 22 q 736 0 750 0 m 635 1081 q 572 1094 617 1081 q 472 1128 526 1108 q 372 1167 418 1149 l 269 1093 q 252 1103 261 1096 q 238 1122 243 1110 q 279 1186 256 1153 q 327 1242 303 1219 q 369 1265 351 1265 q 433 1252 388 1265 q 535 1221 479 1239 q 639 1185 592 1203 l 735 1272 q 758 1260 749 1267 q 772 1246 768 1253 q 728 1172 754 1211 q 678 1107 703 1133 q 635 1081 653 1081 z "},"F":{"ha":892,"x_min":74,"x_max":851,"o":"m 371 0 q 331 3 361 0 q 263 13 301 7 q 186 24 225 18 q 117 37 147 31 q 75 47 88 43 q 79 69 75 58 q 89 85 83 79 l 129 90 q 169 103 154 94 q 192 142 185 113 q 199 232 199 171 l 199 789 q 203 851 199 828 q 215 887 208 875 q 225 900 222 899 l 90 900 q 80 914 85 906 q 74 932 75 922 q 99 952 82 942 q 135 970 117 963 q 161 978 153 978 l 719 978 q 794 944 757 965 q 851 900 831 924 q 833 759 846 824 q 811 667 821 694 q 763 671 786 667 q 728 681 739 675 l 693 876 q 588 892 657 885 q 439 900 518 900 q 369 866 383 900 q 354 788 354 832 l 354 531 q 473 534 418 532 q 576 540 528 536 q 664 549 624 544 l 678 533 q 671 476 676 499 q 661 443 665 454 l 354 443 l 354 193 q 346 133 354 158 q 329 99 338 108 l 476 82 q 484 68 481 78 q 488 47 488 58 q 434 15 469 31 q 371 0 399 0 z "},"G":{"ha":1024,"x_min":94,"x_max":910,"o":"m 511 0 q 415 15 468 0 q 310 52 361 29 q 220 99 260 75 q 164 142 181 124 q 111 266 128 183 q 94 442 94 349 q 103 606 94 525 q 126 751 113 686 q 154 847 140 815 q 234 901 186 874 q 340 950 282 928 q 455 986 397 972 q 563 1000 513 1000 q 672 988 615 1000 q 781 955 729 975 q 865 910 832 935 q 849 761 860 825 q 828 665 838 697 q 772 672 793 667 q 742 681 750 676 l 706 854 q 658 872 689 863 q 597 888 628 882 q 543 894 565 894 q 468 888 513 894 q 381 868 424 881 q 310 840 338 856 q 288 772 297 811 q 272 686 278 732 q 262 593 265 640 q 258 501 258 546 q 264 383 258 440 q 281 280 269 326 q 306 203 292 233 q 348 173 319 189 q 413 142 376 157 q 483 118 449 128 q 542 108 517 108 q 617 113 581 108 q 686 126 654 118 q 740 140 718 133 l 740 269 q 746 348 740 311 q 757 403 751 385 l 543 403 q 551 456 543 429 q 565 494 558 483 q 680 497 619 494 q 797 504 740 500 q 896 513 854 508 l 910 499 q 894 376 903 458 q 886 197 886 293 l 886 86 q 826 59 865 74 q 734 31 786 44 q 625 8 682 17 q 511 0 568 0 z "},"Ğ":{"ha":1024,"x_min":94,"x_max":910,"o":"m 511 0 q 415 15 468 0 q 310 52 361 29 q 220 99 260 75 q 164 142 181 124 q 111 266 128 183 q 94 442 94 349 q 103 606 94 525 q 126 751 113 686 q 154 847 140 815 q 234 901 186 874 q 340 950 282 928 q 455 986 397 972 q 563 1000 513 1000 q 672 988 615 1000 q 781 955 729 975 q 865 910 832 935 q 849 761 860 825 q 828 665 838 697 q 772 672 793 667 q 742 681 750 676 l 706 854 q 658 872 689 863 q 597 888 628 882 q 543 894 565 894 q 468 888 513 894 q 381 868 424 881 q 310 840 338 856 q 288 772 297 811 q 272 686 278 732 q 262 593 265 640 q 258 501 258 546 q 264 383 258 440 q 281 280 269 326 q 306 203 292 233 q 348 173 319 189 q 413 142 376 157 q 483 118 449 128 q 542 108 517 108 q 617 113 581 108 q 686 126 654 118 q 740 140 718 133 l 740 269 q 746 348 740 311 q 757 403 751 385 l 543 403 q 551 456 543 429 q 565 494 558 483 q 680 497 619 494 q 797 504 740 500 q 896 513 854 508 l 910 499 q 894 376 903 458 q 886 197 886 293 l 886 86 q 826 59 865 74 q 734 31 786 44 q 625 8 682 17 q 511 0 568 0 m 526 1085 q 392 1133 435 1085 q 342 1254 350 1181 q 371 1263 351 1258 q 413 1267 390 1267 q 449 1197 424 1215 q 526 1179 475 1179 q 604 1197 578 1179 q 640 1267 631 1215 q 685 1263 667 1267 q 713 1254 704 1258 q 658 1129 703 1174 q 526 1085 614 1085 z "},"Ǧ":{"ha":1024,"x_min":94,"x_max":910,"o":"m 511 0 q 415 15 468 0 q 310 52 361 29 q 220 99 260 75 q 164 142 181 124 q 111 266 128 183 q 94 442 94 349 q 103 606 94 525 q 126 751 113 686 q 154 847 140 815 q 234 901 186 874 q 340 950 282 928 q 455 986 397 972 q 563 1000 513 1000 q 672 988 615 1000 q 781 955 729 975 q 865 910 832 935 q 849 761 860 825 q 828 665 838 697 q 772 672 793 667 q 742 681 750 676 l 706 854 q 658 872 689 863 q 597 888 628 882 q 543 894 565 894 q 468 888 513 894 q 381 868 424 881 q 310 840 338 856 q 288 772 297 811 q 272 686 278 732 q 262 593 265 640 q 258 501 258 546 q 264 383 258 440 q 281 280 269 326 q 306 203 292 233 q 348 173 319 189 q 413 142 376 157 q 483 118 449 128 q 542 108 517 108 q 617 113 581 108 q 686 126 654 118 q 740 140 718 133 l 740 269 q 746 348 740 311 q 757 403 751 385 l 543 403 q 551 456 543 429 q 565 494 558 483 q 680 497 619 494 q 797 504 740 500 q 896 513 854 508 l 910 499 q 894 376 903 458 q 886 197 886 293 l 886 86 q 826 59 865 74 q 734 31 786 44 q 625 8 682 17 q 511 0 568 0 m 528 1068 q 478 1100 508 1068 q 406 1186 447 1132 q 314 1308 365 1240 q 332 1331 319 1319 q 357 1344 344 1342 l 529 1203 l 697 1344 q 722 1331 710 1340 q 740 1310 735 1321 q 647 1184 688 1239 q 577 1099 607 1129 q 528 1068 547 1068 z "},"Ĝ":{"ha":1024,"x_min":94,"x_max":910,"o":"m 511 0 q 415 15 468 0 q 310 52 361 29 q 220 99 260 75 q 164 142 181 124 q 111 266 128 183 q 94 442 94 349 q 103 606 94 525 q 126 751 113 686 q 154 847 140 815 q 234 901 186 874 q 340 950 282 928 q 455 986 397 972 q 563 1000 513 1000 q 672 988 615 1000 q 781 955 729 975 q 865 910 832 935 q 849 761 860 825 q 828 665 838 697 q 772 672 793 667 q 742 681 750 676 l 706 854 q 658 872 689 863 q 597 888 628 882 q 543 894 565 894 q 468 888 513 894 q 381 868 424 881 q 310 840 338 856 q 288 772 297 811 q 272 686 278 732 q 262 593 265 640 q 258 501 258 546 q 264 383 258 440 q 281 280 269 326 q 306 203 292 233 q 348 173 319 189 q 413 142 376 157 q 483 118 449 128 q 542 108 517 108 q 617 113 581 108 q 686 126 654 118 q 740 140 718 133 l 740 269 q 746 348 740 311 q 757 403 751 385 l 543 403 q 551 456 543 429 q 565 494 558 483 q 680 497 619 494 q 797 504 740 500 q 896 513 854 508 l 910 499 q 894 376 903 458 q 886 197 886 293 l 886 86 q 826 59 865 74 q 734 31 786 44 q 625 8 682 17 q 511 0 568 0 m 356 1068 q 330 1083 342 1074 q 314 1103 318 1093 q 409 1231 368 1176 q 480 1315 450 1285 q 528 1344 510 1344 q 577 1313 547 1344 q 648 1227 607 1282 q 740 1103 689 1172 q 724 1084 735 1096 q 697 1068 714 1072 l 526 1210 l 356 1068 z "},"Ģ":{"ha":1024,"x_min":94,"x_max":910,"o":"m 511 0 q 415 15 468 0 q 310 52 361 29 q 220 99 260 75 q 164 142 181 124 q 111 266 128 183 q 94 442 94 349 q 103 606 94 525 q 126 751 113 686 q 154 847 140 815 q 234 901 186 874 q 340 950 282 928 q 455 986 397 972 q 563 1000 513 1000 q 672 988 615 1000 q 781 955 729 975 q 865 910 832 935 q 849 761 860 825 q 828 665 838 697 q 772 672 793 667 q 742 681 750 676 l 706 854 q 658 872 689 863 q 597 888 628 882 q 543 894 565 894 q 468 888 513 894 q 381 868 424 881 q 310 840 338 856 q 288 772 297 811 q 272 686 278 732 q 262 593 265 640 q 258 501 258 546 q 264 383 258 440 q 281 280 269 326 q 306 203 292 233 q 348 173 319 189 q 413 142 376 157 q 483 118 449 128 q 542 108 517 108 q 617 113 581 108 q 686 126 654 118 q 740 140 718 133 l 740 269 q 746 348 740 311 q 757 403 751 385 l 543 403 q 551 456 543 429 q 565 494 558 483 q 680 497 619 494 q 797 504 740 500 q 896 513 854 508 l 910 499 q 894 376 903 458 q 886 197 886 293 l 886 86 q 826 59 865 74 q 734 31 786 44 q 625 8 682 17 q 511 0 568 0 m 489 -353 q 452 -341 468 -353 q 429 -319 436 -329 q 480 -283 453 -307 q 519 -232 507 -260 l 539 -265 q 504 -253 525 -265 q 464 -222 483 -240 q 431 -182 444 -203 q 418 -144 418 -161 q 431 -119 418 -133 q 464 -93 444 -106 q 502 -72 483 -81 q 532 -62 521 -62 q 557 -75 543 -62 q 584 -106 571 -87 q 606 -142 597 -124 q 615 -172 615 -161 q 599 -210 615 -182 q 559 -272 582 -239 q 516 -329 536 -306 q 489 -353 496 -353 z "},"Ġ":{"ha":1024,"x_min":94,"x_max":910,"o":"m 511 0 q 415 15 468 0 q 310 52 361 29 q 220 99 260 75 q 164 142 181 124 q 111 266 128 183 q 94 442 94 349 q 103 606 94 525 q 126 751 113 686 q 154 847 140 815 q 234 901 186 874 q 340 950 282 928 q 455 986 397 972 q 563 1000 513 1000 q 672 988 615 1000 q 781 955 729 975 q 865 910 832 935 q 849 761 860 825 q 828 665 838 697 q 772 672 793 667 q 742 681 750 676 l 706 854 q 658 872 689 863 q 597 888 628 882 q 543 894 565 894 q 468 888 513 894 q 381 868 424 881 q 310 840 338 856 q 288 772 297 811 q 272 686 278 732 q 262 593 265 640 q 258 501 258 546 q 264 383 258 440 q 281 280 269 326 q 306 203 292 233 q 348 173 319 189 q 413 142 376 157 q 483 118 449 128 q 542 108 517 108 q 617 113 581 108 q 686 126 654 118 q 740 140 718 133 l 740 269 q 746 348 740 311 q 757 403 751 385 l 543 403 q 551 456 543 429 q 565 494 558 483 q 680 497 619 494 q 797 504 740 500 q 896 513 854 508 l 910 499 q 894 376 903 458 q 886 197 886 293 l 886 86 q 826 59 865 74 q 734 31 786 44 q 625 8 682 17 q 511 0 568 0 m 515 1110 q 489 1123 506 1110 q 457 1155 472 1136 q 431 1192 442 1174 q 419 1224 419 1211 q 434 1250 419 1235 q 469 1279 449 1265 q 510 1302 490 1293 q 543 1311 531 1311 q 569 1298 554 1311 q 599 1265 585 1285 q 624 1226 614 1246 q 633 1194 633 1207 q 620 1170 633 1185 q 588 1142 607 1156 q 549 1119 568 1128 q 515 1110 529 1110 z "},"H":{"ha":1154,"x_min":74,"x_max":1081,"o":"m 371 0 q 331 3 361 0 q 263 13 301 7 q 186 24 225 18 q 117 37 147 31 q 75 47 88 43 q 79 69 75 58 q 89 85 83 79 l 129 90 q 169 103 154 94 q 192 142 185 113 q 199 232 199 171 l 199 789 q 209 869 199 844 q 225 900 219 894 l 90 900 q 82 912 88 906 q 74 932 76 918 q 99 952 82 942 q 135 970 117 963 q 161 978 153 978 l 468 978 q 481 956 475 971 q 486 925 486 942 l 425 907 q 381 885 396 899 q 360 848 365 871 q 354 788 354 825 l 354 550 q 470 551 408 550 q 592 554 532 553 q 705 558 653 556 q 793 563 757 561 l 793 789 q 803 867 793 840 q 819 900 813 894 l 685 900 q 675 914 681 906 q 669 932 669 922 q 694 952 676 942 q 729 970 711 963 q 756 978 747 978 l 1063 978 q 1075 957 1069 971 q 1081 925 1081 943 l 1019 907 q 977 888 993 900 q 955 852 961 875 q 949 788 949 829 l 949 193 q 941 134 949 158 q 924 99 933 110 l 1068 82 q 1074 71 1071 81 q 1078 47 1078 61 q 1024 15 1057 29 q 965 0 992 0 q 926 3 956 0 q 858 13 896 7 q 781 24 819 18 q 711 37 742 31 q 669 47 681 43 q 674 69 669 58 q 683 85 678 79 l 724 90 q 764 103 749 94 q 786 142 779 113 q 793 232 793 171 l 793 461 l 354 461 l 354 193 q 346 133 354 158 q 329 99 338 108 l 474 82 q 480 68 476 79 q 483 47 483 57 q 429 15 463 29 q 371 0 396 0 z "},"Ħ":{"ha":1154,"x_min":74,"x_max":1081,"o":"m 371 0 q 331 3 361 0 q 263 13 301 7 q 186 24 225 18 q 117 37 147 31 q 75 47 88 43 q 79 69 75 58 q 89 85 83 79 l 129 90 q 169 103 154 94 q 192 142 185 113 q 199 232 199 171 l 199 789 q 209 869 199 844 q 225 900 219 894 l 90 900 q 82 912 88 906 q 74 932 76 918 q 99 952 82 942 q 135 970 117 963 q 161 978 153 978 l 468 978 q 481 956 475 971 q 486 925 486 942 l 425 907 q 381 885 396 899 q 360 848 365 871 q 354 788 354 825 l 354 550 q 470 551 408 550 q 592 554 532 553 q 705 558 653 556 q 793 563 757 561 l 793 789 q 803 867 793 840 q 819 900 813 894 l 685 900 q 675 914 681 906 q 669 932 669 922 q 694 952 676 942 q 729 970 711 963 q 756 978 747 978 l 1063 978 q 1075 957 1069 971 q 1081 925 1081 943 l 1019 907 q 977 888 993 900 q 955 852 961 875 q 949 788 949 829 l 949 193 q 941 134 949 158 q 924 99 933 110 l 1068 82 q 1074 71 1071 81 q 1078 47 1078 61 q 1024 15 1057 29 q 965 0 992 0 q 926 3 956 0 q 858 13 896 7 q 781 24 819 18 q 711 37 742 31 q 669 47 681 43 q 674 69 669 58 q 683 85 678 79 l 724 90 q 764 103 749 94 q 786 142 779 113 q 793 232 793 171 l 793 461 l 354 461 l 354 193 q 346 133 354 158 q 329 99 338 108 l 474 82 q 480 68 476 79 q 483 47 483 57 q 429 15 463 29 q 371 0 396 0 m 83 693 q 88 742 83 726 q 99 763 93 758 q 206 763 139 763 q 354 765 272 764 q 525 769 436 767 q 699 773 614 771 q 858 777 785 775 q 984 781 932 779 q 1057 785 1036 783 l 1074 768 q 1067 720 1072 738 q 1058 693 1063 703 l 83 693 z "},"Ĥ":{"ha":1154,"x_min":74,"x_max":1081,"o":"m 371 0 q 331 3 361 0 q 263 13 301 7 q 186 24 225 18 q 117 37 147 31 q 75 47 88 43 q 79 69 75 58 q 89 85 83 79 l 129 90 q 169 103 154 94 q 192 142 185 113 q 199 232 199 171 l 199 789 q 209 869 199 844 q 225 900 219 894 l 90 900 q 82 912 88 906 q 74 932 76 918 q 99 952 82 942 q 135 970 117 963 q 161 978 153 978 l 468 978 q 481 956 475 971 q 486 925 486 942 l 425 907 q 381 885 396 899 q 360 848 365 871 q 354 788 354 825 l 354 550 q 470 551 408 550 q 592 554 532 553 q 705 558 653 556 q 793 563 757 561 l 793 789 q 803 867 793 840 q 819 900 813 894 l 685 900 q 675 914 681 906 q 669 932 669 922 q 694 952 676 942 q 729 970 711 963 q 756 978 747 978 l 1063 978 q 1075 957 1069 971 q 1081 925 1081 943 l 1019 907 q 977 888 993 900 q 955 852 961 875 q 949 788 949 829 l 949 193 q 941 134 949 158 q 924 99 933 110 l 1068 82 q 1074 71 1071 81 q 1078 47 1078 61 q 1024 15 1057 29 q 965 0 992 0 q 926 3 956 0 q 858 13 896 7 q 781 24 819 18 q 711 37 742 31 q 669 47 681 43 q 674 69 669 58 q 683 85 678 79 l 724 90 q 764 103 749 94 q 786 142 779 113 q 793 232 793 171 l 793 461 l 354 461 l 354 193 q 346 133 354 158 q 329 99 338 108 l 474 82 q 480 68 476 79 q 483 47 483 57 q 429 15 463 29 q 371 0 396 0 m 406 1068 q 380 1083 392 1074 q 364 1103 368 1093 q 459 1231 418 1176 q 530 1315 500 1285 q 578 1344 560 1344 q 627 1313 597 1344 q 698 1227 657 1282 q 790 1103 739 1172 q 774 1084 785 1096 q 747 1068 764 1072 l 576 1210 l 406 1068 z "},"I":{"ha":560,"x_min":74,"x_max":486,"o":"m 371 0 q 331 3 361 0 q 263 13 301 7 q 186 24 225 18 q 117 37 147 31 q 75 47 88 43 q 79 69 75 58 q 89 85 83 79 l 129 90 q 172 106 157 94 q 192 146 186 117 q 199 231 199 175 l 199 792 q 210 878 199 857 q 225 900 222 899 l 90 900 q 82 912 88 906 q 74 932 76 918 q 99 952 82 942 q 135 970 117 963 q 161 978 153 978 l 468 978 q 481 956 475 971 q 486 925 486 942 l 425 907 q 381 885 396 899 q 360 848 365 871 q 354 788 354 825 l 354 193 q 346 133 354 158 q 329 99 338 108 l 474 82 q 480 68 476 79 q 483 47 483 57 q 429 15 463 29 q 371 0 396 0 z "},"Ĳ":{"ha":1107,"x_min":74,"x_max":1043,"o":"m 371 0 q 331 3 361 0 q 263 13 301 7 q 186 24 225 18 q 117 37 147 31 q 75 47 88 43 q 79 69 75 58 q 89 85 83 79 l 129 90 q 172 106 157 94 q 192 146 186 117 q 199 231 199 175 l 199 792 q 210 878 199 857 q 225 900 222 899 l 90 900 q 82 912 88 906 q 74 932 76 918 q 99 952 82 942 q 135 970 117 963 q 161 978 153 978 l 468 978 q 481 956 475 971 q 486 925 486 942 l 425 907 q 381 885 396 899 q 360 848 365 871 q 354 788 354 825 l 354 193 q 346 133 354 158 q 329 99 338 108 l 474 82 q 480 68 476 79 q 483 47 483 57 q 429 15 463 29 q 371 0 396 0 m 650 -278 q 574 -263 618 -278 q 506 -231 531 -249 q 509 -208 506 -218 q 517 -192 513 -197 q 654 -138 592 -171 q 757 -75 717 -106 l 757 789 q 766 868 757 842 q 783 900 775 894 l 633 900 q 623 915 628 907 q 617 932 618 922 q 642 952 625 942 q 677 970 660 963 q 703 978 694 978 l 1025 978 q 1038 957 1032 972 q 1043 925 1043 942 l 982 907 q 941 888 957 900 q 918 853 925 876 q 911 788 911 831 l 911 -17 q 865 -103 897 -58 q 791 -188 832 -149 q 712 -253 750 -228 q 650 -278 674 -278 z "},"Í":{"ha":560,"x_min":74,"x_max":486,"o":"m 371 0 q 331 3 361 0 q 263 13 301 7 q 186 24 225 18 q 117 37 147 31 q 75 47 88 43 q 79 69 75 58 q 89 85 83 79 l 129 90 q 172 106 157 94 q 192 146 186 117 q 199 231 199 175 l 199 792 q 210 878 199 857 q 225 900 222 899 l 90 900 q 82 912 88 906 q 74 932 76 918 q 99 952 82 942 q 135 970 117 963 q 161 978 153 978 l 468 978 q 481 956 475 971 q 486 925 486 942 l 425 907 q 381 885 396 899 q 360 848 365 871 q 354 788 354 825 l 354 193 q 346 133 354 158 q 329 99 338 108 l 474 82 q 480 68 476 79 q 483 47 483 57 q 429 15 463 29 q 371 0 396 0 m 183 1068 q 152 1085 165 1074 q 133 1103 139 1096 q 231 1229 183 1175 q 313 1314 278 1283 q 363 1344 349 1344 q 392 1331 374 1344 q 428 1296 411 1317 q 453 1254 446 1275 l 183 1068 z "},"Ĭ":{"ha":560,"x_min":74,"x_max":486,"o":"m 371 0 q 331 3 361 0 q 263 13 301 7 q 186 24 225 18 q 117 37 147 31 q 75 47 88 43 q 79 69 75 58 q 89 85 83 79 l 129 90 q 172 106 157 94 q 192 146 186 117 q 199 231 199 175 l 199 792 q 210 878 199 857 q 225 900 222 899 l 90 900 q 82 912 88 906 q 74 932 76 918 q 99 952 82 942 q 135 970 117 963 q 161 978 153 978 l 468 978 q 481 956 475 971 q 486 925 486 942 l 425 907 q 381 885 396 899 q 360 848 365 871 q 354 788 354 825 l 354 193 q 346 133 354 158 q 329 99 338 108 l 474 82 q 480 68 476 79 q 483 47 483 57 q 429 15 463 29 q 371 0 396 0 m 279 1085 q 145 1133 188 1085 q 94 1254 103 1181 q 124 1263 104 1258 q 165 1267 143 1267 q 202 1197 176 1215 q 279 1179 228 1179 q 357 1197 331 1179 q 393 1267 383 1215 q 438 1263 419 1267 q 465 1254 457 1258 q 411 1129 456 1174 q 279 1085 367 1085 z "},"Ǐ":{"ha":560,"x_min":67,"x_max":493,"o":"m 371 0 q 331 3 361 0 q 263 13 301 7 q 186 24 225 18 q 117 37 147 31 q 75 47 88 43 q 79 69 75 58 q 89 85 83 79 l 129 90 q 172 106 157 94 q 192 146 186 117 q 199 231 199 175 l 199 792 q 210 878 199 857 q 225 900 222 899 l 90 900 q 82 912 88 906 q 74 932 76 918 q 99 952 82 942 q 135 970 117 963 q 161 978 153 978 l 468 978 q 481 956 475 971 q 486 925 486 942 l 425 907 q 381 885 396 899 q 360 848 365 871 q 354 788 354 825 l 354 193 q 346 133 354 158 q 329 99 338 108 l 474 82 q 480 68 476 79 q 483 47 483 57 q 429 15 463 29 q 371 0 396 0 m 281 1068 q 231 1100 261 1068 q 159 1186 200 1132 q 67 1308 118 1240 q 85 1331 72 1319 q 110 1344 97 1342 l 282 1203 l 450 1344 q 475 1331 463 1340 q 493 1310 488 1321 q 400 1184 440 1239 q 330 1099 360 1129 q 281 1068 300 1068 z "},"Î":{"ha":560,"x_min":67,"x_max":493,"o":"m 371 0 q 331 3 361 0 q 263 13 301 7 q 186 24 225 18 q 117 37 147 31 q 75 47 88 43 q 79 69 75 58 q 89 85 83 79 l 129 90 q 172 106 157 94 q 192 146 186 117 q 199 231 199 175 l 199 792 q 210 878 199 857 q 225 900 222 899 l 90 900 q 82 912 88 906 q 74 932 76 918 q 99 952 82 942 q 135 970 117 963 q 161 978 153 978 l 468 978 q 481 956 475 971 q 486 925 486 942 l 425 907 q 381 885 396 899 q 360 848 365 871 q 354 788 354 825 l 354 193 q 346 133 354 158 q 329 99 338 108 l 474 82 q 480 68 476 79 q 483 47 483 57 q 429 15 463 29 q 371 0 396 0 m 108 1068 q 83 1083 94 1074 q 67 1103 71 1093 q 162 1231 121 1176 q 233 1315 203 1285 q 281 1344 263 1344 q 330 1313 300 1344 q 401 1227 360 1282 q 493 1103 442 1172 q 477 1084 488 1096 q 450 1068 467 1072 l 279 1210 l 108 1068 z "},"Ȉ":{"ha":560,"x_min":-54,"x_max":486,"o":"m 371 0 q 331 3 361 0 q 263 13 301 7 q 186 24 225 18 q 117 37 147 31 q 75 47 88 43 q 79 69 75 58 q 89 85 83 79 l 129 90 q 172 106 157 94 q 192 146 186 117 q 199 231 199 175 l 199 792 q 210 878 199 857 q 225 900 222 899 l 90 900 q 82 912 88 906 q 74 932 76 918 q 99 952 82 942 q 135 970 117 963 q 161 978 153 978 l 468 978 q 481 956 475 971 q 486 925 486 942 l 425 907 q 381 885 396 899 q 360 848 365 871 q 354 788 354 825 l 354 193 q 346 133 354 158 q 329 99 338 108 l 474 82 q 480 68 476 79 q 483 47 483 57 q 429 15 463 29 q 371 0 396 0 m 200 1068 l -54 1250 q -31 1291 -47 1271 q 3 1324 -15 1311 q 31 1338 21 1338 q 78 1307 44 1338 q 156 1224 111 1276 q 246 1101 201 1171 q 228 1083 240 1093 q 200 1068 215 1074 m 429 1068 l 174 1250 q 197 1290 181 1269 q 231 1324 213 1310 q 260 1338 249 1338 q 306 1307 272 1338 q 385 1224 340 1276 q 475 1101 431 1171 q 456 1082 469 1093 q 429 1068 442 1071 z "},"Ï":{"ha":560,"x_min":32,"x_max":529,"o":"m 371 0 q 331 3 361 0 q 263 13 301 7 q 186 24 225 18 q 117 37 147 31 q 75 47 88 43 q 79 69 75 58 q 89 85 83 79 l 129 90 q 172 106 157 94 q 192 146 186 117 q 199 231 199 175 l 199 792 q 210 878 199 857 q 225 900 222 899 l 90 900 q 82 912 88 906 q 74 932 76 918 q 99 952 82 942 q 135 970 117 963 q 161 978 153 978 l 468 978 q 481 956 475 971 q 486 925 486 942 l 425 907 q 381 885 396 899 q 360 848 365 871 q 354 788 354 825 l 354 193 q 346 133 354 158 q 329 99 338 108 l 474 82 q 480 68 476 79 q 483 47 483 57 q 429 15 463 29 q 371 0 396 0 m 418 1082 q 393 1094 408 1082 q 363 1124 378 1106 q 338 1159 347 1142 q 328 1188 328 1176 q 341 1213 328 1199 q 374 1240 354 1226 q 413 1261 394 1253 q 443 1269 432 1269 q 469 1257 454 1269 q 497 1226 483 1244 q 520 1190 511 1208 q 529 1161 529 1172 q 517 1138 529 1151 q 486 1112 504 1125 q 449 1090 468 1099 q 418 1082 431 1082 m 122 1082 q 97 1094 113 1082 q 67 1124 82 1106 q 42 1159 53 1142 q 32 1188 32 1176 q 46 1213 32 1199 q 79 1240 60 1226 q 118 1261 99 1253 q 149 1269 138 1269 q 174 1258 160 1269 q 202 1228 188 1246 q 226 1192 217 1210 q 235 1161 235 1174 q 222 1138 235 1151 q 192 1112 210 1125 q 154 1090 174 1099 q 122 1082 135 1082 z "},"İ":{"ha":560,"x_min":74,"x_max":486,"o":"m 371 0 q 331 3 361 0 q 263 13 301 7 q 186 24 225 18 q 117 37 147 31 q 75 47 88 43 q 79 69 75 58 q 89 85 83 79 l 129 90 q 172 106 157 94 q 192 146 186 117 q 199 231 199 175 l 199 792 q 210 878 199 857 q 225 900 222 899 l 90 900 q 82 912 88 906 q 74 932 76 918 q 99 952 82 942 q 135 970 117 963 q 161 978 153 978 l 468 978 q 481 956 475 971 q 486 925 486 942 l 425 907 q 381 885 396 899 q 360 848 365 871 q 354 788 354 825 l 354 193 q 346 133 354 158 q 329 99 338 108 l 474 82 q 480 68 476 79 q 483 47 483 57 q 429 15 463 29 q 371 0 396 0 m 268 1110 q 242 1123 258 1110 q 210 1155 225 1136 q 183 1192 194 1174 q 172 1224 172 1211 q 187 1250 172 1235 q 222 1279 201 1265 q 263 1302 243 1293 q 296 1311 283 1311 q 322 1298 307 1311 q 352 1265 338 1285 q 376 1226 367 1246 q 386 1194 386 1207 q 373 1170 386 1185 q 340 1142 360 1156 q 301 1119 321 1128 q 268 1110 282 1110 z "},"Ị":{"ha":560,"x_min":74,"x_max":486,"o":"m 371 0 q 331 3 361 0 q 263 13 301 7 q 186 24 225 18 q 117 37 147 31 q 75 47 88 43 q 79 69 75 58 q 89 85 83 79 l 129 90 q 172 106 157 94 q 192 146 186 117 q 199 231 199 175 l 199 792 q 210 878 199 857 q 225 900 222 899 l 90 900 q 82 912 88 906 q 74 932 76 918 q 99 952 82 942 q 135 970 117 963 q 161 978 153 978 l 468 978 q 481 956 475 971 q 486 925 486 942 l 425 907 q 381 885 396 899 q 360 848 365 871 q 354 788 354 825 l 354 193 q 346 133 354 158 q 329 99 338 108 l 474 82 q 480 68 476 79 q 483 47 483 57 q 429 15 463 29 q 371 0 396 0 m 269 -279 q 244 -267 260 -279 q 215 -236 229 -254 q 190 -200 200 -218 q 181 -171 181 -182 q 194 -146 181 -160 q 226 -119 207 -132 q 265 -97 246 -106 q 296 -87 285 -87 q 322 -100 307 -87 q 349 -131 336 -112 q 372 -168 363 -150 q 381 -199 381 -186 q 360 -231 381 -211 q 313 -265 339 -250 q 269 -279 288 -279 z "},"Ì":{"ha":560,"x_min":74,"x_max":486,"o":"m 371 0 q 331 3 361 0 q 263 13 301 7 q 186 24 225 18 q 117 37 147 31 q 75 47 88 43 q 79 69 75 58 q 89 85 83 79 l 129 90 q 172 106 157 94 q 192 146 186 117 q 199 231 199 175 l 199 792 q 210 878 199 857 q 225 900 222 899 l 90 900 q 82 912 88 906 q 74 932 76 918 q 99 952 82 942 q 135 970 117 963 q 161 978 153 978 l 468 978 q 481 956 475 971 q 486 925 486 942 l 425 907 q 381 885 396 899 q 360 848 365 871 q 354 788 354 825 l 354 193 q 346 133 354 158 q 329 99 338 108 l 474 82 q 480 68 476 79 q 483 47 483 57 q 429 15 463 29 q 371 0 396 0 m 368 1068 l 100 1254 q 124 1294 107 1274 q 159 1330 140 1315 q 189 1344 178 1344 q 238 1315 203 1344 q 320 1231 272 1285 q 419 1103 368 1176 q 397 1082 413 1093 q 368 1068 381 1071 z "},"Ỉ":{"ha":560,"x_min":74,"x_max":486,"o":"m 371 0 q 331 3 361 0 q 263 13 301 7 q 186 24 225 18 q 117 37 147 31 q 75 47 88 43 q 79 69 75 58 q 89 85 83 79 l 129 90 q 172 106 157 94 q 192 146 186 117 q 199 231 199 175 l 199 792 q 210 878 199 857 q 225 900 222 899 l 90 900 q 82 912 88 906 q 74 932 76 918 q 99 952 82 942 q 135 970 117 963 q 161 978 153 978 l 468 978 q 481 956 475 971 q 486 925 486 942 l 425 907 q 381 885 396 899 q 360 848 365 871 q 354 788 354 825 l 354 193 q 346 133 354 158 q 329 99 338 108 l 474 82 q 480 68 476 79 q 483 47 483 57 q 429 15 463 29 q 371 0 396 0 m 253 1033 q 241 1080 246 1057 q 233 1125 236 1103 q 307 1140 285 1133 q 335 1164 329 1147 q 340 1217 340 1181 q 263 1228 301 1225 q 176 1231 225 1231 q 172 1249 175 1233 q 169 1274 169 1264 q 190 1288 175 1281 q 222 1301 204 1296 q 249 1307 239 1307 q 286 1301 261 1307 q 340 1285 311 1296 q 392 1260 369 1275 q 413 1209 407 1242 q 419 1156 419 1176 q 403 1129 419 1144 q 363 1100 388 1114 q 314 1081 339 1086 l 299 1033 l 253 1033 z "},"Ȋ":{"ha":560,"x_min":74,"x_max":486,"o":"m 371 0 q 331 3 361 0 q 263 13 301 7 q 186 24 225 18 q 117 37 147 31 q 75 47 88 43 q 79 69 75 58 q 89 85 83 79 l 129 90 q 172 106 157 94 q 192 146 186 117 q 199 231 199 175 l 199 792 q 210 878 199 857 q 225 900 222 899 l 90 900 q 82 912 88 906 q 74 932 76 918 q 99 952 82 942 q 135 970 117 963 q 161 978 153 978 l 468 978 q 481 956 475 971 q 486 925 486 942 l 425 907 q 381 885 396 899 q 360 848 365 871 q 354 788 354 825 l 354 193 q 346 133 354 158 q 329 99 338 108 l 474 82 q 480 68 476 79 q 483 47 483 57 q 429 15 463 29 q 371 0 396 0 m 279 1257 q 406 1212 365 1257 q 456 1090 446 1167 q 431 1082 449 1086 q 389 1078 414 1078 q 354 1149 379 1131 q 279 1167 329 1167 q 205 1149 229 1167 q 169 1078 181 1131 q 130 1082 147 1078 q 104 1090 113 1086 q 152 1210 113 1163 q 279 1257 192 1257 z "},"Ī":{"ha":560,"x_min":74,"x_max":486,"o":"m 371 0 q 331 3 361 0 q 263 13 301 7 q 186 24 225 18 q 117 37 147 31 q 75 47 88 43 q 79 69 75 58 q 89 85 83 79 l 129 90 q 172 106 157 94 q 192 146 186 117 q 199 231 199 175 l 199 792 q 210 878 199 857 q 225 900 222 899 l 90 900 q 82 912 88 906 q 74 932 76 918 q 99 952 82 942 q 135 970 117 963 q 161 978 153 978 l 468 978 q 481 956 475 971 q 486 925 486 942 l 425 907 q 381 885 396 899 q 360 848 365 871 q 354 788 354 825 l 354 193 q 346 133 354 158 q 329 99 338 108 l 474 82 q 480 68 476 79 q 483 47 483 57 q 429 15 463 29 q 371 0 396 0 m 75 1089 q 80 1144 75 1121 q 90 1172 85 1167 q 185 1174 131 1172 q 298 1180 240 1176 q 402 1187 356 1183 q 471 1192 449 1190 l 485 1179 q 478 1124 483 1149 q 469 1089 474 1100 l 75 1089 z "},"Į":{"ha":560,"x_min":74,"x_max":486,"o":"m 371 0 q 331 3 361 0 q 263 13 301 7 q 186 24 225 18 q 117 37 147 31 q 75 47 88 43 q 79 69 75 58 q 89 85 83 79 l 129 90 q 172 106 157 94 q 192 146 186 117 q 199 231 199 175 l 199 792 q 210 878 199 857 q 225 900 222 899 l 90 900 q 82 912 88 906 q 74 932 76 918 q 99 952 82 942 q 135 970 117 963 q 161 978 153 978 l 468 978 q 481 956 475 971 q 486 925 486 942 l 425 907 q 381 885 396 899 q 360 848 365 871 q 354 788 354 825 l 354 193 q 346 133 354 158 q 329 99 338 108 l 474 82 q 480 68 476 79 q 483 47 483 57 q 429 15 463 29 q 371 0 396 0 m 300 -278 q 269 -270 292 -278 q 220 -249 247 -262 q 170 -217 193 -235 q 138 -179 147 -199 q 156 -106 138 -142 q 204 -37 174 -69 q 269 19 235 -6 l 374 21 q 308 -37 335 -4 q 268 -99 282 -71 q 254 -139 254 -126 q 328 -183 282 -169 q 426 -197 375 -197 q 433 -210 429 -201 q 438 -225 438 -218 q 375 -262 418 -247 q 300 -278 332 -278 z "},"Ĩ":{"ha":560,"x_min":39,"x_max":521,"o":"m 371 0 q 331 3 361 0 q 263 13 301 7 q 186 24 225 18 q 117 37 147 31 q 75 47 88 43 q 79 69 75 58 q 89 85 83 79 l 129 90 q 172 106 157 94 q 192 146 186 117 q 199 231 199 175 l 199 792 q 210 878 199 857 q 225 900 222 899 l 90 900 q 82 912 88 906 q 74 932 76 918 q 99 952 82 942 q 135 970 117 963 q 161 978 153 978 l 468 978 q 481 956 475 971 q 486 925 486 942 l 425 907 q 381 885 396 899 q 360 848 365 871 q 354 788 354 825 l 354 193 q 346 133 354 158 q 329 99 338 108 l 474 82 q 480 68 476 79 q 483 47 483 57 q 429 15 463 29 q 371 0 396 0 m 396 1081 q 340 1094 380 1081 q 250 1128 299 1108 q 160 1167 201 1149 l 68 1093 q 52 1103 60 1096 q 39 1122 44 1110 q 76 1186 55 1153 q 120 1242 98 1219 q 158 1265 141 1265 q 215 1252 174 1265 q 307 1221 256 1239 q 400 1185 358 1203 l 486 1272 q 508 1260 499 1267 q 520 1246 516 1253 q 481 1172 504 1211 q 435 1107 458 1133 q 396 1081 413 1081 z "},"J":{"ha":547,"x_min":-54,"x_max":483,"o":"m 90 -278 q 15 -263 58 -278 q -54 -231 -29 -249 q -51 -208 -54 -218 q -43 -192 -47 -197 q 94 -138 32 -171 q 197 -75 157 -106 l 197 789 q 206 868 197 842 q 224 900 215 894 l 74 900 q 63 915 68 907 q 57 932 58 922 q 83 952 65 942 q 117 970 100 963 q 143 978 135 978 l 465 978 q 478 957 472 972 q 483 925 483 942 l 422 907 q 381 888 397 900 q 358 853 365 876 q 351 788 351 831 l 351 -17 q 305 -103 338 -58 q 231 -188 272 -149 q 152 -253 190 -228 q 90 -278 114 -278 z "},"Ĵ":{"ha":547,"x_min":-54,"x_max":488,"o":"m 90 -278 q 15 -263 58 -278 q -54 -231 -29 -249 q -51 -208 -54 -218 q -43 -192 -47 -197 q 94 -138 32 -171 q 197 -75 157 -106 l 197 789 q 206 868 197 842 q 224 900 215 894 l 74 900 q 63 915 68 907 q 57 932 58 922 q 83 952 65 942 q 117 970 100 963 q 143 978 135 978 l 465 978 q 478 957 472 972 q 483 925 483 942 l 422 907 q 381 888 397 900 q 358 853 365 876 q 351 788 351 831 l 351 -17 q 305 -103 338 -58 q 231 -188 272 -149 q 152 -253 190 -228 q 90 -278 114 -278 m 103 1068 q 77 1083 89 1074 q 61 1103 65 1093 q 156 1231 115 1176 q 227 1315 197 1285 q 275 1344 257 1344 q 324 1313 294 1344 q 395 1227 354 1282 q 488 1103 436 1172 q 472 1084 482 1096 q 444 1068 461 1072 l 274 1210 l 103 1068 z "},"K":{"ha":1014,"x_min":74,"x_max":1000,"o":"m 371 0 q 331 3 361 0 q 263 13 301 7 q 186 24 225 18 q 117 37 147 31 q 75 47 88 43 q 79 69 75 58 q 89 85 83 79 l 129 90 q 169 103 154 94 q 192 142 185 113 q 199 232 199 171 l 199 789 q 209 870 199 844 q 225 900 219 896 l 90 900 q 80 914 85 906 q 74 932 75 922 q 99 952 82 942 q 135 970 117 963 q 161 978 153 978 l 468 978 q 481 956 475 972 q 486 925 486 940 l 425 907 q 381 885 396 899 q 360 848 365 871 q 354 788 354 825 l 354 547 l 503 549 q 529 613 513 571 q 569 707 546 654 q 619 813 592 760 q 677 909 647 865 q 738 978 707 953 l 975 978 q 988 958 982 972 q 994 926 994 944 l 929 907 q 844 860 885 893 q 769 782 804 826 q 706 690 735 738 q 655 598 676 642 q 619 524 633 554 l 768 279 q 828 185 801 226 q 885 119 856 143 q 957 93 915 96 l 985 92 q 994 76 989 88 q 1000 50 1000 65 q 955 23 982 35 q 899 6 928 11 q 843 0 869 0 q 796 7 819 0 q 749 31 772 14 q 702 81 726 49 q 651 163 678 113 l 531 396 q 497 445 514 428 q 436 463 481 463 l 354 463 l 354 193 q 346 133 354 158 q 329 99 338 108 l 474 82 q 480 68 476 79 q 483 47 483 57 q 429 15 463 29 q 371 0 396 0 z "},"Ķ":{"ha":1014,"x_min":74,"x_max":1000,"o":"m 371 0 q 331 3 361 0 q 263 13 301 7 q 186 24 225 18 q 117 37 147 31 q 75 47 88 43 q 79 69 75 58 q 89 85 83 79 l 129 90 q 169 103 154 94 q 192 142 185 113 q 199 232 199 171 l 199 789 q 209 870 199 844 q 225 900 219 896 l 90 900 q 80 914 85 906 q 74 932 75 922 q 99 952 82 942 q 135 970 117 963 q 161 978 153 978 l 468 978 q 481 956 475 972 q 486 925 486 940 l 425 907 q 381 885 396 899 q 360 848 365 871 q 354 788 354 825 l 354 547 l 503 549 q 529 613 513 571 q 569 707 546 654 q 619 813 592 760 q 677 909 647 865 q 738 978 707 953 l 975 978 q 988 958 982 972 q 994 926 994 944 l 929 907 q 844 860 885 893 q 769 782 804 826 q 706 690 735 738 q 655 598 676 642 q 619 524 633 554 l 768 279 q 828 185 801 226 q 885 119 856 143 q 957 93 915 96 l 985 92 q 994 76 989 88 q 1000 50 1000 65 q 955 23 982 35 q 899 6 928 11 q 843 0 869 0 q 796 7 819 0 q 749 31 772 14 q 702 81 726 49 q 651 163 678 113 l 531 396 q 497 445 514 428 q 436 463 481 463 l 354 463 l 354 193 q 346 133 354 158 q 329 99 338 108 l 474 82 q 480 68 476 79 q 483 47 483 57 q 429 15 463 29 q 371 0 396 0 m 479 -353 q 442 -341 458 -353 q 419 -319 426 -329 q 470 -283 443 -307 q 510 -232 497 -260 l 529 -265 q 494 -253 515 -265 q 454 -222 474 -240 q 422 -182 435 -203 q 408 -144 408 -161 q 422 -119 408 -133 q 454 -93 435 -106 q 492 -72 474 -81 q 522 -62 511 -62 q 547 -75 533 -62 q 574 -106 561 -87 q 597 -142 588 -124 q 606 -172 606 -161 q 589 -210 606 -182 q 549 -272 572 -239 q 506 -329 526 -306 q 479 -353 486 -353 z "},"L":{"ha":858,"x_min":74,"x_max":813,"o":"m 678 0 q 572 3 635 0 q 438 10 510 6 q 295 22 365 15 q 167 35 225 28 q 75 47 110 42 q 79 69 75 58 q 89 85 83 79 l 129 90 q 172 106 157 94 q 192 146 186 117 q 199 231 199 175 l 199 789 q 203 851 199 828 q 215 887 208 875 q 225 900 222 899 l 90 900 q 80 914 85 906 q 74 932 75 922 q 99 952 82 942 q 135 970 117 963 q 161 978 153 978 l 468 978 q 481 956 475 972 q 486 925 486 940 l 425 907 q 381 885 396 899 q 360 848 365 871 q 354 788 354 825 l 354 194 q 346 136 354 161 q 329 100 338 111 l 650 100 l 731 340 q 783 332 761 340 q 813 317 804 324 q 809 222 813 271 q 801 133 806 174 q 792 64 796 92 q 758 38 781 53 q 713 11 736 22 q 678 0 690 0 z "},"Ǉ":{"ha":1406,"x_min":74,"x_max":1342,"o":"m 678 0 q 572 3 635 0 q 438 10 510 6 q 295 22 365 15 q 167 35 225 28 q 75 47 110 42 q 79 69 75 58 q 89 85 83 79 l 129 90 q 172 106 157 94 q 192 146 186 117 q 199 231 199 175 l 199 789 q 203 851 199 828 q 215 887 208 875 q 225 900 222 899 l 90 900 q 80 914 85 906 q 74 932 75 922 q 99 952 82 942 q 135 970 117 963 q 161 978 153 978 l 468 978 q 481 956 475 972 q 486 925 486 940 l 425 907 q 381 885 396 899 q 360 848 365 871 q 354 788 354 825 l 354 194 q 346 136 354 161 q 329 100 338 111 l 650 100 l 731 340 q 783 332 761 340 q 813 317 804 324 q 809 222 813 271 q 801 133 806 174 q 792 64 796 92 q 758 38 781 53 q 713 11 736 22 q 678 0 690 0 m 949 -278 q 873 -263 917 -278 q 804 -231 829 -249 q 808 -208 804 -218 q 815 -192 811 -197 q 953 -138 890 -171 q 1056 -75 1015 -106 l 1056 789 q 1065 868 1056 842 q 1082 900 1074 894 l 932 900 q 922 915 926 907 q 915 932 917 922 q 941 952 924 942 q 976 970 958 963 q 1001 978 993 978 l 1324 978 q 1336 957 1331 972 q 1342 925 1342 942 l 1281 907 q 1240 888 1256 900 q 1217 853 1224 876 q 1210 788 1210 831 l 1210 -17 q 1163 -103 1196 -58 q 1090 -188 1131 -149 q 1010 -253 1049 -228 q 949 -278 972 -278 z "},"Ĺ":{"ha":858,"x_min":74,"x_max":813,"o":"m 678 0 q 572 3 635 0 q 438 10 510 6 q 295 22 365 15 q 167 35 225 28 q 75 47 110 42 q 79 69 75 58 q 89 85 83 79 l 129 90 q 172 106 157 94 q 192 146 186 117 q 199 231 199 175 l 199 789 q 203 851 199 828 q 215 887 208 875 q 225 900 222 899 l 90 900 q 80 914 85 906 q 74 932 75 922 q 99 952 82 942 q 135 970 117 963 q 161 978 153 978 l 468 978 q 481 956 475 972 q 486 925 486 940 l 425 907 q 381 885 396 899 q 360 848 365 871 q 354 788 354 825 l 354 194 q 346 136 354 161 q 329 100 338 111 l 650 100 l 731 340 q 783 332 761 340 q 813 317 804 324 q 809 222 813 271 q 801 133 806 174 q 792 64 796 92 q 758 38 781 53 q 713 11 736 22 q 678 0 690 0 m 186 1068 q 155 1085 168 1074 q 136 1103 142 1096 q 233 1229 186 1175 q 316 1314 281 1283 q 365 1344 351 1344 q 395 1331 376 1344 q 431 1296 414 1317 q 456 1254 449 1275 l 186 1068 z "},"Ľ":{"ha":858,"x_min":74,"x_max":813,"o":"m 678 0 q 572 3 635 0 q 438 10 510 6 q 295 22 365 15 q 167 35 225 28 q 75 47 110 42 q 79 69 75 58 q 89 85 83 79 l 129 90 q 172 106 157 94 q 192 146 186 117 q 199 231 199 175 l 199 789 q 203 851 199 828 q 215 887 208 875 q 225 900 222 899 l 90 900 q 80 914 85 906 q 74 932 75 922 q 99 952 82 942 q 135 970 117 963 q 161 978 153 978 l 468 978 q 481 956 475 972 q 486 925 486 940 l 425 907 q 381 885 396 899 q 360 848 365 871 q 354 788 354 825 l 354 194 q 346 136 354 161 q 329 100 338 111 l 650 100 l 731 340 q 783 332 761 340 q 813 317 804 324 q 809 222 813 271 q 801 133 806 174 q 792 64 796 92 q 758 38 781 53 q 713 11 736 22 q 678 0 690 0 m 679 750 q 651 753 663 750 q 632 758 640 756 l 607 1096 q 638 1106 617 1101 q 669 1111 658 1111 q 699 1095 685 1111 q 724 1061 714 1079 q 735 1033 735 1043 q 729 970 735 1017 q 712 865 724 924 q 679 750 700 806 z "},"Ļ":{"ha":858,"x_min":74,"x_max":813,"o":"m 678 0 q 572 3 635 0 q 438 10 510 6 q 295 22 365 15 q 167 35 225 28 q 75 47 110 42 q 79 69 75 58 q 89 85 83 79 l 129 90 q 172 106 157 94 q 192 146 186 117 q 199 231 199 175 l 199 789 q 203 851 199 828 q 215 887 208 875 q 225 900 222 899 l 90 900 q 80 914 85 906 q 74 932 75 922 q 99 952 82 942 q 135 970 117 963 q 161 978 153 978 l 468 978 q 481 956 475 972 q 486 925 486 940 l 425 907 q 381 885 396 899 q 360 848 365 871 q 354 788 354 825 l 354 194 q 346 136 354 161 q 329 100 338 111 l 650 100 l 731 340 q 783 332 761 340 q 813 317 804 324 q 809 222 813 271 q 801 133 806 174 q 792 64 796 92 q 758 38 781 53 q 713 11 736 22 q 678 0 690 0 m 401 -353 q 365 -341 381 -353 q 342 -319 349 -329 q 392 -283 365 -307 q 432 -232 419 -260 l 451 -265 q 417 -253 438 -265 q 376 -222 396 -240 q 344 -182 357 -203 q 331 -144 331 -161 q 344 -119 331 -133 q 376 -93 357 -106 q 415 -72 396 -81 q 444 -62 433 -62 q 469 -75 456 -62 q 497 -106 483 -87 q 519 -142 510 -124 q 528 -172 528 -161 q 511 -210 528 -182 q 472 -272 494 -239 q 428 -329 449 -306 q 401 -353 408 -353 z "},"Ŀ":{"ha":858,"x_min":74,"x_max":813,"o":"m 678 0 q 572 3 635 0 q 438 10 510 6 q 295 22 365 15 q 167 35 225 28 q 75 47 110 42 q 79 69 75 58 q 89 85 83 79 l 129 90 q 172 106 157 94 q 192 146 186 117 q 199 231 199 175 l 199 789 q 203 851 199 828 q 215 887 208 875 q 225 900 222 899 l 90 900 q 80 914 85 906 q 74 932 75 922 q 99 952 82 942 q 135 970 117 963 q 161 978 153 978 l 468 978 q 481 956 475 972 q 486 925 486 940 l 425 907 q 381 885 396 899 q 360 848 365 871 q 354 788 354 825 l 354 194 q 346 136 354 161 q 329 100 338 111 l 650 100 l 731 340 q 783 332 761 340 q 813 317 804 324 q 809 222 813 271 q 801 133 806 174 q 792 64 796 92 q 758 38 781 53 q 713 11 736 22 q 678 0 690 0 m 692 432 q 667 444 682 432 q 639 473 653 456 q 615 508 625 490 q 606 536 606 525 q 619 561 606 547 q 650 588 632 575 q 687 610 668 601 q 715 618 706 618 q 740 606 726 618 q 767 575 754 593 q 788 540 779 557 q 797 511 797 522 q 785 488 797 501 q 757 462 774 475 q 722 440 740 449 q 692 432 704 432 z "},"ǈ":{"ha":1264,"x_min":74,"x_max":1153,"o":"m 678 0 q 572 3 635 0 q 438 10 510 6 q 295 22 365 15 q 167 35 225 28 q 75 47 110 42 q 79 69 75 58 q 89 85 83 79 l 129 90 q 172 106 157 94 q 192 146 186 117 q 199 231 199 175 l 199 789 q 203 851 199 828 q 215 887 208 875 q 225 900 222 899 l 90 900 q 80 914 85 906 q 74 932 75 922 q 99 952 82 942 q 135 970 117 963 q 161 978 153 978 l 468 978 q 481 956 475 972 q 486 925 486 940 l 425 907 q 381 885 396 899 q 360 848 365 871 q 354 788 354 825 l 354 194 q 346 136 354 161 q 329 100 338 111 l 650 100 l 731 340 q 783 332 761 340 q 813 317 804 324 q 809 222 813 271 q 801 133 806 174 q 792 64 796 92 q 758 38 781 53 q 713 11 736 22 q 678 0 690 0 z "},"Ł":{"ha":858,"x_min":33,"x_max":813,"o":"m 61 351 q 39 382 43 367 q 33 410 35 397 l 581 688 q 613 647 604 674 q 624 594 622 619 l 61 351 m 678 0 q 572 3 635 0 q 438 10 510 6 q 295 22 365 15 q 167 35 225 28 q 75 47 110 42 q 79 69 75 58 q 89 85 83 79 l 129 90 q 172 106 157 94 q 192 146 186 117 q 199 231 199 175 l 199 789 q 203 851 199 828 q 215 887 208 875 q 225 900 222 899 l 90 900 q 80 914 85 906 q 74 932 75 922 q 99 952 82 942 q 135 970 117 963 q 161 978 153 978 l 468 978 q 481 956 475 972 q 486 925 486 940 l 425 907 q 381 885 396 899 q 360 848 365 871 q 354 788 354 825 l 354 194 q 346 136 354 161 q 329 100 338 111 l 650 100 l 731 340 q 783 332 761 340 q 813 317 804 324 q 809 222 813 271 q 801 133 806 174 q 792 64 796 92 q 758 38 781 53 q 713 11 736 22 q 678 0 690 0 z "},"M":{"ha":1422,"x_min":67,"x_max":1356,"o":"m 339 0 q 290 5 326 0 q 207 17 253 10 q 122 33 161 25 q 67 47 83 42 q 72 70 67 60 q 81 85 76 81 l 118 90 q 161 108 146 96 q 183 151 176 121 q 193 233 190 181 l 224 783 q 237 867 226 838 q 251 900 247 896 l 113 900 q 102 913 107 906 q 96 932 97 921 q 119 952 103 942 q 155 970 136 963 q 182 978 174 978 l 433 978 l 701 317 q 745 408 719 351 q 801 535 771 464 q 863 683 832 606 q 920 836 893 760 q 965 978 947 913 l 1310 978 q 1322 955 1317 969 q 1328 925 1328 940 l 1267 907 q 1219 885 1238 899 q 1195 850 1201 872 q 1190 789 1189 828 l 1222 203 q 1217 134 1225 163 q 1200 99 1208 106 l 1344 82 q 1352 67 1349 76 q 1356 47 1356 58 q 1301 15 1335 29 q 1242 0 1267 0 q 1200 3 1231 0 q 1131 13 1169 7 q 1053 24 1093 18 q 983 37 1014 31 q 939 47 953 43 q 944 69 939 58 q 953 85 949 81 l 1000 90 q 1046 102 1029 94 q 1069 139 1063 110 q 1071 233 1075 168 l 1043 721 q 1044 815 1040 776 q 1053 868 1047 854 l 1042 872 l 743 151 q 700 129 731 142 q 628 117 669 117 l 378 724 q 353 804 361 765 q 342 864 344 843 l 333 864 q 327 830 331 854 q 321 764 324 806 l 293 196 q 283 131 292 156 q 267 103 274 107 l 447 82 q 453 69 450 79 q 457 47 457 58 q 420 23 442 33 q 377 6 399 13 q 339 0 356 0 z "},"N":{"ha":1149,"x_min":74,"x_max":1099,"o":"m 349 0 q 300 5 336 0 q 219 17 264 10 q 134 33 174 25 q 75 47 94 42 q 79 69 75 58 q 89 85 83 79 l 128 90 q 172 108 157 94 q 192 153 186 122 q 197 242 197 185 l 197 790 q 206 867 197 840 q 224 900 215 894 l 90 900 q 80 914 85 906 q 74 932 75 922 q 99 952 82 942 q 135 970 117 963 q 161 978 153 978 l 379 978 l 881 210 q 872 284 875 239 q 868 407 868 329 l 868 785 q 876 862 868 833 q 893 896 885 890 l 754 896 q 747 907 753 900 q 738 928 740 914 q 764 949 746 938 q 800 969 782 961 q 825 978 818 978 l 1081 978 q 1093 956 1088 969 q 1099 925 1099 942 l 1039 907 q 994 885 1008 899 q 974 846 979 871 q 969 776 969 821 l 969 265 q 974 126 969 189 q 983 42 978 63 q 940 19 967 28 q 884 6 913 10 q 833 0 856 1 l 379 694 q 332 782 349 743 q 313 839 315 821 l 304 839 q 301 815 303 835 q 299 750 299 796 l 299 194 q 291 138 299 163 q 275 103 283 113 l 457 82 q 463 69 460 79 q 467 47 467 58 q 430 23 451 33 q 386 6 408 13 q 349 0 364 0 z "},"Ǌ":{"ha":1696,"x_min":74,"x_max":1632,"o":"m 349 0 q 300 5 336 0 q 219 17 264 10 q 134 33 174 25 q 75 47 94 42 q 79 69 75 58 q 89 85 83 79 l 128 90 q 172 108 157 94 q 192 153 186 122 q 197 242 197 185 l 197 790 q 206 867 197 840 q 224 900 215 894 l 90 900 q 80 914 85 906 q 74 932 75 922 q 99 952 82 942 q 135 970 117 963 q 161 978 153 978 l 379 978 l 881 210 q 872 284 875 239 q 868 407 868 329 l 868 785 q 876 862 868 833 q 893 896 885 890 l 754 896 q 747 907 753 900 q 738 928 740 914 q 764 949 746 938 q 800 969 782 961 q 825 978 818 978 l 1081 978 q 1093 956 1088 969 q 1099 925 1099 942 l 1039 907 q 994 885 1008 899 q 974 846 979 871 q 969 776 969 821 l 969 265 q 974 126 969 189 q 983 42 978 63 q 940 19 967 28 q 884 6 913 10 q 833 0 856 1 l 379 694 q 332 782 349 743 q 313 839 315 821 l 304 839 q 301 815 303 835 q 299 750 299 796 l 299 194 q 291 138 299 163 q 275 103 283 113 l 457 82 q 463 69 460 79 q 467 47 467 58 q 430 23 451 33 q 386 6 408 13 q 349 0 364 0 m 1239 -278 q 1163 -263 1207 -278 q 1094 -231 1119 -249 q 1098 -208 1094 -218 q 1106 -192 1101 -197 q 1243 -138 1181 -171 q 1346 -75 1306 -106 l 1346 789 q 1355 868 1346 842 q 1372 900 1364 894 l 1222 900 q 1212 915 1217 907 q 1206 932 1207 922 q 1231 952 1214 942 q 1266 970 1249 963 q 1292 978 1283 978 l 1614 978 q 1626 957 1621 972 q 1632 925 1632 942 l 1571 907 q 1530 888 1546 900 q 1507 853 1514 876 q 1500 788 1500 831 l 1500 -17 q 1453 -103 1486 -58 q 1380 -188 1421 -149 q 1301 -253 1339 -228 q 1239 -278 1263 -278 z "},"Ń":{"ha":1149,"x_min":74,"x_max":1099,"o":"m 349 0 q 300 5 336 0 q 219 17 264 10 q 134 33 174 25 q 75 47 94 42 q 79 69 75 58 q 89 85 83 79 l 128 90 q 172 108 157 94 q 192 153 186 122 q 197 242 197 185 l 197 790 q 206 867 197 840 q 224 900 215 894 l 90 900 q 80 914 85 906 q 74 932 75 922 q 99 952 82 942 q 135 970 117 963 q 161 978 153 978 l 379 978 l 881 210 q 872 284 875 239 q 868 407 868 329 l 868 785 q 876 862 868 833 q 893 896 885 890 l 754 896 q 747 907 753 900 q 738 928 740 914 q 764 949 746 938 q 800 969 782 961 q 825 978 818 978 l 1081 978 q 1093 956 1088 969 q 1099 925 1099 942 l 1039 907 q 994 885 1008 899 q 974 846 979 871 q 969 776 969 821 l 969 265 q 974 126 969 189 q 983 42 978 63 q 940 19 967 28 q 884 6 913 10 q 833 0 856 1 l 379 694 q 332 782 349 743 q 313 839 315 821 l 304 839 q 301 815 303 835 q 299 750 299 796 l 299 194 q 291 138 299 163 q 275 103 283 113 l 457 82 q 463 69 460 79 q 467 47 467 58 q 430 23 451 33 q 386 6 408 13 q 349 0 364 0 m 488 1068 q 456 1085 469 1074 q 438 1103 443 1096 q 535 1229 488 1175 q 617 1314 582 1283 q 667 1344 653 1344 q 697 1331 678 1344 q 733 1296 715 1317 q 757 1254 750 1275 l 488 1068 z "},"Ň":{"ha":1149,"x_min":74,"x_max":1099,"o":"m 349 0 q 300 5 336 0 q 219 17 264 10 q 134 33 174 25 q 75 47 94 42 q 79 69 75 58 q 89 85 83 79 l 128 90 q 172 108 157 94 q 192 153 186 122 q 197 242 197 185 l 197 790 q 206 867 197 840 q 224 900 215 894 l 90 900 q 80 914 85 906 q 74 932 75 922 q 99 952 82 942 q 135 970 117 963 q 161 978 153 978 l 379 978 l 881 210 q 872 284 875 239 q 868 407 868 329 l 868 785 q 876 862 868 833 q 893 896 885 890 l 754 896 q 747 907 753 900 q 738 928 740 914 q 764 949 746 938 q 800 969 782 961 q 825 978 818 978 l 1081 978 q 1093 956 1088 969 q 1099 925 1099 942 l 1039 907 q 994 885 1008 899 q 974 846 979 871 q 969 776 969 821 l 969 265 q 974 126 969 189 q 983 42 978 63 q 940 19 967 28 q 884 6 913 10 q 833 0 856 1 l 379 694 q 332 782 349 743 q 313 839 315 821 l 304 839 q 301 815 303 835 q 299 750 299 796 l 299 194 q 291 138 299 163 q 275 103 283 113 l 457 82 q 463 69 460 79 q 467 47 467 58 q 430 23 451 33 q 386 6 408 13 q 349 0 364 0 m 585 1068 q 535 1100 565 1068 q 463 1186 504 1132 q 371 1308 422 1240 q 389 1331 376 1319 q 414 1344 401 1342 l 586 1203 l 754 1344 q 779 1331 767 1340 q 797 1310 792 1321 q 704 1184 744 1239 q 634 1099 664 1129 q 585 1068 604 1068 z "},"Ņ":{"ha":1149,"x_min":74,"x_max":1099,"o":"m 349 0 q 300 5 336 0 q 219 17 264 10 q 134 33 174 25 q 75 47 94 42 q 79 69 75 58 q 89 85 83 79 l 128 90 q 172 108 157 94 q 192 153 186 122 q 197 242 197 185 l 197 790 q 206 867 197 840 q 224 900 215 894 l 90 900 q 80 914 85 906 q 74 932 75 922 q 99 952 82 942 q 135 970 117 963 q 161 978 153 978 l 379 978 l 881 210 q 872 284 875 239 q 868 407 868 329 l 868 785 q 876 862 868 833 q 893 896 885 890 l 754 896 q 747 907 753 900 q 738 928 740 914 q 764 949 746 938 q 800 969 782 961 q 825 978 818 978 l 1081 978 q 1093 956 1088 969 q 1099 925 1099 942 l 1039 907 q 994 885 1008 899 q 974 846 979 871 q 969 776 969 821 l 969 265 q 974 126 969 189 q 983 42 978 63 q 940 19 967 28 q 884 6 913 10 q 833 0 856 1 l 379 694 q 332 782 349 743 q 313 839 315 821 l 304 839 q 301 815 303 835 q 299 750 299 796 l 299 194 q 291 138 299 163 q 275 103 283 113 l 457 82 q 463 69 460 79 q 467 47 467 58 q 430 23 451 33 q 386 6 408 13 q 349 0 364 0 m 543 -353 q 506 -341 522 -353 q 483 -319 490 -329 q 534 -283 507 -307 q 574 -232 561 -260 l 593 -265 q 558 -253 579 -265 q 518 -222 538 -240 q 485 -182 499 -203 q 472 -144 472 -161 q 485 -119 472 -133 q 518 -93 499 -106 q 556 -72 538 -81 q 586 -62 575 -62 q 611 -75 597 -62 q 638 -106 625 -87 q 660 -142 651 -124 q 669 -172 669 -161 q 653 -210 669 -182 q 613 -272 636 -239 q 570 -329 590 -306 q 543 -353 550 -353 z "},"Ŋ":{"ha":1149,"x_min":74,"x_max":1099,"o":"m 739 -278 q 667 -265 710 -278 q 601 -233 625 -251 q 605 -214 601 -222 q 613 -200 608 -206 q 756 -144 694 -178 q 867 -75 818 -111 l 867 -28 l 379 694 q 344 755 358 726 q 322 806 329 783 q 313 839 314 828 l 304 839 q 301 815 303 835 q 299 750 299 796 l 299 194 q 291 138 299 163 q 275 103 283 113 l 457 82 q 463 69 460 79 q 467 47 467 58 q 430 23 451 33 q 386 6 408 13 q 349 0 364 0 q 300 5 336 0 q 219 17 264 10 q 134 33 174 25 q 75 47 94 42 q 79 69 75 58 q 89 85 83 79 l 128 90 q 172 108 157 94 q 192 153 186 122 q 197 242 197 185 l 197 790 q 206 867 197 840 q 224 900 215 894 l 90 900 q 80 914 85 906 q 74 932 75 922 q 99 952 82 942 q 133 970 115 963 q 158 978 150 978 l 374 978 l 881 226 q 872 301 875 256 q 868 424 868 346 l 868 785 q 876 863 868 835 q 893 896 885 890 l 754 896 q 747 907 753 900 q 738 928 740 914 q 764 949 746 938 q 800 969 782 961 q 825 978 818 978 l 1081 978 q 1093 956 1088 969 q 1099 925 1099 942 l 1039 907 q 994 885 1008 899 q 974 846 979 871 q 969 776 969 821 l 969 265 q 972 157 969 215 q 978 48 974 99 q 988 -32 982 -3 q 938 -114 971 -71 q 867 -194 906 -157 q 794 -255 828 -232 q 739 -278 760 -278 z "},"Ɲ":{"ha":1149,"x_min":-54,"x_max":1099,"o":"m 90 -278 q 15 -263 58 -278 q -54 -231 -29 -249 q -51 -208 -54 -218 q -43 -192 -47 -197 q 94 -138 32 -171 q 197 -75 157 -106 l 197 790 q 206 867 197 840 q 224 900 215 894 l 90 900 q 80 914 85 906 q 74 932 75 922 q 99 952 82 942 q 135 970 117 963 q 161 978 153 978 l 379 978 l 881 210 q 872 284 875 239 q 868 407 868 329 l 868 785 q 876 862 868 833 q 893 896 885 890 l 754 896 q 747 907 753 900 q 738 928 740 914 q 764 949 746 938 q 800 969 782 961 q 825 978 818 978 l 1081 978 q 1093 956 1088 969 q 1099 925 1099 942 l 1039 907 q 994 885 1008 899 q 974 846 979 871 q 969 776 969 821 l 969 265 q 974 126 969 189 q 983 42 978 63 q 940 19 967 28 q 884 6 913 10 q 833 0 856 1 l 379 694 q 332 782 349 743 q 313 839 315 821 l 304 839 q 301 815 303 835 q 299 750 299 796 l 299 -83 q 263 -147 289 -114 q 203 -210 236 -181 q 140 -259 171 -240 q 90 -278 110 -278 z "},"ǋ":{"ha":1554,"x_min":74,"x_max":1443,"o":"m 349 0 q 300 5 336 0 q 219 17 264 10 q 134 33 174 25 q 75 47 94 42 q 79 69 75 58 q 89 85 83 79 l 128 90 q 172 108 157 94 q 192 153 186 122 q 197 242 197 185 l 197 790 q 206 867 197 840 q 224 900 215 894 l 90 900 q 80 914 85 906 q 74 932 75 922 q 99 952 82 942 q 135 970 117 963 q 161 978 153 978 l 379 978 l 881 210 q 872 284 875 239 q 868 407 868 329 l 868 785 q 876 862 868 833 q 893 896 885 890 l 754 896 q 747 907 753 900 q 738 928 740 914 q 764 949 746 938 q 800 969 782 961 q 825 978 818 978 l 1081 978 q 1093 956 1088 969 q 1099 925 1099 942 l 1039 907 q 994 885 1008 899 q 974 846 979 871 q 969 776 969 821 l 969 265 q 974 126 969 189 q 983 42 978 63 q 940 19 967 28 q 884 6 913 10 q 833 0 856 1 l 379 694 q 332 782 349 743 q 313 839 315 821 l 304 839 q 301 815 303 835 q 299 750 299 796 l 299 194 q 291 138 299 163 q 275 103 283 113 l 457 82 q 463 69 460 79 q 467 47 467 58 q 430 23 451 33 q 386 6 408 13 q 349 0 364 0 z "},"Ñ":{"ha":1149,"x_min":74,"x_max":1099,"o":"m 349 0 q 300 5 336 0 q 219 17 264 10 q 134 33 174 25 q 75 47 94 42 q 79 69 75 58 q 89 85 83 79 l 128 90 q 172 108 157 94 q 192 153 186 122 q 197 242 197 185 l 197 790 q 206 867 197 840 q 224 900 215 894 l 90 900 q 80 914 85 906 q 74 932 75 922 q 99 952 82 942 q 135 970 117 963 q 161 978 153 978 l 379 978 l 881 210 q 872 284 875 239 q 868 407 868 329 l 868 785 q 876 862 868 833 q 893 896 885 890 l 754 896 q 747 907 753 900 q 738 928 740 914 q 764 949 746 938 q 800 969 782 961 q 825 978 818 978 l 1081 978 q 1093 956 1088 969 q 1099 925 1099 942 l 1039 907 q 994 885 1008 899 q 974 846 979 871 q 969 776 969 821 l 969 265 q 974 126 969 189 q 983 42 978 63 q 940 19 967 28 q 884 6 913 10 q 833 0 856 1 l 379 694 q 332 782 349 743 q 313 839 315 821 l 304 839 q 301 815 303 835 q 299 750 299 796 l 299 194 q 291 138 299 163 q 275 103 283 113 l 457 82 q 463 69 460 79 q 467 47 467 58 q 430 23 451 33 q 386 6 408 13 q 349 0 364 0 m 714 1081 q 651 1094 696 1081 q 551 1128 606 1108 q 451 1167 497 1149 l 349 1093 q 331 1103 340 1096 q 317 1122 322 1110 q 358 1186 335 1153 q 406 1242 382 1219 q 449 1265 431 1265 q 513 1252 467 1265 q 615 1221 558 1239 q 718 1185 671 1203 l 814 1272 q 838 1260 828 1267 q 851 1246 847 1253 q 808 1172 833 1211 q 757 1107 782 1133 q 714 1081 732 1081 z "},"O":{"ha":1064,"x_min":94,"x_max":969,"o":"m 507 0 q 412 15 464 0 q 310 51 360 29 q 220 99 260 74 q 163 144 181 124 q 112 265 129 185 q 94 443 94 344 q 103 604 94 525 q 126 748 113 683 q 156 847 140 813 q 234 899 188 872 q 338 949 281 925 q 456 986 394 972 q 578 1000 517 1000 q 662 988 614 1000 q 759 958 710 976 q 848 916 808 939 q 908 869 888 893 q 942 788 929 838 q 963 678 956 738 q 969 554 969 618 q 960 397 969 475 q 937 253 951 318 q 904 149 922 189 q 810 85 872 121 q 670 25 749 50 q 507 0 592 0 m 539 104 q 619 115 576 104 q 699 140 663 125 q 751 167 736 156 q 780 260 768 206 q 798 378 792 314 q 804 513 804 443 q 794 676 804 601 q 769 801 785 751 q 736 826 763 811 q 674 857 710 842 q 602 883 639 872 q 538 893 565 893 q 460 885 504 893 q 376 866 417 878 q 307 842 335 854 q 280 748 292 803 q 263 630 268 693 q 257 501 257 567 q 268 336 257 417 q 306 200 279 256 q 347 169 318 186 q 412 138 376 153 q 482 113 447 122 q 539 104 517 104 z "},"Ó":{"ha":1064,"x_min":94,"x_max":969,"o":"m 507 0 q 412 15 464 0 q 310 51 360 29 q 220 99 260 74 q 163 144 181 124 q 112 265 129 185 q 94 443 94 344 q 103 604 94 525 q 126 748 113 683 q 156 847 140 813 q 234 899 188 872 q 338 949 281 925 q 456 986 394 972 q 578 1000 517 1000 q 662 988 614 1000 q 759 958 710 976 q 848 916 808 939 q 908 869 888 893 q 942 788 929 838 q 963 678 956 738 q 969 554 969 618 q 960 397 969 475 q 937 253 951 318 q 904 149 922 189 q 810 85 872 121 q 670 25 749 50 q 507 0 592 0 m 539 104 q 619 115 576 104 q 699 140 663 125 q 751 167 736 156 q 780 260 768 206 q 798 378 792 314 q 804 513 804 443 q 794 676 804 601 q 769 801 785 751 q 736 826 763 811 q 674 857 710 842 q 602 883 639 872 q 538 893 565 893 q 460 885 504 893 q 376 866 417 878 q 307 842 335 854 q 280 748 292 803 q 263 630 268 693 q 257 501 257 567 q 268 336 257 417 q 306 200 279 256 q 347 169 318 186 q 412 138 376 153 q 482 113 447 122 q 539 104 517 104 m 436 1068 q 405 1085 418 1074 q 386 1103 392 1096 q 483 1229 436 1175 q 566 1314 531 1283 q 615 1344 601 1344 q 645 1331 626 1344 q 681 1296 664 1317 q 706 1254 699 1275 l 436 1068 z "},"Ŏ":{"ha":1064,"x_min":94,"x_max":969,"o":"m 507 0 q 412 15 464 0 q 310 51 360 29 q 220 99 260 74 q 163 144 181 124 q 112 265 129 185 q 94 443 94 344 q 103 604 94 525 q 126 748 113 683 q 156 847 140 813 q 234 899 188 872 q 338 949 281 925 q 456 986 394 972 q 578 1000 517 1000 q 662 988 614 1000 q 759 958 710 976 q 848 916 808 939 q 908 869 888 893 q 942 788 929 838 q 963 678 956 738 q 969 554 969 618 q 960 397 969 475 q 937 253 951 318 q 904 149 922 189 q 810 85 872 121 q 670 25 749 50 q 507 0 592 0 m 539 104 q 619 115 576 104 q 699 140 663 125 q 751 167 736 156 q 780 260 768 206 q 798 378 792 314 q 804 513 804 443 q 794 676 804 601 q 769 801 785 751 q 736 826 763 811 q 674 857 710 842 q 602 883 639 872 q 538 893 565 893 q 460 885 504 893 q 376 866 417 878 q 307 842 335 854 q 280 748 292 803 q 263 630 268 693 q 257 501 257 567 q 268 336 257 417 q 306 200 279 256 q 347 169 318 186 q 412 138 376 153 q 482 113 447 122 q 539 104 517 104 m 532 1085 q 398 1133 440 1085 q 347 1254 356 1181 q 376 1263 357 1258 q 418 1267 396 1267 q 455 1197 429 1215 q 532 1179 481 1179 q 610 1197 583 1179 q 646 1267 636 1215 q 691 1263 672 1267 q 718 1254 710 1258 q 664 1129 708 1174 q 532 1085 619 1085 z "},"Ǒ":{"ha":1064,"x_min":94,"x_max":969,"o":"m 507 0 q 412 15 464 0 q 310 51 360 29 q 220 99 260 74 q 163 144 181 124 q 112 265 129 185 q 94 443 94 344 q 103 604 94 525 q 126 748 113 683 q 156 847 140 813 q 234 899 188 872 q 338 949 281 925 q 456 986 394 972 q 578 1000 517 1000 q 662 988 614 1000 q 759 958 710 976 q 848 916 808 939 q 908 869 888 893 q 942 788 929 838 q 963 678 956 738 q 969 554 969 618 q 960 397 969 475 q 937 253 951 318 q 904 149 922 189 q 810 85 872 121 q 670 25 749 50 q 507 0 592 0 m 539 104 q 619 115 576 104 q 699 140 663 125 q 751 167 736 156 q 780 260 768 206 q 798 378 792 314 q 804 513 804 443 q 794 676 804 601 q 769 801 785 751 q 736 826 763 811 q 674 857 710 842 q 602 883 639 872 q 538 893 565 893 q 460 885 504 893 q 376 866 417 878 q 307 842 335 854 q 280 748 292 803 q 263 630 268 693 q 257 501 257 567 q 268 336 257 417 q 306 200 279 256 q 347 169 318 186 q 412 138 376 153 q 482 113 447 122 q 539 104 517 104 m 533 1068 q 483 1100 514 1068 q 412 1186 453 1132 q 319 1308 371 1240 q 338 1331 325 1319 q 363 1344 350 1342 l 535 1203 l 703 1344 q 728 1331 715 1340 q 746 1310 740 1321 q 653 1184 693 1239 q 583 1099 613 1129 q 533 1068 553 1068 z "},"Ô":{"ha":1064,"x_min":94,"x_max":969,"o":"m 507 0 q 412 15 464 0 q 310 51 360 29 q 220 99 260 74 q 163 144 181 124 q 112 265 129 185 q 94 443 94 344 q 103 604 94 525 q 126 748 113 683 q 156 847 140 813 q 234 899 188 872 q 338 949 281 925 q 456 986 394 972 q 578 1000 517 1000 q 662 988 614 1000 q 759 958 710 976 q 848 916 808 939 q 908 869 888 893 q 942 788 929 838 q 963 678 956 738 q 969 554 969 618 q 960 397 969 475 q 937 253 951 318 q 904 149 922 189 q 810 85 872 121 q 670 25 749 50 q 507 0 592 0 m 539 104 q 619 115 576 104 q 699 140 663 125 q 751 167 736 156 q 780 260 768 206 q 798 378 792 314 q 804 513 804 443 q 794 676 804 601 q 769 801 785 751 q 736 826 763 811 q 674 857 710 842 q 602 883 639 872 q 538 893 565 893 q 460 885 504 893 q 376 866 417 878 q 307 842 335 854 q 280 748 292 803 q 263 630 268 693 q 257 501 257 567 q 268 336 257 417 q 306 200 279 256 q 347 169 318 186 q 412 138 376 153 q 482 113 447 122 q 539 104 517 104 m 361 1068 q 335 1083 347 1074 q 319 1103 324 1093 q 415 1231 374 1176 q 485 1315 456 1285 q 533 1344 515 1344 q 583 1313 553 1344 q 653 1227 613 1282 q 746 1103 694 1172 q 730 1084 740 1096 q 703 1068 719 1072 l 532 1210 l 361 1068 z "},"Ố":{"ha":1064,"x_min":94,"x_max":969,"o":"m 507 0 q 412 15 464 0 q 310 51 360 29 q 220 99 260 74 q 163 144 181 124 q 112 265 129 185 q 94 443 94 344 q 103 604 94 525 q 126 748 113 683 q 156 847 140 813 q 234 899 188 872 q 338 949 281 925 q 456 986 394 972 q 578 1000 517 1000 q 662 988 614 1000 q 759 958 710 976 q 848 916 808 939 q 908 869 888 893 q 942 788 929 838 q 963 678 956 738 q 969 554 969 618 q 960 397 969 475 q 937 253 951 318 q 904 149 922 189 q 810 85 872 121 q 670 25 749 50 q 507 0 592 0 m 539 104 q 619 115 576 104 q 699 140 663 125 q 751 167 736 156 q 780 260 768 206 q 798 378 792 314 q 804 513 804 443 q 794 676 804 601 q 769 801 785 751 q 736 826 763 811 q 674 857 710 842 q 602 883 639 872 q 538 893 565 893 q 460 885 504 893 q 376 866 417 878 q 307 842 335 854 q 280 748 292 803 q 263 630 268 693 q 257 501 257 567 q 268 336 257 417 q 306 200 279 256 q 347 169 318 186 q 412 138 376 153 q 482 113 447 122 q 539 104 517 104 m 361 1068 q 335 1083 347 1074 q 319 1103 324 1093 q 415 1231 374 1176 q 485 1315 456 1285 q 533 1344 515 1344 q 583 1313 553 1344 q 653 1227 613 1282 q 746 1103 694 1172 q 730 1084 740 1096 q 703 1068 719 1072 l 532 1210 l 361 1068 m 436 1392 q 405 1408 418 1397 q 386 1426 392 1419 q 483 1553 436 1499 q 566 1638 531 1607 q 615 1668 601 1668 q 645 1654 626 1668 q 681 1619 664 1640 q 706 1578 699 1599 l 436 1392 z "},"Ộ":{"ha":1064,"x_min":94,"x_max":969,"o":"m 507 0 q 412 15 464 0 q 310 51 360 29 q 220 99 260 74 q 163 144 181 124 q 112 265 129 185 q 94 443 94 344 q 103 604 94 525 q 126 748 113 683 q 156 847 140 813 q 234 899 188 872 q 338 949 281 925 q 456 986 394 972 q 578 1000 517 1000 q 662 988 614 1000 q 759 958 710 976 q 848 916 808 939 q 908 869 888 893 q 942 788 929 838 q 963 678 956 738 q 969 554 969 618 q 960 397 969 475 q 937 253 951 318 q 904 149 922 189 q 810 85 872 121 q 670 25 749 50 q 507 0 592 0 m 539 104 q 619 115 576 104 q 699 140 663 125 q 751 167 736 156 q 780 260 768 206 q 798 378 792 314 q 804 513 804 443 q 794 676 804 601 q 769 801 785 751 q 736 826 763 811 q 674 857 710 842 q 602 883 639 872 q 538 893 565 893 q 460 885 504 893 q 376 866 417 878 q 307 842 335 854 q 280 748 292 803 q 263 630 268 693 q 257 501 257 567 q 268 336 257 417 q 306 200 279 256 q 347 169 318 186 q 412 138 376 153 q 482 113 447 122 q 539 104 517 104 m 522 -279 q 497 -267 513 -279 q 467 -236 482 -254 q 443 -200 453 -218 q 433 -171 433 -182 q 447 -146 433 -160 q 479 -119 460 -132 q 518 -97 499 -106 q 549 -87 538 -87 q 574 -100 560 -87 q 602 -131 589 -112 q 624 -168 615 -150 q 633 -199 633 -186 q 613 -231 633 -211 q 566 -265 592 -250 q 522 -279 540 -279 m 361 1068 q 335 1083 347 1074 q 319 1103 324 1093 q 415 1231 374 1176 q 485 1315 456 1285 q 533 1344 515 1344 q 583 1313 553 1344 q 653 1227 613 1282 q 746 1103 694 1172 q 730 1084 740 1096 q 703 1068 719 1072 l 532 1210 l 361 1068 z "},"Ồ":{"ha":1064,"x_min":94,"x_max":969,"o":"m 507 0 q 412 15 464 0 q 310 51 360 29 q 220 99 260 74 q 163 144 181 124 q 112 265 129 185 q 94 443 94 344 q 103 604 94 525 q 126 748 113 683 q 156 847 140 813 q 234 899 188 872 q 338 949 281 925 q 456 986 394 972 q 578 1000 517 1000 q 662 988 614 1000 q 759 958 710 976 q 848 916 808 939 q 908 869 888 893 q 942 788 929 838 q 963 678 956 738 q 969 554 969 618 q 960 397 969 475 q 937 253 951 318 q 904 149 922 189 q 810 85 872 121 q 670 25 749 50 q 507 0 592 0 m 539 104 q 619 115 576 104 q 699 140 663 125 q 751 167 736 156 q 780 260 768 206 q 798 378 792 314 q 804 513 804 443 q 794 676 804 601 q 769 801 785 751 q 736 826 763 811 q 674 857 710 842 q 602 883 639 872 q 538 893 565 893 q 460 885 504 893 q 376 866 417 878 q 307 842 335 854 q 280 748 292 803 q 263 630 268 693 q 257 501 257 567 q 268 336 257 417 q 306 200 279 256 q 347 169 318 186 q 412 138 376 153 q 482 113 447 122 q 539 104 517 104 m 361 1068 q 335 1083 347 1074 q 319 1103 324 1093 q 415 1231 374 1176 q 485 1315 456 1285 q 533 1344 515 1344 q 583 1313 553 1344 q 653 1227 613 1282 q 746 1103 694 1172 q 730 1084 740 1096 q 703 1068 719 1072 l 532 1210 l 361 1068 m 621 1392 l 353 1578 q 376 1618 360 1597 q 412 1653 393 1639 q 442 1668 431 1668 q 490 1638 456 1668 q 573 1554 525 1608 q 672 1426 621 1500 q 649 1406 665 1417 q 621 1392 633 1394 z "},"Ổ":{"ha":1064,"x_min":94,"x_max":969,"o":"m 507 0 q 412 15 464 0 q 310 51 360 29 q 220 99 260 74 q 163 144 181 124 q 112 265 129 185 q 94 443 94 344 q 103 604 94 525 q 126 748 113 683 q 156 847 140 813 q 234 899 188 872 q 338 949 281 925 q 456 986 394 972 q 578 1000 517 1000 q 662 988 614 1000 q 759 958 710 976 q 848 916 808 939 q 908 869 888 893 q 942 788 929 838 q 963 678 956 738 q 969 554 969 618 q 960 397 969 475 q 937 253 951 318 q 904 149 922 189 q 810 85 872 121 q 670 25 749 50 q 507 0 592 0 m 539 104 q 619 115 576 104 q 699 140 663 125 q 751 167 736 156 q 780 260 768 206 q 798 378 792 314 q 804 513 804 443 q 794 676 804 601 q 769 801 785 751 q 736 826 763 811 q 674 857 710 842 q 602 883 639 872 q 538 893 565 893 q 460 885 504 893 q 376 866 417 878 q 307 842 335 854 q 280 748 292 803 q 263 630 268 693 q 257 501 257 567 q 268 336 257 417 q 306 200 279 256 q 347 169 318 186 q 412 138 376 153 q 482 113 447 122 q 539 104 517 104 m 361 1068 q 335 1083 347 1074 q 319 1103 324 1093 q 415 1231 374 1176 q 485 1315 456 1285 q 533 1344 515 1344 q 583 1313 553 1344 q 653 1227 613 1282 q 746 1103 694 1172 q 730 1084 740 1096 q 703 1068 719 1072 l 532 1210 l 361 1068 m 506 1357 q 494 1403 499 1381 q 486 1449 489 1426 q 560 1464 538 1457 q 588 1488 582 1471 q 593 1540 593 1504 q 516 1551 554 1549 q 429 1554 478 1554 q 425 1572 428 1557 q 422 1597 422 1588 q 442 1612 428 1604 q 474 1625 457 1619 q 501 1631 492 1631 q 539 1625 514 1631 q 593 1609 564 1619 q 644 1583 622 1599 q 666 1533 660 1565 q 672 1479 672 1500 q 656 1453 672 1468 q 616 1424 640 1438 q 567 1404 592 1410 l 551 1357 l 506 1357 z "},"Ỗ":{"ha":1064,"x_min":94,"x_max":969,"o":"m 507 0 q 412 15 464 0 q 310 51 360 29 q 220 99 260 74 q 163 144 181 124 q 112 265 129 185 q 94 443 94 344 q 103 604 94 525 q 126 748 113 683 q 156 847 140 813 q 234 899 188 872 q 338 949 281 925 q 456 986 394 972 q 578 1000 517 1000 q 662 988 614 1000 q 759 958 710 976 q 848 916 808 939 q 908 869 888 893 q 942 788 929 838 q 963 678 956 738 q 969 554 969 618 q 960 397 969 475 q 937 253 951 318 q 904 149 922 189 q 810 85 872 121 q 670 25 749 50 q 507 0 592 0 m 539 104 q 619 115 576 104 q 699 140 663 125 q 751 167 736 156 q 780 260 768 206 q 798 378 792 314 q 804 513 804 443 q 794 676 804 601 q 769 801 785 751 q 736 826 763 811 q 674 857 710 842 q 602 883 639 872 q 538 893 565 893 q 460 885 504 893 q 376 866 417 878 q 307 842 335 854 q 280 748 292 803 q 263 630 268 693 q 257 501 257 567 q 268 336 257 417 q 306 200 279 256 q 347 169 318 186 q 412 138 376 153 q 482 113 447 122 q 539 104 517 104 m 361 1068 q 335 1083 347 1074 q 319 1103 324 1093 q 415 1231 374 1176 q 485 1315 456 1285 q 533 1344 515 1344 q 583 1313 553 1344 q 653 1227 613 1282 q 746 1103 694 1172 q 730 1084 740 1096 q 703 1068 719 1072 l 532 1210 l 361 1068 m 663 1404 q 599 1418 644 1404 q 500 1452 554 1432 q 400 1490 446 1472 l 297 1417 q 280 1426 289 1419 q 265 1446 271 1433 q 307 1510 283 1476 q 355 1566 331 1543 q 397 1589 379 1589 q 461 1576 415 1589 q 563 1544 507 1563 q 667 1508 619 1526 l 763 1596 q 786 1583 776 1590 q 800 1569 796 1576 q 756 1496 782 1535 q 706 1431 731 1457 q 663 1404 681 1404 z "},"Ȍ":{"ha":1064,"x_min":94,"x_max":969,"o":"m 507 0 q 412 15 464 0 q 310 51 360 29 q 220 99 260 74 q 163 144 181 124 q 112 265 129 185 q 94 443 94 344 q 103 604 94 525 q 126 748 113 683 q 156 847 140 813 q 234 899 188 872 q 338 949 281 925 q 456 986 394 972 q 578 1000 517 1000 q 662 988 614 1000 q 759 958 710 976 q 848 916 808 939 q 908 869 888 893 q 942 788 929 838 q 963 678 956 738 q 969 554 969 618 q 960 397 969 475 q 937 253 951 318 q 904 149 922 189 q 810 85 872 121 q 670 25 749 50 q 507 0 592 0 m 539 104 q 619 115 576 104 q 699 140 663 125 q 751 167 736 156 q 780 260 768 206 q 798 378 792 314 q 804 513 804 443 q 794 676 804 601 q 769 801 785 751 q 736 826 763 811 q 674 857 710 842 q 602 883 639 872 q 538 893 565 893 q 460 885 504 893 q 376 866 417 878 q 307 842 335 854 q 280 748 292 803 q 263 630 268 693 q 257 501 257 567 q 268 336 257 417 q 306 200 279 256 q 347 169 318 186 q 412 138 376 153 q 482 113 447 122 q 539 104 517 104 m 453 1068 l 199 1250 q 222 1291 206 1271 q 256 1324 238 1311 q 283 1338 274 1338 q 331 1307 297 1338 q 409 1224 364 1276 q 499 1101 454 1171 q 481 1083 493 1093 q 453 1068 468 1074 m 682 1068 l 426 1250 q 449 1290 433 1269 q 483 1324 465 1310 q 513 1338 501 1338 q 559 1307 525 1338 q 638 1224 593 1276 q 728 1101 683 1171 q 708 1082 722 1093 q 682 1068 694 1071 z "},"Ö":{"ha":1064,"x_min":94,"x_max":969,"o":"m 507 0 q 412 15 464 0 q 310 51 360 29 q 220 99 260 74 q 163 144 181 124 q 112 265 129 185 q 94 443 94 344 q 103 604 94 525 q 126 748 113 683 q 156 847 140 813 q 234 899 188 872 q 338 949 281 925 q 456 986 394 972 q 578 1000 517 1000 q 662 988 614 1000 q 759 958 710 976 q 848 916 808 939 q 908 869 888 893 q 942 788 929 838 q 963 678 956 738 q 969 554 969 618 q 960 397 969 475 q 937 253 951 318 q 904 149 922 189 q 810 85 872 121 q 670 25 749 50 q 507 0 592 0 m 539 104 q 619 115 576 104 q 699 140 663 125 q 751 167 736 156 q 780 260 768 206 q 798 378 792 314 q 804 513 804 443 q 794 676 804 601 q 769 801 785 751 q 736 826 763 811 q 674 857 710 842 q 602 883 639 872 q 538 893 565 893 q 460 885 504 893 q 376 866 417 878 q 307 842 335 854 q 280 748 292 803 q 263 630 268 693 q 257 501 257 567 q 268 336 257 417 q 306 200 279 256 q 347 169 318 186 q 412 138 376 153 q 482 113 447 122 q 539 104 517 104 m 671 1082 q 646 1094 661 1082 q 615 1124 631 1106 q 590 1159 600 1142 q 581 1188 581 1176 q 594 1213 581 1199 q 627 1240 607 1226 q 666 1261 647 1253 q 696 1269 685 1269 q 722 1257 707 1269 q 750 1226 736 1244 q 773 1190 764 1208 q 782 1161 782 1172 q 769 1138 782 1151 q 739 1112 757 1125 q 702 1090 721 1099 q 671 1082 683 1082 m 375 1082 q 350 1094 365 1082 q 320 1124 335 1106 q 295 1159 306 1142 q 285 1188 285 1176 q 299 1213 285 1199 q 332 1240 313 1226 q 371 1261 351 1253 q 401 1269 390 1269 q 426 1258 413 1269 q 455 1228 440 1246 q 478 1192 469 1210 q 488 1161 488 1174 q 475 1138 488 1151 q 444 1112 463 1125 q 407 1090 426 1099 q 375 1082 388 1082 z "},"Ȫ":{"ha":1064,"x_min":94,"x_max":969,"o":"m 507 0 q 412 15 464 0 q 310 51 360 29 q 220 99 260 74 q 163 144 181 124 q 112 265 129 185 q 94 443 94 344 q 103 604 94 525 q 126 748 113 683 q 156 847 140 813 q 234 899 188 872 q 338 949 281 925 q 456 986 394 972 q 578 1000 517 1000 q 662 988 614 1000 q 759 958 710 976 q 848 916 808 939 q 908 869 888 893 q 942 788 929 838 q 963 678 956 738 q 969 554 969 618 q 960 397 969 475 q 937 253 951 318 q 904 149 922 189 q 810 85 872 121 q 670 25 749 50 q 507 0 592 0 m 539 104 q 619 115 576 104 q 699 140 663 125 q 751 167 736 156 q 780 260 768 206 q 798 378 792 314 q 804 513 804 443 q 794 676 804 601 q 769 801 785 751 q 736 826 763 811 q 674 857 710 842 q 602 883 639 872 q 538 893 565 893 q 460 885 504 893 q 376 866 417 878 q 307 842 335 854 q 280 748 292 803 q 263 630 268 693 q 257 501 257 567 q 268 336 257 417 q 306 200 279 256 q 347 169 318 186 q 412 138 376 153 q 482 113 447 122 q 539 104 517 104 m 671 1082 q 646 1094 661 1082 q 615 1124 631 1106 q 590 1159 600 1142 q 581 1188 581 1176 q 594 1213 581 1199 q 627 1240 607 1226 q 666 1261 647 1253 q 696 1269 685 1269 q 722 1257 707 1269 q 750 1226 736 1244 q 773 1190 764 1208 q 782 1161 782 1172 q 769 1138 782 1151 q 739 1112 757 1125 q 702 1090 721 1099 q 671 1082 683 1082 m 375 1082 q 350 1094 365 1082 q 320 1124 335 1106 q 295 1159 306 1142 q 285 1188 285 1176 q 299 1213 285 1199 q 332 1240 313 1226 q 371 1261 351 1253 q 401 1269 390 1269 q 426 1258 413 1269 q 455 1228 440 1246 q 478 1192 469 1210 q 488 1161 488 1174 q 475 1138 488 1151 q 444 1112 463 1125 q 407 1090 426 1099 q 375 1082 388 1082 m 306 1354 q 311 1409 306 1386 q 322 1438 317 1432 q 428 1440 367 1438 q 554 1445 490 1442 q 669 1452 618 1449 q 746 1457 721 1456 l 761 1444 q 754 1390 760 1414 q 744 1354 749 1365 l 306 1354 z "},"Ȱ":{"ha":1064,"x_min":94,"x_max":969,"o":"m 507 0 q 412 15 464 0 q 310 51 360 29 q 220 99 260 74 q 163 144 181 124 q 112 265 129 185 q 94 443 94 344 q 103 604 94 525 q 126 748 113 683 q 156 847 140 813 q 234 899 188 872 q 338 949 281 925 q 456 986 394 972 q 578 1000 517 1000 q 662 988 614 1000 q 759 958 710 976 q 848 916 808 939 q 908 869 888 893 q 942 788 929 838 q 963 678 956 738 q 969 554 969 618 q 960 397 969 475 q 937 253 951 318 q 904 149 922 189 q 810 85 872 121 q 670 25 749 50 q 507 0 592 0 m 539 104 q 619 115 576 104 q 699 140 663 125 q 751 167 736 156 q 780 260 768 206 q 798 378 792 314 q 804 513 804 443 q 794 676 804 601 q 769 801 785 751 q 736 826 763 811 q 674 857 710 842 q 602 883 639 872 q 538 893 565 893 q 460 885 504 893 q 376 866 417 878 q 307 842 335 854 q 280 748 292 803 q 263 630 268 693 q 257 501 257 567 q 268 336 257 417 q 306 200 279 256 q 347 169 318 186 q 412 138 376 153 q 482 113 447 122 q 539 104 517 104 m 521 1110 q 494 1123 511 1110 q 463 1155 478 1136 q 436 1192 447 1174 q 425 1224 425 1211 q 440 1250 425 1235 q 475 1279 454 1265 q 516 1302 496 1293 q 549 1311 536 1311 q 575 1298 560 1311 q 605 1265 590 1285 q 629 1226 619 1246 q 639 1194 639 1207 q 626 1170 639 1185 q 593 1142 613 1156 q 554 1119 574 1128 q 521 1110 535 1110 m 306 1396 q 311 1451 306 1428 q 322 1479 317 1474 q 428 1481 367 1479 q 554 1487 490 1483 q 669 1494 618 1490 q 746 1499 721 1497 l 761 1486 q 754 1431 760 1456 q 744 1396 749 1407 l 306 1396 z "},"Ọ":{"ha":1064,"x_min":94,"x_max":969,"o":"m 507 0 q 412 15 464 0 q 310 51 360 29 q 220 99 260 74 q 163 144 181 124 q 112 265 129 185 q 94 443 94 344 q 103 604 94 525 q 126 748 113 683 q 156 847 140 813 q 234 899 188 872 q 338 949 281 925 q 456 986 394 972 q 578 1000 517 1000 q 662 988 614 1000 q 759 958 710 976 q 848 916 808 939 q 908 869 888 893 q 942 788 929 838 q 963 678 956 738 q 969 554 969 618 q 960 397 969 475 q 937 253 951 318 q 904 149 922 189 q 810 85 872 121 q 670 25 749 50 q 507 0 592 0 m 539 104 q 619 115 576 104 q 699 140 663 125 q 751 167 736 156 q 780 260 768 206 q 798 378 792 314 q 804 513 804 443 q 794 676 804 601 q 769 801 785 751 q 736 826 763 811 q 674 857 710 842 q 602 883 639 872 q 538 893 565 893 q 460 885 504 893 q 376 866 417 878 q 307 842 335 854 q 280 748 292 803 q 263 630 268 693 q 257 501 257 567 q 268 336 257 417 q 306 200 279 256 q 347 169 318 186 q 412 138 376 153 q 482 113 447 122 q 539 104 517 104 m 522 -279 q 497 -267 513 -279 q 467 -236 482 -254 q 443 -200 453 -218 q 433 -171 433 -182 q 447 -146 433 -160 q 479 -119 460 -132 q 518 -97 499 -106 q 549 -87 538 -87 q 574 -100 560 -87 q 602 -131 589 -112 q 624 -168 615 -150 q 633 -199 633 -186 q 613 -231 633 -211 q 566 -265 592 -250 q 522 -279 540 -279 z "},"Ò":{"ha":1064,"x_min":94,"x_max":969,"o":"m 507 0 q 412 15 464 0 q 310 51 360 29 q 220 99 260 74 q 163 144 181 124 q 112 265 129 185 q 94 443 94 344 q 103 604 94 525 q 126 748 113 683 q 156 847 140 813 q 234 899 188 872 q 338 949 281 925 q 456 986 394 972 q 578 1000 517 1000 q 662 988 614 1000 q 759 958 710 976 q 848 916 808 939 q 908 869 888 893 q 942 788 929 838 q 963 678 956 738 q 969 554 969 618 q 960 397 969 475 q 937 253 951 318 q 904 149 922 189 q 810 85 872 121 q 670 25 749 50 q 507 0 592 0 m 539 104 q 619 115 576 104 q 699 140 663 125 q 751 167 736 156 q 780 260 768 206 q 798 378 792 314 q 804 513 804 443 q 794 676 804 601 q 769 801 785 751 q 736 826 763 811 q 674 857 710 842 q 602 883 639 872 q 538 893 565 893 q 460 885 504 893 q 376 866 417 878 q 307 842 335 854 q 280 748 292 803 q 263 630 268 693 q 257 501 257 567 q 268 336 257 417 q 306 200 279 256 q 347 169 318 186 q 412 138 376 153 q 482 113 447 122 q 539 104 517 104 m 621 1068 l 353 1254 q 376 1294 360 1274 q 412 1330 393 1315 q 442 1344 431 1344 q 490 1315 456 1344 q 573 1231 525 1285 q 672 1103 621 1176 q 649 1082 665 1093 q 621 1068 633 1071 z "},"Ỏ":{"ha":1064,"x_min":94,"x_max":969,"o":"m 507 0 q 412 15 464 0 q 310 51 360 29 q 220 99 260 74 q 163 144 181 124 q 112 265 129 185 q 94 443 94 344 q 103 604 94 525 q 126 748 113 683 q 156 847 140 813 q 234 899 188 872 q 338 949 281 925 q 456 986 394 972 q 578 1000 517 1000 q 662 988 614 1000 q 759 958 710 976 q 848 916 808 939 q 908 869 888 893 q 942 788 929 838 q 963 678 956 738 q 969 554 969 618 q 960 397 969 475 q 937 253 951 318 q 904 149 922 189 q 810 85 872 121 q 670 25 749 50 q 507 0 592 0 m 539 104 q 619 115 576 104 q 699 140 663 125 q 751 167 736 156 q 780 260 768 206 q 798 378 792 314 q 804 513 804 443 q 794 676 804 601 q 769 801 785 751 q 736 826 763 811 q 674 857 710 842 q 602 883 639 872 q 538 893 565 893 q 460 885 504 893 q 376 866 417 878 q 307 842 335 854 q 280 748 292 803 q 263 630 268 693 q 257 501 257 567 q 268 336 257 417 q 306 200 279 256 q 347 169 318 186 q 412 138 376 153 q 482 113 447 122 q 539 104 517 104 m 506 1033 q 494 1080 499 1057 q 486 1125 489 1103 q 560 1140 538 1133 q 588 1164 582 1147 q 593 1217 593 1181 q 516 1228 554 1225 q 429 1231 478 1231 q 425 1249 428 1233 q 422 1274 422 1264 q 442 1288 428 1281 q 474 1301 457 1296 q 501 1307 492 1307 q 539 1301 514 1307 q 593 1285 564 1296 q 644 1260 622 1275 q 666 1209 660 1242 q 672 1156 672 1176 q 656 1129 672 1144 q 616 1100 640 1114 q 567 1081 592 1086 l 551 1033 l 506 1033 z "},"Ơ":{"ha":1064,"x_min":94,"x_max":969,"o":"m 507 0 q 412 15 464 0 q 310 51 360 29 q 220 99 260 74 q 163 144 181 124 q 112 265 129 185 q 94 443 94 344 q 103 604 94 525 q 126 748 113 683 q 156 847 140 813 q 234 899 188 872 q 338 949 281 925 q 456 986 394 972 q 578 1000 517 1000 q 662 988 614 1000 q 759 958 710 976 q 848 916 808 939 q 908 869 888 893 q 942 788 929 838 q 963 678 956 738 q 969 554 969 618 q 960 397 969 475 q 937 253 951 318 q 904 149 922 189 q 810 85 872 121 q 670 25 749 50 q 507 0 592 0 m 539 104 q 619 115 576 104 q 699 140 663 125 q 751 167 736 156 q 780 260 768 206 q 798 378 792 314 q 804 513 804 443 q 794 676 804 601 q 769 801 785 751 q 736 826 763 811 q 674 857 710 842 q 602 883 639 872 q 538 893 565 893 q 460 885 504 893 q 376 866 417 878 q 307 842 335 854 q 280 748 292 803 q 263 630 268 693 q 257 501 257 567 q 268 336 257 417 q 306 200 279 256 q 347 169 318 186 q 412 138 376 153 q 482 113 447 122 q 539 104 517 104 m 697 947 l 697 978 l 754 978 q 817 984 792 978 q 856 1004 843 990 q 868 1043 868 1018 q 860 1091 868 1060 q 846 1144 853 1122 q 876 1155 861 1151 q 903 1158 890 1158 q 927 1148 913 1158 q 953 1123 942 1138 q 964 1096 964 1108 q 946 1015 964 1050 q 883 959 928 979 q 758 939 839 939 q 731 940 749 939 q 697 947 713 942 z "},"Ớ":{"ha":1064,"x_min":94,"x_max":969,"o":"m 507 0 q 412 15 464 0 q 310 51 360 29 q 220 99 260 74 q 163 144 181 124 q 112 265 129 185 q 94 443 94 344 q 103 604 94 525 q 126 748 113 683 q 156 847 140 813 q 234 899 188 872 q 338 949 281 925 q 456 986 394 972 q 578 1000 517 1000 q 662 988 614 1000 q 759 958 710 976 q 848 916 808 939 q 908 869 888 893 q 942 788 929 838 q 963 678 956 738 q 969 554 969 618 q 960 397 969 475 q 937 253 951 318 q 904 149 922 189 q 810 85 872 121 q 670 25 749 50 q 507 0 592 0 m 539 104 q 619 115 576 104 q 699 140 663 125 q 751 167 736 156 q 780 260 768 206 q 798 378 792 314 q 804 513 804 443 q 794 676 804 601 q 769 801 785 751 q 736 826 763 811 q 674 857 710 842 q 602 883 639 872 q 538 893 565 893 q 460 885 504 893 q 376 866 417 878 q 307 842 335 854 q 280 748 292 803 q 263 630 268 693 q 257 501 257 567 q 268 336 257 417 q 306 200 279 256 q 347 169 318 186 q 412 138 376 153 q 482 113 447 122 q 539 104 517 104 m 697 947 l 697 978 l 754 978 q 817 984 792 978 q 856 1004 843 990 q 868 1043 868 1018 q 860 1091 868 1060 q 846 1144 853 1122 q 876 1155 861 1151 q 903 1158 890 1158 q 927 1148 913 1158 q 953 1123 942 1138 q 964 1096 964 1108 q 946 1015 964 1050 q 883 959 928 979 q 758 939 839 939 q 731 940 749 939 q 697 947 713 942 m 400 1068 q 369 1085 382 1074 q 350 1103 356 1096 q 447 1229 400 1175 q 530 1314 494 1283 q 579 1344 565 1344 q 609 1331 590 1344 q 645 1296 628 1317 q 669 1254 663 1275 l 400 1068 z "},"Ợ":{"ha":1064,"x_min":94,"x_max":969,"o":"m 507 0 q 412 15 464 0 q 310 51 360 29 q 220 99 260 74 q 163 144 181 124 q 112 265 129 185 q 94 443 94 344 q 103 604 94 525 q 126 748 113 683 q 156 847 140 813 q 234 899 188 872 q 338 949 281 925 q 456 986 394 972 q 578 1000 517 1000 q 662 988 614 1000 q 759 958 710 976 q 848 916 808 939 q 908 869 888 893 q 942 788 929 838 q 963 678 956 738 q 969 554 969 618 q 960 397 969 475 q 937 253 951 318 q 904 149 922 189 q 810 85 872 121 q 670 25 749 50 q 507 0 592 0 m 539 104 q 619 115 576 104 q 699 140 663 125 q 751 167 736 156 q 780 260 768 206 q 798 378 792 314 q 804 513 804 443 q 794 676 804 601 q 769 801 785 751 q 736 826 763 811 q 674 857 710 842 q 602 883 639 872 q 538 893 565 893 q 460 885 504 893 q 376 866 417 878 q 307 842 335 854 q 280 748 292 803 q 263 630 268 693 q 257 501 257 567 q 268 336 257 417 q 306 200 279 256 q 347 169 318 186 q 412 138 376 153 q 482 113 447 122 q 539 104 517 104 m 697 947 l 697 978 l 754 978 q 817 984 792 978 q 856 1004 843 990 q 868 1043 868 1018 q 860 1091 868 1060 q 846 1144 853 1122 q 876 1155 861 1151 q 903 1158 890 1158 q 927 1148 913 1158 q 953 1123 942 1138 q 964 1096 964 1108 q 946 1015 964 1050 q 883 959 928 979 q 758 939 839 939 q 731 940 749 939 q 697 947 713 942 m 486 -279 q 461 -267 476 -279 q 431 -236 446 -254 q 407 -200 417 -218 q 397 -171 397 -182 q 410 -146 397 -160 q 443 -119 424 -132 q 482 -97 463 -106 q 513 -87 501 -87 q 538 -100 524 -87 q 566 -131 553 -112 q 588 -168 579 -150 q 597 -199 597 -186 q 576 -231 597 -211 q 530 -265 556 -250 q 486 -279 504 -279 z "},"Ờ":{"ha":1064,"x_min":94,"x_max":969,"o":"m 507 0 q 412 15 464 0 q 310 51 360 29 q 220 99 260 74 q 163 144 181 124 q 112 265 129 185 q 94 443 94 344 q 103 604 94 525 q 126 748 113 683 q 156 847 140 813 q 234 899 188 872 q 338 949 281 925 q 456 986 394 972 q 578 1000 517 1000 q 662 988 614 1000 q 759 958 710 976 q 848 916 808 939 q 908 869 888 893 q 942 788 929 838 q 963 678 956 738 q 969 554 969 618 q 960 397 969 475 q 937 253 951 318 q 904 149 922 189 q 810 85 872 121 q 670 25 749 50 q 507 0 592 0 m 539 104 q 619 115 576 104 q 699 140 663 125 q 751 167 736 156 q 780 260 768 206 q 798 378 792 314 q 804 513 804 443 q 794 676 804 601 q 769 801 785 751 q 736 826 763 811 q 674 857 710 842 q 602 883 639 872 q 538 893 565 893 q 460 885 504 893 q 376 866 417 878 q 307 842 335 854 q 280 748 292 803 q 263 630 268 693 q 257 501 257 567 q 268 336 257 417 q 306 200 279 256 q 347 169 318 186 q 412 138 376 153 q 482 113 447 122 q 539 104 517 104 m 697 947 l 697 978 l 754 978 q 817 984 792 978 q 856 1004 843 990 q 868 1043 868 1018 q 860 1091 868 1060 q 846 1144 853 1122 q 876 1155 861 1151 q 903 1158 890 1158 q 927 1148 913 1158 q 953 1123 942 1138 q 964 1096 964 1108 q 946 1015 964 1050 q 883 959 928 979 q 758 939 839 939 q 731 940 749 939 q 697 947 713 942 m 585 1068 l 317 1254 q 340 1294 324 1274 q 376 1330 357 1315 q 406 1344 394 1344 q 454 1315 419 1344 q 537 1231 489 1285 q 636 1103 585 1176 q 613 1082 629 1093 q 585 1068 597 1071 z "},"Ở":{"ha":1064,"x_min":94,"x_max":969,"o":"m 507 0 q 412 15 464 0 q 310 51 360 29 q 220 99 260 74 q 163 144 181 124 q 112 265 129 185 q 94 443 94 344 q 103 604 94 525 q 126 748 113 683 q 156 847 140 813 q 234 899 188 872 q 338 949 281 925 q 456 986 394 972 q 578 1000 517 1000 q 662 988 614 1000 q 759 958 710 976 q 848 916 808 939 q 908 869 888 893 q 942 788 929 838 q 963 678 956 738 q 969 554 969 618 q 960 397 969 475 q 937 253 951 318 q 904 149 922 189 q 810 85 872 121 q 670 25 749 50 q 507 0 592 0 m 539 104 q 619 115 576 104 q 699 140 663 125 q 751 167 736 156 q 780 260 768 206 q 798 378 792 314 q 804 513 804 443 q 794 676 804 601 q 769 801 785 751 q 736 826 763 811 q 674 857 710 842 q 602 883 639 872 q 538 893 565 893 q 460 885 504 893 q 376 866 417 878 q 307 842 335 854 q 280 748 292 803 q 263 630 268 693 q 257 501 257 567 q 268 336 257 417 q 306 200 279 256 q 347 169 318 186 q 412 138 376 153 q 482 113 447 122 q 539 104 517 104 m 697 947 l 697 978 l 754 978 q 817 984 792 978 q 856 1004 843 990 q 868 1043 868 1018 q 860 1091 868 1060 q 846 1144 853 1122 q 876 1155 861 1151 q 903 1158 890 1158 q 927 1148 913 1158 q 953 1123 942 1138 q 964 1096 964 1108 q 946 1015 964 1050 q 883 959 928 979 q 758 939 839 939 q 731 940 749 939 q 697 947 713 942 m 469 1033 q 458 1080 463 1057 q 450 1125 453 1103 q 524 1140 501 1133 q 551 1164 546 1147 q 557 1217 557 1181 q 480 1228 518 1225 q 393 1231 442 1231 q 389 1249 392 1233 q 386 1274 386 1264 q 406 1288 392 1281 q 438 1301 421 1296 q 465 1307 456 1307 q 503 1301 478 1307 q 557 1285 528 1296 q 608 1260 586 1275 q 630 1209 624 1242 q 636 1156 636 1176 q 620 1129 636 1144 q 580 1100 604 1114 q 531 1081 556 1086 l 515 1033 l 469 1033 z "},"Ỡ":{"ha":1064,"x_min":94,"x_max":969,"o":"m 507 0 q 412 15 464 0 q 310 51 360 29 q 220 99 260 74 q 163 144 181 124 q 112 265 129 185 q 94 443 94 344 q 103 604 94 525 q 126 748 113 683 q 156 847 140 813 q 234 899 188 872 q 338 949 281 925 q 456 986 394 972 q 578 1000 517 1000 q 662 988 614 1000 q 759 958 710 976 q 848 916 808 939 q 908 869 888 893 q 942 788 929 838 q 963 678 956 738 q 969 554 969 618 q 960 397 969 475 q 937 253 951 318 q 904 149 922 189 q 810 85 872 121 q 670 25 749 50 q 507 0 592 0 m 539 104 q 619 115 576 104 q 699 140 663 125 q 751 167 736 156 q 780 260 768 206 q 798 378 792 314 q 804 513 804 443 q 794 676 804 601 q 769 801 785 751 q 736 826 763 811 q 674 857 710 842 q 602 883 639 872 q 538 893 565 893 q 460 885 504 893 q 376 866 417 878 q 307 842 335 854 q 280 748 292 803 q 263 630 268 693 q 257 501 257 567 q 268 336 257 417 q 306 200 279 256 q 347 169 318 186 q 412 138 376 153 q 482 113 447 122 q 539 104 517 104 m 697 947 l 697 978 l 754 978 q 817 984 792 978 q 856 1004 843 990 q 868 1043 868 1018 q 860 1091 868 1060 q 846 1144 853 1122 q 876 1155 861 1151 q 903 1158 890 1158 q 927 1148 913 1158 q 953 1123 942 1138 q 964 1096 964 1108 q 946 1015 964 1050 q 883 959 928 979 q 758 939 839 939 q 731 940 749 939 q 697 947 713 942 m 626 1081 q 563 1094 608 1081 q 464 1128 518 1108 q 364 1167 410 1149 l 261 1093 q 244 1103 253 1096 q 229 1122 235 1110 q 271 1186 247 1153 q 319 1242 294 1219 q 361 1265 343 1265 q 425 1252 379 1265 q 527 1221 471 1239 q 631 1185 583 1203 l 726 1272 q 750 1260 740 1267 q 764 1246 760 1253 q 720 1172 746 1211 q 669 1107 694 1133 q 626 1081 644 1081 z "},"Ő":{"ha":1064,"x_min":94,"x_max":969,"o":"m 507 0 q 412 15 464 0 q 310 51 360 29 q 220 99 260 74 q 163 144 181 124 q 112 265 129 185 q 94 443 94 344 q 103 604 94 525 q 126 748 113 683 q 156 847 140 813 q 234 899 188 872 q 338 949 281 925 q 456 986 394 972 q 578 1000 517 1000 q 662 988 614 1000 q 759 958 710 976 q 848 916 808 939 q 908 869 888 893 q 942 788 929 838 q 963 678 956 738 q 969 554 969 618 q 960 397 969 475 q 937 253 951 318 q 904 149 922 189 q 810 85 872 121 q 670 25 749 50 q 507 0 592 0 m 539 104 q 619 115 576 104 q 699 140 663 125 q 751 167 736 156 q 780 260 768 206 q 798 378 792 314 q 804 513 804 443 q 794 676 804 601 q 769 801 785 751 q 736 826 763 811 q 674 857 710 842 q 602 883 639 872 q 538 893 565 893 q 460 885 504 893 q 376 866 417 878 q 307 842 335 854 q 280 748 292 803 q 263 630 268 693 q 257 501 257 567 q 268 336 257 417 q 306 200 279 256 q 347 169 318 186 q 412 138 376 153 q 482 113 447 122 q 539 104 517 104 m 621 1068 q 590 1085 603 1075 q 571 1103 578 1094 q 667 1228 619 1174 q 750 1314 714 1283 q 800 1344 786 1344 q 830 1331 813 1344 q 865 1297 847 1317 q 889 1254 882 1276 l 621 1068 m 379 1068 q 353 1081 367 1071 q 329 1103 339 1090 q 426 1229 379 1175 q 509 1314 474 1283 q 558 1344 544 1344 q 588 1331 569 1344 q 624 1296 607 1317 q 649 1254 642 1275 l 379 1068 z "},"Ȏ":{"ha":1064,"x_min":94,"x_max":969,"o":"m 507 0 q 412 15 464 0 q 310 51 360 29 q 220 99 260 74 q 163 144 181 124 q 112 265 129 185 q 94 443 94 344 q 103 604 94 525 q 126 748 113 683 q 156 847 140 813 q 234 899 188 872 q 338 949 281 925 q 456 986 394 972 q 578 1000 517 1000 q 662 988 614 1000 q 759 958 710 976 q 848 916 808 939 q 908 869 888 893 q 942 788 929 838 q 963 678 956 738 q 969 554 969 618 q 960 397 969 475 q 937 253 951 318 q 904 149 922 189 q 810 85 872 121 q 670 25 749 50 q 507 0 592 0 m 539 104 q 619 115 576 104 q 699 140 663 125 q 751 167 736 156 q 780 260 768 206 q 798 378 792 314 q 804 513 804 443 q 794 676 804 601 q 769 801 785 751 q 736 826 763 811 q 674 857 710 842 q 602 883 639 872 q 538 893 565 893 q 460 885 504 893 q 376 866 417 878 q 307 842 335 854 q 280 748 292 803 q 263 630 268 693 q 257 501 257 567 q 268 336 257 417 q 306 200 279 256 q 347 169 318 186 q 412 138 376 153 q 482 113 447 122 q 539 104 517 104 m 532 1257 q 658 1212 618 1257 q 708 1090 699 1167 q 684 1082 701 1086 q 642 1078 667 1078 q 607 1149 632 1131 q 532 1167 582 1167 q 458 1149 482 1167 q 422 1078 433 1131 q 383 1082 400 1078 q 357 1090 365 1086 q 405 1210 365 1163 q 532 1257 444 1257 z "},"Ō":{"ha":1064,"x_min":94,"x_max":969,"o":"m 507 0 q 412 15 464 0 q 310 51 360 29 q 220 99 260 74 q 163 144 181 124 q 112 265 129 185 q 94 443 94 344 q 103 604 94 525 q 126 748 113 683 q 156 847 140 813 q 234 899 188 872 q 338 949 281 925 q 456 986 394 972 q 578 1000 517 1000 q 662 988 614 1000 q 759 958 710 976 q 848 916 808 939 q 908 869 888 893 q 942 788 929 838 q 963 678 956 738 q 969 554 969 618 q 960 397 969 475 q 937 253 951 318 q 904 149 922 189 q 810 85 872 121 q 670 25 749 50 q 507 0 592 0 m 539 104 q 619 115 576 104 q 699 140 663 125 q 751 167 736 156 q 780 260 768 206 q 798 378 792 314 q 804 513 804 443 q 794 676 804 601 q 769 801 785 751 q 736 826 763 811 q 674 857 710 842 q 602 883 639 872 q 538 893 565 893 q 460 885 504 893 q 376 866 417 878 q 307 842 335 854 q 280 748 292 803 q 263 630 268 693 q 257 501 257 567 q 268 336 257 417 q 306 200 279 256 q 347 169 318 186 q 412 138 376 153 q 482 113 447 122 q 539 104 517 104 m 306 1089 q 311 1144 306 1121 q 322 1172 317 1167 q 428 1174 367 1172 q 554 1180 490 1176 q 669 1187 618 1183 q 746 1192 721 1190 l 761 1179 q 754 1124 760 1149 q 744 1089 749 1100 l 306 1089 z "},"Ǫ":{"ha":1064,"x_min":94,"x_max":969,"o":"m 507 0 q 412 15 464 0 q 310 51 360 29 q 220 99 260 74 q 163 144 181 124 q 112 265 129 185 q 94 443 94 344 q 103 604 94 525 q 126 748 113 683 q 156 847 140 813 q 234 899 188 872 q 338 949 281 925 q 456 986 394 972 q 578 1000 517 1000 q 662 988 614 1000 q 759 958 710 976 q 848 916 808 939 q 908 869 888 893 q 942 788 929 838 q 963 678 956 738 q 969 554 969 618 q 960 397 969 475 q 937 253 951 318 q 904 149 922 189 q 810 85 872 121 q 670 25 749 50 q 507 0 592 0 m 539 104 q 619 115 576 104 q 699 140 663 125 q 751 167 736 156 q 780 260 768 206 q 798 378 792 314 q 804 513 804 443 q 794 676 804 601 q 769 801 785 751 q 736 826 763 811 q 674 857 710 842 q 602 883 639 872 q 538 893 565 893 q 460 885 504 893 q 376 866 417 878 q 307 842 335 854 q 280 748 292 803 q 263 630 268 693 q 257 501 257 567 q 268 336 257 417 q 306 200 279 256 q 347 169 318 186 q 412 138 376 153 q 482 113 447 122 q 539 104 517 104 m 532 -278 q 501 -270 524 -278 q 452 -249 479 -262 q 402 -217 425 -235 q 369 -179 379 -199 q 388 -106 369 -142 q 436 -37 406 -69 q 501 19 467 -6 l 606 21 q 540 -37 567 -4 q 500 -99 514 -71 q 486 -139 486 -126 q 560 -183 514 -169 q 658 -197 607 -197 q 665 -210 661 -201 q 669 -225 669 -218 q 607 -262 650 -247 q 532 -278 564 -278 z "},"Ø":{"ha":1064,"x_min":94,"x_max":969,"o":"m 329 -132 q 283 -123 303 -132 q 253 -106 263 -114 l 556 713 q 613 869 585 790 q 666 1017 642 949 q 704 1128 690 1085 q 760 1110 740 1124 q 786 1085 781 1096 l 329 -132 m 507 0 q 412 15 464 0 q 310 51 360 29 q 220 99 260 74 q 163 144 181 124 q 112 265 129 185 q 94 443 94 344 q 103 604 94 525 q 126 748 113 683 q 156 847 140 813 q 234 899 188 872 q 338 949 281 925 q 456 986 394 972 q 578 1000 517 1000 q 662 988 614 1000 q 759 958 710 976 q 848 916 808 939 q 908 869 888 893 q 942 788 929 838 q 963 678 956 738 q 969 554 969 618 q 960 397 969 475 q 937 253 951 318 q 904 149 922 189 q 810 85 872 121 q 670 25 749 50 q 507 0 592 0 m 539 104 q 619 115 576 104 q 699 140 663 125 q 751 167 736 156 q 780 260 768 206 q 798 378 792 314 q 804 513 804 443 q 794 676 804 601 q 769 801 785 751 q 736 826 763 811 q 674 857 710 842 q 602 883 639 872 q 538 893 565 893 q 460 885 504 893 q 376 866 417 878 q 307 842 335 854 q 280 748 292 803 q 263 630 268 693 q 257 501 257 567 q 268 336 257 417 q 306 200 279 256 q 347 169 318 186 q 412 138 376 153 q 482 113 447 122 q 539 104 517 104 z "},"Ǿ":{"ha":1064,"x_min":94,"x_max":969,"o":"m 329 -132 q 283 -123 303 -132 q 253 -106 263 -114 l 556 713 q 613 869 585 790 q 666 1017 642 949 q 704 1128 690 1085 q 760 1110 740 1124 q 786 1085 781 1096 l 329 -132 m 507 0 q 412 15 464 0 q 310 51 360 29 q 220 99 260 74 q 163 144 181 124 q 112 265 129 185 q 94 443 94 344 q 103 604 94 525 q 126 748 113 683 q 156 847 140 813 q 234 899 188 872 q 338 949 281 925 q 456 986 394 972 q 578 1000 517 1000 q 662 988 614 1000 q 759 958 710 976 q 848 916 808 939 q 908 869 888 893 q 942 788 929 838 q 963 678 956 738 q 969 554 969 618 q 960 397 969 475 q 937 253 951 318 q 904 149 922 189 q 810 85 872 121 q 670 25 749 50 q 507 0 592 0 m 539 104 q 619 115 576 104 q 699 140 663 125 q 751 167 736 156 q 780 260 768 206 q 798 378 792 314 q 804 513 804 443 q 794 676 804 601 q 769 801 785 751 q 736 826 763 811 q 674 857 710 842 q 602 883 639 872 q 538 893 565 893 q 460 885 504 893 q 376 866 417 878 q 307 842 335 854 q 280 748 292 803 q 263 630 268 693 q 257 501 257 567 q 268 336 257 417 q 306 200 279 256 q 347 169 318 186 q 412 138 376 153 q 482 113 447 122 q 539 104 517 104 m 400 1068 q 369 1085 382 1074 q 350 1103 356 1096 q 447 1229 400 1175 q 530 1314 494 1283 q 579 1344 565 1344 q 609 1331 590 1344 q 645 1296 628 1317 q 669 1254 663 1275 l 400 1068 z "},"Õ":{"ha":1064,"x_min":94,"x_max":969,"o":"m 507 0 q 412 15 464 0 q 310 51 360 29 q 220 99 260 74 q 163 144 181 124 q 112 265 129 185 q 94 443 94 344 q 103 604 94 525 q 126 748 113 683 q 156 847 140 813 q 234 899 188 872 q 338 949 281 925 q 456 986 394 972 q 578 1000 517 1000 q 662 988 614 1000 q 759 958 710 976 q 848 916 808 939 q 908 869 888 893 q 942 788 929 838 q 963 678 956 738 q 969 554 969 618 q 960 397 969 475 q 937 253 951 318 q 904 149 922 189 q 810 85 872 121 q 670 25 749 50 q 507 0 592 0 m 539 104 q 619 115 576 104 q 699 140 663 125 q 751 167 736 156 q 780 260 768 206 q 798 378 792 314 q 804 513 804 443 q 794 676 804 601 q 769 801 785 751 q 736 826 763 811 q 674 857 710 842 q 602 883 639 872 q 538 893 565 893 q 460 885 504 893 q 376 866 417 878 q 307 842 335 854 q 280 748 292 803 q 263 630 268 693 q 257 501 257 567 q 268 336 257 417 q 306 200 279 256 q 347 169 318 186 q 412 138 376 153 q 482 113 447 122 q 539 104 517 104 m 663 1081 q 599 1094 644 1081 q 500 1128 554 1108 q 400 1167 446 1149 l 297 1093 q 280 1103 289 1096 q 265 1122 271 1110 q 307 1186 283 1153 q 355 1242 331 1219 q 397 1265 379 1265 q 461 1252 415 1265 q 563 1221 507 1239 q 667 1185 619 1203 l 763 1272 q 786 1260 776 1267 q 800 1246 796 1253 q 756 1172 782 1211 q 706 1107 731 1133 q 663 1081 681 1081 z "},"Ȭ":{"ha":1064,"x_min":94,"x_max":969,"o":"m 507 0 q 412 15 464 0 q 310 51 360 29 q 220 99 260 74 q 163 144 181 124 q 112 265 129 185 q 94 443 94 344 q 103 604 94 525 q 126 748 113 683 q 156 847 140 813 q 234 899 188 872 q 338 949 281 925 q 456 986 394 972 q 578 1000 517 1000 q 662 988 614 1000 q 759 958 710 976 q 848 916 808 939 q 908 869 888 893 q 942 788 929 838 q 963 678 956 738 q 969 554 969 618 q 960 397 969 475 q 937 253 951 318 q 904 149 922 189 q 810 85 872 121 q 670 25 749 50 q 507 0 592 0 m 539 104 q 619 115 576 104 q 699 140 663 125 q 751 167 736 156 q 780 260 768 206 q 798 378 792 314 q 804 513 804 443 q 794 676 804 601 q 769 801 785 751 q 736 826 763 811 q 674 857 710 842 q 602 883 639 872 q 538 893 565 893 q 460 885 504 893 q 376 866 417 878 q 307 842 335 854 q 280 748 292 803 q 263 630 268 693 q 257 501 257 567 q 268 336 257 417 q 306 200 279 256 q 347 169 318 186 q 412 138 376 153 q 482 113 447 122 q 539 104 517 104 m 663 1081 q 599 1094 644 1081 q 500 1128 554 1108 q 400 1167 446 1149 l 297 1093 q 280 1103 289 1096 q 265 1122 271 1110 q 307 1186 283 1153 q 355 1242 331 1219 q 397 1265 379 1265 q 461 1252 415 1265 q 563 1221 507 1239 q 667 1185 619 1203 l 763 1272 q 786 1260 776 1267 q 800 1246 796 1253 q 756 1172 782 1211 q 706 1107 731 1133 q 663 1081 681 1081 m 306 1347 q 311 1402 306 1379 q 322 1431 317 1425 q 428 1433 367 1431 q 554 1438 490 1435 q 669 1445 618 1442 q 746 1450 721 1449 l 761 1438 q 754 1383 760 1407 q 744 1347 749 1358 l 306 1347 z "},"Œ":{"ha":1489,"x_min":94,"x_max":1397,"o":"m 507 0 q 412 15 464 0 q 310 51 360 29 q 220 99 260 74 q 163 144 181 124 q 112 265 129 185 q 94 443 94 344 q 103 603 94 524 q 126 747 113 683 q 156 846 140 811 q 234 898 188 871 q 338 948 281 925 q 456 985 394 971 q 578 1000 517 1000 q 646 993 607 1000 q 724 978 685 986 l 1254 978 q 1329 945 1290 967 q 1390 900 1368 924 q 1372 757 1385 817 q 1350 667 1360 697 q 1299 672 1321 667 q 1268 681 1278 676 l 1232 876 q 1165 887 1207 882 q 1072 896 1124 892 q 965 900 1019 900 q 910 884 929 900 q 886 842 892 868 q 881 789 881 817 l 881 544 q 986 548 932 546 q 1091 554 1040 550 q 1183 563 1142 558 l 1199 547 q 1192 497 1197 522 q 1182 463 1188 472 l 881 463 l 881 194 q 872 135 881 160 q 856 100 864 111 l 1235 100 l 1315 335 q 1365 328 1342 335 q 1397 311 1388 321 q 1394 219 1397 265 q 1386 132 1390 172 q 1378 64 1382 92 q 1342 38 1365 53 q 1296 11 1319 22 q 1258 0 1272 0 q 1169 2 1221 0 q 1058 8 1117 4 q 937 16 999 11 q 816 26 875 21 q 708 38 757 32 q 611 10 663 19 q 507 0 560 0 m 539 104 q 632 114 581 104 q 726 138 683 124 l 726 850 q 670 871 704 861 q 600 887 636 881 q 538 893 564 893 q 461 885 504 893 q 376 866 418 878 q 307 842 335 854 q 280 749 292 803 q 263 631 268 694 q 257 501 257 568 q 268 336 257 417 q 306 200 279 256 q 347 169 318 186 q 411 138 375 153 q 481 113 447 122 q 539 104 515 104 z "},"P":{"ha":903,"x_min":74,"x_max":853,"o":"m 371 0 q 331 3 361 0 q 263 13 301 7 q 186 24 225 18 q 117 37 147 31 q 75 47 88 43 q 79 69 75 58 q 89 85 83 79 l 129 90 q 169 104 154 94 q 192 143 185 114 q 199 232 199 172 l 199 789 q 203 851 199 828 q 215 887 208 875 q 225 900 222 899 l 90 900 q 80 914 85 906 q 74 932 75 922 q 99 952 82 942 q 135 970 117 963 q 161 978 153 978 l 639 978 q 710 951 674 968 q 779 912 747 933 q 831 867 811 890 q 847 815 842 846 q 853 746 853 783 q 845 648 853 697 q 825 560 838 599 q 794 506 813 522 q 740 467 774 489 q 666 429 707 446 q 579 406 625 413 l 354 406 l 354 193 q 346 133 354 158 q 329 99 338 108 l 476 82 q 484 68 481 78 q 488 47 488 58 q 434 15 469 31 q 371 0 399 0 m 354 496 q 525 499 450 496 q 651 507 600 503 q 677 562 667 529 q 692 633 688 594 q 697 710 697 671 q 688 806 697 763 q 654 874 678 850 q 592 889 631 883 q 515 897 554 894 q 447 900 475 900 q 394 886 414 900 q 364 848 374 872 q 354 790 354 824 l 354 496 z "},"Þ":{"ha":885,"x_min":74,"x_max":840,"o":"m 371 0 q 331 3 361 0 q 263 13 301 7 q 186 24 225 18 q 117 37 147 31 q 75 47 88 43 q 79 69 75 58 q 89 85 83 79 l 129 90 q 169 103 154 94 q 192 142 185 113 q 199 232 199 171 l 199 789 q 203 851 199 828 q 215 887 208 875 q 225 900 222 899 l 90 900 q 80 914 85 906 q 74 932 75 922 q 99 952 82 942 q 135 970 117 963 q 161 978 153 978 l 471 978 q 484 956 478 971 q 490 925 490 942 l 429 907 q 369 867 383 893 q 354 785 354 842 l 354 753 l 631 753 q 700 726 664 743 q 768 687 736 708 q 819 642 800 665 q 835 590 831 619 q 840 535 840 561 q 826 438 840 488 q 789 360 813 388 q 736 323 771 344 q 659 283 701 301 q 572 260 617 265 l 354 260 l 354 193 q 346 133 354 158 q 329 99 338 108 l 474 82 q 480 68 476 79 q 483 47 483 57 q 429 15 463 29 q 371 0 396 0 m 354 343 q 519 348 444 343 q 646 361 594 353 q 674 428 663 388 q 686 517 686 469 q 676 594 686 561 q 649 649 667 628 q 589 664 625 658 q 515 672 553 669 q 447 675 478 675 q 376 645 397 675 q 354 567 354 615 l 354 343 z "},"Q":{"ha":1064,"x_min":94,"x_max":969,"o":"m 735 -278 q 674 -265 714 -278 q 586 -231 635 -253 q 490 -185 538 -210 q 406 -134 443 -160 q 350 -86 368 -108 q 370 -30 350 -62 q 408 25 390 3 l 486 21 l 474 -42 q 540 -83 497 -60 q 635 -128 583 -107 q 739 -164 686 -150 q 835 -178 792 -178 l 886 -178 q 895 -194 892 -182 q 899 -219 899 -206 q 855 -249 885 -236 q 792 -270 825 -262 q 735 -278 760 -278 m 507 0 q 412 15 464 0 q 310 51 360 29 q 220 99 260 74 q 163 144 181 124 q 112 265 129 185 q 94 443 94 344 q 103 604 94 525 q 126 748 113 683 q 156 847 140 813 q 234 899 188 872 q 338 949 281 925 q 456 986 394 972 q 578 1000 517 1000 q 662 988 614 1000 q 759 958 710 976 q 848 916 808 939 q 908 869 888 893 q 942 788 929 838 q 963 678 956 738 q 969 554 969 618 q 960 397 969 475 q 937 253 951 318 q 904 149 922 189 q 810 85 872 121 q 670 25 749 50 q 507 0 592 0 m 539 104 q 619 115 576 104 q 699 140 663 125 q 751 167 736 156 q 780 260 768 206 q 798 378 792 314 q 804 513 804 443 q 794 676 804 601 q 769 801 785 751 q 736 826 763 811 q 674 857 710 842 q 602 883 639 872 q 538 893 565 893 q 460 885 504 893 q 376 866 417 878 q 307 842 335 854 q 280 748 292 803 q 263 630 268 693 q 257 501 257 567 q 268 336 257 417 q 306 200 279 256 q 347 169 318 186 q 412 138 376 153 q 482 113 447 122 q 539 104 517 104 z "},"R":{"ha":999,"x_min":74,"x_max":985,"o":"m 371 0 q 331 3 361 0 q 263 13 301 7 q 186 24 225 18 q 117 37 147 31 q 75 47 88 43 q 79 69 75 58 q 89 85 83 79 l 129 90 q 172 106 157 94 q 192 146 186 117 q 199 231 199 175 l 199 789 q 203 851 199 828 q 215 887 208 875 q 225 900 222 899 l 90 900 q 80 914 85 906 q 74 932 75 922 q 99 952 82 942 q 135 970 117 963 q 161 978 153 978 l 663 978 q 732 952 697 968 q 798 916 767 936 q 849 874 829 896 q 865 821 860 851 q 871 754 871 790 q 863 663 871 706 q 842 588 856 619 q 813 539 829 556 q 769 511 797 525 q 706 485 740 497 q 640 464 672 472 l 640 457 q 676 423 663 443 q 707 372 690 403 l 772 254 q 820 174 797 210 q 872 117 843 139 q 940 93 900 96 l 971 92 q 980 76 975 88 q 985 49 985 65 q 938 20 964 31 q 885 5 911 10 q 836 0 858 0 q 719 45 764 0 q 640 163 674 90 l 539 382 q 510 426 525 413 q 465 440 494 440 l 354 440 l 354 193 q 346 133 354 158 q 329 99 338 108 l 476 82 q 484 68 481 78 q 488 47 488 58 q 434 15 469 31 q 371 0 399 0 m 354 526 q 474 528 415 526 q 584 534 533 531 q 669 540 635 538 q 704 623 693 572 q 715 726 715 674 q 705 813 715 775 q 674 874 694 851 q 609 889 650 883 q 526 897 568 894 q 456 900 483 900 q 379 869 404 900 q 354 790 354 839 l 354 526 z "},"Ŕ":{"ha":999,"x_min":74,"x_max":985,"o":"m 371 0 q 331 3 361 0 q 263 13 301 7 q 186 24 225 18 q 117 37 147 31 q 75 47 88 43 q 79 69 75 58 q 89 85 83 79 l 129 90 q 172 106 157 94 q 192 146 186 117 q 199 231 199 175 l 199 789 q 203 851 199 828 q 215 887 208 875 q 225 900 222 899 l 90 900 q 80 914 85 906 q 74 932 75 922 q 99 952 82 942 q 135 970 117 963 q 161 978 153 978 l 663 978 q 732 952 697 968 q 798 916 767 936 q 849 874 829 896 q 865 821 860 851 q 871 754 871 790 q 863 663 871 706 q 842 588 856 619 q 813 539 829 556 q 769 511 797 525 q 706 485 740 497 q 640 464 672 472 l 640 457 q 676 423 663 443 q 707 372 690 403 l 772 254 q 820 174 797 210 q 872 117 843 139 q 940 93 900 96 l 971 92 q 980 76 975 88 q 985 49 985 65 q 938 20 964 31 q 885 5 911 10 q 836 0 858 0 q 719 45 764 0 q 640 163 674 90 l 539 382 q 510 426 525 413 q 465 440 494 440 l 354 440 l 354 193 q 346 133 354 158 q 329 99 338 108 l 476 82 q 484 68 481 78 q 488 47 488 58 q 434 15 469 31 q 371 0 399 0 m 354 526 q 474 528 415 526 q 584 534 533 531 q 669 540 635 538 q 704 623 693 572 q 715 726 715 674 q 705 813 715 775 q 674 874 694 851 q 609 889 650 883 q 526 897 568 894 q 456 900 483 900 q 379 869 404 900 q 354 790 354 839 l 354 526 m 403 1068 q 372 1085 385 1074 q 353 1103 358 1096 q 450 1229 403 1175 q 533 1314 497 1283 q 582 1344 568 1344 q 612 1331 593 1344 q 648 1296 631 1317 q 672 1254 665 1275 l 403 1068 z "},"Ř":{"ha":999,"x_min":74,"x_max":985,"o":"m 371 0 q 331 3 361 0 q 263 13 301 7 q 186 24 225 18 q 117 37 147 31 q 75 47 88 43 q 79 69 75 58 q 89 85 83 79 l 129 90 q 172 106 157 94 q 192 146 186 117 q 199 231 199 175 l 199 789 q 203 851 199 828 q 215 887 208 875 q 225 900 222 899 l 90 900 q 80 914 85 906 q 74 932 75 922 q 99 952 82 942 q 135 970 117 963 q 161 978 153 978 l 663 978 q 732 952 697 968 q 798 916 767 936 q 849 874 829 896 q 865 821 860 851 q 871 754 871 790 q 863 663 871 706 q 842 588 856 619 q 813 539 829 556 q 769 511 797 525 q 706 485 740 497 q 640 464 672 472 l 640 457 q 676 423 663 443 q 707 372 690 403 l 772 254 q 820 174 797 210 q 872 117 843 139 q 940 93 900 96 l 971 92 q 980 76 975 88 q 985 49 985 65 q 938 20 964 31 q 885 5 911 10 q 836 0 858 0 q 719 45 764 0 q 640 163 674 90 l 539 382 q 510 426 525 413 q 465 440 494 440 l 354 440 l 354 193 q 346 133 354 158 q 329 99 338 108 l 476 82 q 484 68 481 78 q 488 47 488 58 q 434 15 469 31 q 371 0 399 0 m 354 526 q 474 528 415 526 q 584 534 533 531 q 669 540 635 538 q 704 623 693 572 q 715 726 715 674 q 705 813 715 775 q 674 874 694 851 q 609 889 650 883 q 526 897 568 894 q 456 900 483 900 q 379 869 404 900 q 354 790 354 839 l 354 526 m 500 1068 q 450 1100 481 1068 q 378 1186 419 1132 q 286 1308 338 1240 q 304 1331 292 1319 q 329 1344 317 1342 l 501 1203 l 669 1344 q 694 1331 682 1340 q 713 1310 707 1321 q 619 1184 660 1239 q 549 1099 579 1129 q 500 1068 519 1068 z "},"Ŗ":{"ha":999,"x_min":74,"x_max":985,"o":"m 371 0 q 331 3 361 0 q 263 13 301 7 q 186 24 225 18 q 117 37 147 31 q 75 47 88 43 q 79 69 75 58 q 89 85 83 79 l 129 90 q 172 106 157 94 q 192 146 186 117 q 199 231 199 175 l 199 789 q 203 851 199 828 q 215 887 208 875 q 225 900 222 899 l 90 900 q 80 914 85 906 q 74 932 75 922 q 99 952 82 942 q 135 970 117 963 q 161 978 153 978 l 663 978 q 732 952 697 968 q 798 916 767 936 q 849 874 829 896 q 865 821 860 851 q 871 754 871 790 q 863 663 871 706 q 842 588 856 619 q 813 539 829 556 q 769 511 797 525 q 706 485 740 497 q 640 464 672 472 l 640 457 q 676 423 663 443 q 707 372 690 403 l 772 254 q 820 174 797 210 q 872 117 843 139 q 940 93 900 96 l 971 92 q 980 76 975 88 q 985 49 985 65 q 938 20 964 31 q 885 5 911 10 q 836 0 858 0 q 719 45 764 0 q 640 163 674 90 l 539 382 q 510 426 525 413 q 465 440 494 440 l 354 440 l 354 193 q 346 133 354 158 q 329 99 338 108 l 476 82 q 484 68 481 78 q 488 47 488 58 q 434 15 469 31 q 371 0 399 0 m 354 526 q 474 528 415 526 q 584 534 533 531 q 669 540 635 538 q 704 623 693 572 q 715 726 715 674 q 705 813 715 775 q 674 874 694 851 q 609 889 650 883 q 526 897 568 894 q 456 900 483 900 q 379 869 404 900 q 354 790 354 839 l 354 526 m 472 -353 q 435 -341 451 -353 q 413 -319 419 -329 q 463 -283 436 -307 q 503 -232 490 -260 l 522 -265 q 488 -253 508 -265 q 447 -222 467 -240 q 415 -182 428 -203 q 401 -144 401 -161 q 415 -119 401 -133 q 447 -93 428 -106 q 485 -72 467 -81 q 515 -62 504 -62 q 540 -75 526 -62 q 567 -106 554 -87 q 590 -142 581 -124 q 599 -172 599 -161 q 582 -210 599 -182 q 542 -272 565 -239 q 499 -329 519 -306 q 472 -353 479 -353 z "},"Ȑ":{"ha":999,"x_min":74,"x_max":985,"o":"m 371 0 q 331 3 361 0 q 263 13 301 7 q 186 24 225 18 q 117 37 147 31 q 75 47 88 43 q 79 69 75 58 q 89 85 83 79 l 129 90 q 172 106 157 94 q 192 146 186 117 q 199 231 199 175 l 199 789 q 203 851 199 828 q 215 887 208 875 q 225 900 222 899 l 90 900 q 80 914 85 906 q 74 932 75 922 q 99 952 82 942 q 135 970 117 963 q 161 978 153 978 l 663 978 q 732 952 697 968 q 798 916 767 936 q 849 874 829 896 q 865 821 860 851 q 871 754 871 790 q 863 663 871 706 q 842 588 856 619 q 813 539 829 556 q 769 511 797 525 q 706 485 740 497 q 640 464 672 472 l 640 457 q 676 423 663 443 q 707 372 690 403 l 772 254 q 820 174 797 210 q 872 117 843 139 q 940 93 900 96 l 971 92 q 980 76 975 88 q 985 49 985 65 q 938 20 964 31 q 885 5 911 10 q 836 0 858 0 q 719 45 764 0 q 640 163 674 90 l 539 382 q 510 426 525 413 q 465 440 494 440 l 354 440 l 354 193 q 346 133 354 158 q 329 99 338 108 l 476 82 q 484 68 481 78 q 488 47 488 58 q 434 15 469 31 q 371 0 399 0 m 354 526 q 474 528 415 526 q 584 534 533 531 q 669 540 635 538 q 704 623 693 572 q 715 726 715 674 q 705 813 715 775 q 674 874 694 851 q 609 889 650 883 q 526 897 568 894 q 456 900 483 900 q 379 869 404 900 q 354 790 354 839 l 354 526 m 419 1068 l 165 1250 q 188 1291 172 1271 q 222 1324 204 1311 q 250 1338 240 1338 q 297 1307 264 1338 q 376 1224 331 1276 q 465 1101 421 1171 q 447 1083 460 1093 q 419 1068 435 1074 m 649 1068 l 393 1250 q 416 1290 400 1269 q 450 1324 432 1310 q 479 1338 468 1338 q 526 1307 492 1338 q 605 1224 560 1276 q 694 1101 650 1171 q 675 1082 689 1093 q 649 1068 661 1071 z "},"Ȓ":{"ha":999,"x_min":74,"x_max":985,"o":"m 371 0 q 331 3 361 0 q 263 13 301 7 q 186 24 225 18 q 117 37 147 31 q 75 47 88 43 q 79 69 75 58 q 89 85 83 79 l 129 90 q 172 106 157 94 q 192 146 186 117 q 199 231 199 175 l 199 789 q 203 851 199 828 q 215 887 208 875 q 225 900 222 899 l 90 900 q 80 914 85 906 q 74 932 75 922 q 99 952 82 942 q 135 970 117 963 q 161 978 153 978 l 663 978 q 732 952 697 968 q 798 916 767 936 q 849 874 829 896 q 865 821 860 851 q 871 754 871 790 q 863 663 871 706 q 842 588 856 619 q 813 539 829 556 q 769 511 797 525 q 706 485 740 497 q 640 464 672 472 l 640 457 q 676 423 663 443 q 707 372 690 403 l 772 254 q 820 174 797 210 q 872 117 843 139 q 940 93 900 96 l 971 92 q 980 76 975 88 q 985 49 985 65 q 938 20 964 31 q 885 5 911 10 q 836 0 858 0 q 719 45 764 0 q 640 163 674 90 l 539 382 q 510 426 525 413 q 465 440 494 440 l 354 440 l 354 193 q 346 133 354 158 q 329 99 338 108 l 476 82 q 484 68 481 78 q 488 47 488 58 q 434 15 469 31 q 371 0 399 0 m 354 526 q 474 528 415 526 q 584 534 533 531 q 669 540 635 538 q 704 623 693 572 q 715 726 715 674 q 705 813 715 775 q 674 874 694 851 q 609 889 650 883 q 526 897 568 894 q 456 900 483 900 q 379 869 404 900 q 354 790 354 839 l 354 526 m 499 1257 q 625 1212 585 1257 q 675 1090 665 1167 q 651 1082 668 1086 q 608 1078 633 1078 q 574 1149 599 1131 q 499 1167 549 1167 q 424 1149 449 1167 q 389 1078 400 1131 q 349 1082 367 1078 q 324 1090 332 1086 q 372 1210 332 1163 q 499 1257 411 1257 z "},"S":{"ha":897,"x_min":101,"x_max":808,"o":"m 417 0 q 338 10 382 0 q 247 37 293 21 q 162 73 200 53 q 101 111 124 93 q 109 201 103 154 q 125 289 115 247 q 143 357 135 331 q 194 352 171 357 q 226 344 217 347 l 264 157 q 324 135 289 146 q 395 117 358 124 q 458 111 432 111 q 515 116 483 111 q 576 130 546 121 q 626 149 606 139 q 644 206 638 172 q 651 278 651 240 q 649 324 651 299 q 642 371 647 350 q 537 404 599 386 q 408 442 475 422 q 279 483 340 463 q 176 526 218 504 q 124 568 133 547 q 115 611 118 586 q 113 663 113 636 q 123 782 113 721 q 149 875 133 843 q 216 918 175 896 q 304 958 257 940 q 397 988 351 976 q 478 1000 443 1000 q 587 988 531 1000 q 692 956 643 975 q 774 914 742 936 q 768 851 772 885 q 758 782 764 817 q 746 719 753 747 q 733 672 739 690 q 683 678 707 672 q 646 689 658 683 l 615 863 q 566 878 593 871 q 509 889 539 885 q 449 893 479 893 q 397 890 424 893 q 345 881 371 888 q 294 867 319 875 q 277 802 282 840 q 272 725 272 764 q 274 681 272 700 q 276 646 275 661 q 372 615 311 632 q 504 578 433 597 q 640 537 575 558 q 749 492 704 515 q 799 446 793 469 q 806 404 804 428 q 808 344 808 381 q 800 226 808 278 q 774 129 792 174 q 719 91 757 113 q 629 49 681 69 q 522 14 578 28 q 417 0 467 0 z "},"Ś":{"ha":897,"x_min":101,"x_max":808,"o":"m 417 0 q 338 10 382 0 q 247 37 293 21 q 162 73 200 53 q 101 111 124 93 q 109 201 103 154 q 125 289 115 247 q 143 357 135 331 q 194 352 171 357 q 226 344 217 347 l 264 157 q 324 135 289 146 q 395 117 358 124 q 458 111 432 111 q 515 116 483 111 q 576 130 546 121 q 626 149 606 139 q 644 206 638 172 q 651 278 651 240 q 649 324 651 299 q 642 371 647 350 q 537 404 599 386 q 408 442 475 422 q 279 483 340 463 q 176 526 218 504 q 124 568 133 547 q 115 611 118 586 q 113 663 113 636 q 123 782 113 721 q 149 875 133 843 q 216 918 175 896 q 304 958 257 940 q 397 988 351 976 q 478 1000 443 1000 q 587 988 531 1000 q 692 956 643 975 q 774 914 742 936 q 768 851 772 885 q 758 782 764 817 q 746 719 753 747 q 733 672 739 690 q 683 678 707 672 q 646 689 658 683 l 615 863 q 566 878 593 871 q 509 889 539 885 q 449 893 479 893 q 397 890 424 893 q 345 881 371 888 q 294 867 319 875 q 277 802 282 840 q 272 725 272 764 q 274 681 272 700 q 276 646 275 661 q 372 615 311 632 q 504 578 433 597 q 640 537 575 558 q 749 492 704 515 q 799 446 793 469 q 806 404 804 428 q 808 344 808 381 q 800 226 808 278 q 774 129 792 174 q 719 91 757 113 q 629 49 681 69 q 522 14 578 28 q 417 0 467 0 m 354 1068 q 323 1085 336 1074 q 304 1103 310 1096 q 401 1229 354 1175 q 484 1314 449 1283 q 533 1344 519 1344 q 563 1331 544 1344 q 599 1296 582 1317 q 624 1254 617 1275 l 354 1068 z "},"Ꞌ":{"ha":279,"x_min":21,"x_max":235,"o":"m 85 586 l 85 944 q 74 973 85 964 q 21 1001 64 982 q 28 1038 22 1028 q 35 1051 33 1049 q 82 1061 53 1056 q 138 1071 111 1067 q 176 1075 164 1075 q 218 1061 201 1075 q 235 1025 235 1047 q 231 988 235 1017 q 225 938 228 958 l 168 604 q 135 592 158 597 q 85 586 113 586 z "},"Š":{"ha":897,"x_min":101,"x_max":808,"o":"m 417 0 q 338 10 382 0 q 247 37 293 21 q 162 73 200 53 q 101 111 124 93 q 109 201 103 154 q 125 289 115 247 q 143 357 135 331 q 194 352 171 357 q 226 344 217 347 l 264 157 q 324 135 289 146 q 395 117 358 124 q 458 111 432 111 q 515 116 483 111 q 576 130 546 121 q 626 149 606 139 q 644 206 638 172 q 651 278 651 240 q 649 324 651 299 q 642 371 647 350 q 537 404 599 386 q 408 442 475 422 q 279 483 340 463 q 176 526 218 504 q 124 568 133 547 q 115 611 118 586 q 113 663 113 636 q 123 782 113 721 q 149 875 133 843 q 216 918 175 896 q 304 958 257 940 q 397 988 351 976 q 478 1000 443 1000 q 587 988 531 1000 q 692 956 643 975 q 774 914 742 936 q 768 851 772 885 q 758 782 764 817 q 746 719 753 747 q 733 672 739 690 q 683 678 707 672 q 646 689 658 683 l 615 863 q 566 878 593 871 q 509 889 539 885 q 449 893 479 893 q 397 890 424 893 q 345 881 371 888 q 294 867 319 875 q 277 802 282 840 q 272 725 272 764 q 274 681 272 700 q 276 646 275 661 q 372 615 311 632 q 504 578 433 597 q 640 537 575 558 q 749 492 704 515 q 799 446 793 469 q 806 404 804 428 q 808 344 808 381 q 800 226 808 278 q 774 129 792 174 q 719 91 757 113 q 629 49 681 69 q 522 14 578 28 q 417 0 467 0 m 451 1068 q 401 1100 432 1068 q 330 1186 371 1132 q 238 1308 289 1240 q 256 1331 243 1319 q 281 1344 268 1342 l 453 1203 l 621 1344 q 646 1331 633 1340 q 664 1310 658 1321 q 571 1184 611 1239 q 501 1099 531 1129 q 451 1068 471 1068 z "},"Ş":{"ha":897,"x_min":101,"x_max":808,"o":"m 417 0 q 338 10 382 0 q 247 37 293 21 q 162 73 200 53 q 101 111 124 93 q 109 201 103 154 q 125 289 115 247 q 143 357 135 331 q 194 352 171 357 q 226 344 217 347 l 264 157 q 324 135 289 146 q 395 117 358 124 q 458 111 432 111 q 515 116 483 111 q 576 130 546 121 q 626 149 606 139 q 644 206 638 172 q 651 278 651 240 q 649 324 651 299 q 642 371 647 350 q 537 404 599 386 q 408 442 475 422 q 279 483 340 463 q 176 526 218 504 q 124 568 133 547 q 115 611 118 586 q 113 663 113 636 q 123 782 113 721 q 149 875 133 843 q 216 918 175 896 q 304 958 257 940 q 397 988 351 976 q 478 1000 443 1000 q 587 988 531 1000 q 692 956 643 975 q 774 914 742 936 q 768 851 772 885 q 758 782 764 817 q 746 719 753 747 q 733 672 739 690 q 683 678 707 672 q 646 689 658 683 l 615 863 q 566 878 593 871 q 509 889 539 885 q 449 893 479 893 q 397 890 424 893 q 345 881 371 888 q 294 867 319 875 q 277 802 282 840 q 272 725 272 764 q 274 681 272 700 q 276 646 275 661 q 372 615 311 632 q 504 578 433 597 q 640 537 575 558 q 749 492 704 515 q 799 446 793 469 q 806 404 804 428 q 808 344 808 381 q 800 226 808 278 q 774 129 792 174 q 719 91 757 113 q 629 49 681 69 q 522 14 578 28 q 417 0 467 0 m 458 -278 q 426 -272 446 -278 q 389 -259 406 -267 q 367 -244 372 -251 q 369 -226 367 -233 q 374 -217 372 -219 q 457 -215 421 -217 q 524 -207 493 -214 q 534 -176 531 -196 q 538 -143 538 -157 q 504 -127 528 -136 q 453 -110 481 -118 q 406 -99 426 -101 q 394 -76 400 -90 q 388 -49 388 -62 q 413 -1 403 -21 q 444 51 424 18 l 499 51 l 469 -51 q 545 -71 507 -57 q 608 -100 583 -85 q 633 -126 633 -115 q 625 -181 633 -149 q 601 -231 617 -212 q 550 -256 579 -244 q 496 -272 521 -267 q 458 -278 471 -278 z "}}}
